<svg id="cn_logo_white" data-name="CN Logo White" xmlns="http://www.w3.org/2000/svg" viewBox="0 0 754.68 188.5"><defs><style>.cls-1{fill:#fff;}.cls-2{fill:none;stroke:#fff;stroke-miterlimit:10;}</style></defs><title>Cyclenation_logo_W</title><path class="cls-1" d="M32.1,82.69,38,98.38H34.39L33.2,94.89H27.33L26.1,98.38H22.63l5.93-15.69H32.1m.2,9.62-2-5.75h0l-2.05,5.75Z" transform="translate(0 -0.5)"/><path class="cls-1" d="M42,87v1.54h0a4.38,4.38,0,0,1,1.48-1.37,4,4,0,0,1,2-.48,4.58,4.58,0,0,1,2,.42,2.76,2.76,0,0,1,1.35,1.47,4.81,4.81,0,0,1,1.37-1.32,3.68,3.68,0,0,1,2.06-.57,5.92,5.92,0,0,1,1.67.22,3.35,3.35,0,0,1,1.32.7,3.3,3.3,0,0,1,.85,1.27,5,5,0,0,1,.31,1.88v7.6H53.33V91.94c0-.38,0-.74,0-1.08A2.21,2.21,0,0,0,53,90a1.49,1.49,0,0,0-.58-.59,2,2,0,0,0-1-.22,2.09,2.09,0,0,0-1.07.25,1.81,1.81,0,0,0-.63.66,2.49,2.49,0,0,0-.31.93,7.17,7.17,0,0,0-.08,1v6.33H46.21V92c0-.34,0-.67,0-1a3,3,0,0,0-.19-.92,1.43,1.43,0,0,0-.55-.67,2.15,2.15,0,0,0-1.13-.25,2.13,2.13,0,0,0-.58.1,1.94,1.94,0,0,0-.71.37,2.35,2.35,0,0,0-.58.79,3.28,3.28,0,0,0-.24,1.36v6.59H39.09V87H42" transform="translate(0 -0.5)"/><path class="cls-1" d="M62.25,95.65a2.79,2.79,0,0,0,2,.69,2.72,2.72,0,0,0,1.62-.48,1.92,1.92,0,0,0,.84-1h2.75a5.23,5.23,0,0,1-2,2.93,6,6,0,0,1-3.29.88,6.6,6.6,0,0,1-2.42-.43A5.2,5.2,0,0,1,59.92,97a5.49,5.49,0,0,1-1.15-1.89,7,7,0,0,1-.41-2.42,6.56,6.56,0,0,1,.42-2.37,5.48,5.48,0,0,1,3-3.17,5.86,5.86,0,0,1,2.37-.46,5.41,5.41,0,0,1,2.52.56,5,5,0,0,1,1.77,1.51,6,6,0,0,1,1,2.15,7.87,7.87,0,0,1,.22,2.53H61.49a3.1,3.1,0,0,0,.76,2.19m3.53-6a2.18,2.18,0,0,0-1.7-.62,2.69,2.69,0,0,0-1.24.25,2.44,2.44,0,0,0-.8.63,2.39,2.39,0,0,0-.41.79,3.35,3.35,0,0,0-.14.75h5.07A3.58,3.58,0,0,0,65.78,89.68Z" transform="translate(0 -0.5)"/><path class="cls-1" d="M74.5,87v2.11h0a3.66,3.66,0,0,1,.59-1,3.93,3.93,0,0,1,.86-.77,4.05,4.05,0,0,1,1-.49,3.69,3.69,0,0,1,1.15-.18,2.59,2.59,0,0,1,.68.11v2.9l-.53-.08-.59,0a3.28,3.28,0,0,0-1.45.29,2.47,2.47,0,0,0-1,.78,3.27,3.27,0,0,0-.52,1.15,6.47,6.47,0,0,0-.15,1.43v5.12H71.53V87h3" transform="translate(0 -0.5)"/><path class="cls-1" d="M80.16,82.69h3.13v2.57H80.16Zm0,4.33h3.13V98.38H80.16Z" transform="translate(0 -0.5)"/><path class="cls-1" d="M91.17,89.06a2.18,2.18,0,0,0-1.25.34,2.77,2.77,0,0,0-.82.88,4,4,0,0,0-.45,1.19,6.25,6.25,0,0,0-.13,1.28A6.13,6.13,0,0,0,88.65,94a3.86,3.86,0,0,0,.43,1.15,2.41,2.41,0,0,0,.8.85,2.17,2.17,0,0,0,1.23.33,2.3,2.3,0,0,0,1.73-.63A3,3,0,0,0,93.59,94h3a5.14,5.14,0,0,1-1.75,3.45,5.7,5.7,0,0,1-3.72,1.19,6.33,6.33,0,0,1-2.34-.43A5.3,5.3,0,0,1,87,97a5.46,5.46,0,0,1-1.17-1.84,6.32,6.32,0,0,1-.42-2.34,7.49,7.49,0,0,1,.39-2.45,5.55,5.55,0,0,1,1.13-2,5.23,5.23,0,0,1,1.83-1.29,6.1,6.1,0,0,1,2.46-.46,7.32,7.32,0,0,1,1.94.26,5.29,5.29,0,0,1,1.67.81A4.18,4.18,0,0,1,96,89.12a4.27,4.27,0,0,1,.53,1.9H93.48a2.09,2.09,0,0,0-2.31-2" transform="translate(0 -0.5)"/><path class="cls-1" d="M98.78,88.69A3.72,3.72,0,0,1,100,87.52a5.35,5.35,0,0,1,1.68-.62,9.16,9.16,0,0,1,1.88-.19,12.94,12.94,0,0,1,1.74.12,5.42,5.42,0,0,1,1.6.47,3.25,3.25,0,0,1,1.19,1,2.72,2.72,0,0,1,.46,1.66v5.91a11.49,11.49,0,0,0,.09,1.47,2.68,2.68,0,0,0,.31,1.06h-3.17a3.29,3.29,0,0,1-.14-.54,3.43,3.43,0,0,1-.08-.56,4.13,4.13,0,0,1-1.76,1.08,7.19,7.19,0,0,1-2.06.31,5.64,5.64,0,0,1-1.52-.2A3.4,3.4,0,0,1,99,97.85a3,3,0,0,1-.83-1,3.71,3.71,0,0,1-.29-1.52,3.28,3.28,0,0,1,.34-1.59,2.86,2.86,0,0,1,.88-1,3.84,3.84,0,0,1,1.23-.56,11.5,11.5,0,0,1,1.39-.3l1.39-.18a9.07,9.07,0,0,0,1.21-.19,2.07,2.07,0,0,0,.83-.39.84.84,0,0,0,.29-.73,1.82,1.82,0,0,0-.16-.81,1.17,1.17,0,0,0-.45-.46,1.74,1.74,0,0,0-.63-.22,6.26,6.26,0,0,0-.78,0,2.38,2.38,0,0,0-1.45.39,1.77,1.77,0,0,0-.62,1.32H98.23a3.69,3.69,0,0,1,.55-1.82m6.16,4.4a5.23,5.23,0,0,1-.63.17l-.72.11c-.25,0-.49.06-.74.11a5.49,5.49,0,0,0-.7.17,2.51,2.51,0,0,0-.59.3,1.44,1.44,0,0,0-.41.47,1.58,1.58,0,0,0-.15.73,1.48,1.48,0,0,0,.15.7,1.3,1.3,0,0,0,.42.45,1.7,1.7,0,0,0,.62.23,3.38,3.38,0,0,0,.72.07,2.71,2.71,0,0,0,1.43-.31,2,2,0,0,0,.75-.73,2.29,2.29,0,0,0,.29-.87,5.6,5.6,0,0,0,.06-.71V92.82A1.26,1.26,0,0,1,104.94,93.09Z" transform="translate(0 -0.5)"/><path class="cls-1" d="M114,87V88.6H114a3.6,3.6,0,0,1,1.54-1.44,4.44,4.44,0,0,1,1.94-.45,5.26,5.26,0,0,1,2.05.34,3,3,0,0,1,1.26,1,3.53,3.53,0,0,1,.65,1.47,9.46,9.46,0,0,1,.19,1.92v7h-3.13V92a4,4,0,0,0-.43-2.1,1.72,1.72,0,0,0-1.56-.69,2.16,2.16,0,0,0-1.85.76,4.21,4.21,0,0,0-.57,2.49v6H111V87h3" transform="translate(0 -0.5)"/><polyline class="cls-1" points="53.45 104.39 53.45 112.14 61.61 112.14 61.61 104.39 66.05 104.39 66.05 124.57 61.61 124.57 61.61 115.87 53.45 115.87 53.45 124.57 49.01 124.57 49.01 104.39 53.45 104.39"/><path class="cls-1" d="M73.82,121.56a4.1,4.1,0,0,0,4.69.27,2.5,2.5,0,0,0,1.07-1.28h3.53a6.64,6.64,0,0,1-2.6,3.75,7.57,7.57,0,0,1-4.23,1.14,8.28,8.28,0,0,1-3.11-.56,6.54,6.54,0,0,1-2.35-1.56,7.12,7.12,0,0,1-1.48-2.43,8.9,8.9,0,0,1-.52-3.11,8.52,8.52,0,0,1,.53-3.06,7.12,7.12,0,0,1,3.89-4.07,7.67,7.67,0,0,1,3-.59,7,7,0,0,1,3.25.72,6.47,6.47,0,0,1,2.27,1.94,8.11,8.11,0,0,1,1.29,2.77,10.57,10.57,0,0,1,.28,3.25H72.83a4,4,0,0,0,1,2.82m4.53-7.68a2.81,2.81,0,0,0-2.19-.79,3.41,3.41,0,0,0-1.59.32,3.1,3.1,0,0,0-1,.81,3,3,0,0,0-.54,1,5,5,0,0,0-.18,1h6.53A4.63,4.63,0,0,0,78.35,113.88Z" transform="translate(0 -0.5)"/><path class="cls-1" d="M86.28,112.61a4.72,4.72,0,0,1,1.58-1.5A6.78,6.78,0,0,1,90,110.3a12.16,12.16,0,0,1,2.41-.24,15.41,15.41,0,0,1,2.23.16,6.5,6.5,0,0,1,2.06.61,4.08,4.08,0,0,1,1.53,1.25,3.5,3.5,0,0,1,.6,2.14v7.6a14.34,14.34,0,0,0,.11,1.89,3.35,3.35,0,0,0,.39,1.36H95.29c-.07-.23-.13-.46-.18-.7a5.43,5.43,0,0,1-.1-.72A5.17,5.17,0,0,1,92.75,125a9.2,9.2,0,0,1-2.65.4,7.25,7.25,0,0,1-2-.26,4.43,4.43,0,0,1-1.58-.79A3.77,3.77,0,0,1,85.5,123a4.61,4.61,0,0,1-.38-2,4.29,4.29,0,0,1,.44-2,3.7,3.7,0,0,1,1.13-1.28,5.07,5.07,0,0,1,1.58-.72,16,16,0,0,1,1.8-.38c.6-.1,1.19-.17,1.78-.23a11.7,11.7,0,0,0,1.55-.25,2.73,2.73,0,0,0,1.07-.5,1.06,1.06,0,0,0,.37-1,2.16,2.16,0,0,0-.21-1,1.59,1.59,0,0,0-.56-.59,2.15,2.15,0,0,0-.83-.28,6.28,6.28,0,0,0-1-.07,3.09,3.09,0,0,0-1.86.5,2.27,2.27,0,0,0-.79,1.7h-4a4.62,4.62,0,0,1,.71-2.34m7.93,5.66a5.18,5.18,0,0,1-.82.21,8.84,8.84,0,0,1-.92.14l-1,.14a8.93,8.93,0,0,0-.89.23,2.77,2.77,0,0,0-.77.38,1.92,1.92,0,0,0-.52.61,2,2,0,0,0-.2.93,1.94,1.94,0,0,0,.2.91,1.58,1.58,0,0,0,.54.58,2.19,2.19,0,0,0,.79.29,4.73,4.73,0,0,0,.93.09,3.49,3.49,0,0,0,1.84-.4,2.71,2.71,0,0,0,1-.94,3,3,0,0,0,.38-1.12,7.13,7.13,0,0,0,.07-.9v-1.5A1.75,1.75,0,0,1,94.21,118.27Z" transform="translate(0 -0.5)"/><path class="cls-1" d="M105.78,110.46v2.71h0a5.14,5.14,0,0,1,.77-1.26,5.2,5.2,0,0,1,1.1-1,5.41,5.41,0,0,1,1.33-.63,4.81,4.81,0,0,1,1.47-.23,3.27,3.27,0,0,1,.87.14v3.73l-.68-.1c-.26,0-.51,0-.76,0a4.31,4.31,0,0,0-1.86.37,3.2,3.2,0,0,0-1.23,1,4.22,4.22,0,0,0-.67,1.49,8.08,8.08,0,0,0-.2,1.83v6.59h-4V110.46h3.82" transform="translate(0 -0.5)"/><path class="cls-1" d="M122.55,110.46v2.68h-2.94v7.24a1.93,1.93,0,0,0,.34,1.35,2,2,0,0,0,1.36.34c.22,0,.44,0,.65,0a5.59,5.59,0,0,0,.59-.08v3.11c-.34.05-.72.09-1.13.11l-1.22,0a11,11,0,0,1-1.76-.13,4.11,4.11,0,0,1-1.47-.49,2.69,2.69,0,0,1-1-1,3.78,3.78,0,0,1-.36-1.78v-8.62h-2.43v-2.68h2.43v-4.38h4v4.38h2.94" transform="translate(0 -0.5)"/><path class="cls-1" d="M9.47,131.35,15.34,147H11.76l-1.19-3.49H4.7L3.47,147H0l5.93-15.69H9.47m.2,9.63-2-5.76h0L5.6,141Z" transform="translate(0 -0.5)"/><path class="cls-1" d="M19,144.22a1.8,1.8,0,0,0,.54.59,2.11,2.11,0,0,0,.76.34,3.24,3.24,0,0,0,.89.11,3.37,3.37,0,0,0,.69-.07,2.36,2.36,0,0,0,.66-.24,1.48,1.48,0,0,0,.49-.44,1.14,1.14,0,0,0,.2-.7c0-.46-.31-.82-.93-1.05a19.28,19.28,0,0,0-2.61-.7c-.45-.11-.9-.23-1.33-.37a4.53,4.53,0,0,1-1.15-.55,2.53,2.53,0,0,1-.81-.85,2.42,2.42,0,0,1-.31-1.27,3.38,3.38,0,0,1,.43-1.8,3.08,3.08,0,0,1,1.13-1.11,5,5,0,0,1,1.58-.57,9.8,9.8,0,0,1,1.8-.16,8.86,8.86,0,0,1,1.8.17,5,5,0,0,1,1.54.59,3.52,3.52,0,0,1,1.13,1.11A3.58,3.58,0,0,1,26,139h-3a1.38,1.38,0,0,0-.68-1.22,3.18,3.18,0,0,0-1.46-.32l-.57,0a2,2,0,0,0-.56.15,1,1,0,0,0-.42.32.82.82,0,0,0-.18.56.86.86,0,0,0,.31.68,2.25,2.25,0,0,0,.8.43,8.4,8.4,0,0,0,1.13.29l1.3.29c.45.1.89.23,1.33.37a4.3,4.3,0,0,1,1.15.59,2.69,2.69,0,0,1,.81.9,2.59,2.59,0,0,1,.31,1.33,3.46,3.46,0,0,1-1.62,3.1,5,5,0,0,1-1.66.64,9.35,9.35,0,0,1-1.9.19,9.53,9.53,0,0,1-1.94-.2,5,5,0,0,1-1.68-.66,3.63,3.63,0,0,1-1.73-3.12h3a1.7,1.7,0,0,0,.21.87" transform="translate(0 -0.5)"/><path class="cls-1" d="M30.8,144.22a1.8,1.8,0,0,0,.54.59,2.11,2.11,0,0,0,.76.34,3.24,3.24,0,0,0,.89.11,3.37,3.37,0,0,0,.69-.07,2.36,2.36,0,0,0,.66-.24,1.48,1.48,0,0,0,.49-.44,1.14,1.14,0,0,0,.2-.7c0-.46-.31-.82-.93-1.05a18.48,18.48,0,0,0-2.61-.7c-.45-.11-.89-.23-1.32-.37a4.44,4.44,0,0,1-1.16-.55,2.53,2.53,0,0,1-.81-.85,2.42,2.42,0,0,1-.31-1.27,3.38,3.38,0,0,1,.43-1.8,3.08,3.08,0,0,1,1.13-1.11,5,5,0,0,1,1.58-.57,9.83,9.83,0,0,1,1.81-.16,8.83,8.83,0,0,1,1.79.17,5,5,0,0,1,1.54.59,3.55,3.55,0,0,1,1.14,1.11,3.8,3.8,0,0,1,.54,1.75h-3a1.38,1.38,0,0,0-.68-1.22,3.16,3.16,0,0,0-1.45-.32l-.57,0a2,2,0,0,0-.57.15,1.1,1.1,0,0,0-.42.32.82.82,0,0,0-.18.56.86.86,0,0,0,.31.68,2.25,2.25,0,0,0,.8.43,8.81,8.81,0,0,0,1.13.29l1.3.29c.45.1.9.23,1.33.37a4.16,4.16,0,0,1,1.15.59,2.83,2.83,0,0,1,.82.9,2.7,2.7,0,0,1,.3,1.33,3.46,3.46,0,0,1-1.62,3.1,5,5,0,0,1-1.66.64,9.35,9.35,0,0,1-1.9.19,9.6,9.6,0,0,1-1.94-.2,5,5,0,0,1-1.68-.66,3.71,3.71,0,0,1-1.21-1.22,3.83,3.83,0,0,1-.51-1.9h3a1.7,1.7,0,0,0,.21.87" transform="translate(0 -0.5)"/><path class="cls-1" d="M40,138.9a5.21,5.21,0,0,1,3-3.1,6.55,6.55,0,0,1,2.41-.42,6.66,6.66,0,0,1,2.43.42A5.3,5.3,0,0,1,49.78,137,5.39,5.39,0,0,1,51,138.9a7.47,7.47,0,0,1,0,4.94,5.44,5.44,0,0,1-1.19,1.88,5.13,5.13,0,0,1-1.86,1.19,6.66,6.66,0,0,1-2.43.42,6.55,6.55,0,0,1-2.41-.42,5.17,5.17,0,0,1-1.85-1.19A5.44,5.44,0,0,1,40,143.84a7.47,7.47,0,0,1,0-4.94m2.84,3.81a3.6,3.6,0,0,0,.45,1.16,2.36,2.36,0,0,0,.84.82,3,3,0,0,0,2.65,0,2.34,2.34,0,0,0,.86-.82,3.6,3.6,0,0,0,.45-1.16,6.62,6.62,0,0,0,.13-1.34,6.69,6.69,0,0,0-.13-1.34,3.51,3.51,0,0,0-.45-1.16,2.53,2.53,0,0,0-.86-.83,2.55,2.55,0,0,0-3.49.83,3.51,3.51,0,0,0-.45,1.16,6.7,6.7,0,0,0-.14,1.34A6.62,6.62,0,0,0,42.88,142.71Z" transform="translate(0 -0.5)"/><path class="cls-1" d="M58.83,137.73a2.18,2.18,0,0,0-1.25.34,2.57,2.57,0,0,0-.82.88,3.81,3.81,0,0,0-.45,1.18,6.29,6.29,0,0,0-.14,1.29,6,6,0,0,0,.14,1.25,3.92,3.92,0,0,0,.43,1.16,2.38,2.38,0,0,0,.8.84,2.17,2.17,0,0,0,1.23.33,2.26,2.26,0,0,0,1.72-.63,2.86,2.86,0,0,0,.76-1.68h3a5.11,5.11,0,0,1-1.76,3.45,5.66,5.66,0,0,1-3.71,1.19,6.13,6.13,0,0,1-2.34-.43,5.05,5.05,0,0,1-1.81-1.19,5.56,5.56,0,0,1-1.17-1.84,6.32,6.32,0,0,1-.42-2.34,7.45,7.45,0,0,1,.39-2.45,5.37,5.37,0,0,1,1.13-2,5,5,0,0,1,1.83-1.28,6.08,6.08,0,0,1,2.45-.46,7,7,0,0,1,1.95.26,5.07,5.07,0,0,1,1.67.8,4.4,4.4,0,0,1,1.2,1.34,4.35,4.35,0,0,1,.53,1.9H61.14a2.09,2.09,0,0,0-2.31-2" transform="translate(0 -0.5)"/><path class="cls-1" d="M66.11,131.35h3.12v2.57H66.11Zm0,4.33h3.12V147H66.11Z" transform="translate(0 -0.5)"/><path class="cls-1" d="M72.11,137.35a3.69,3.69,0,0,1,1.23-1.16,5.62,5.62,0,0,1,1.68-.63,9.9,9.9,0,0,1,1.88-.18,14.48,14.48,0,0,1,1.73.11,5.4,5.4,0,0,1,1.61.48,3.16,3.16,0,0,1,1.19,1,2.76,2.76,0,0,1,.46,1.65v5.92A11.61,11.61,0,0,0,82,146a2.58,2.58,0,0,0,.3,1H79.12a3.18,3.18,0,0,1-.14-.53,3.56,3.56,0,0,1-.08-.57A3.94,3.94,0,0,1,77.14,147a6.88,6.88,0,0,1-2.07.31,5.62,5.62,0,0,1-1.51-.2,3.38,3.38,0,0,1-1.23-.61,2.91,2.91,0,0,1-.83-1.06,3.66,3.66,0,0,1-.29-1.51,3.3,3.3,0,0,1,.34-1.6,3,3,0,0,1,.88-1,3.86,3.86,0,0,1,1.23-.56c.46-.12.92-.22,1.39-.3s.93-.13,1.39-.17a7.83,7.83,0,0,0,1.21-.2,2.21,2.21,0,0,0,.83-.38.86.86,0,0,0,.29-.74,1.64,1.64,0,0,0-.17-.8,1.15,1.15,0,0,0-.44-.46,1.57,1.57,0,0,0-.64-.22,4.63,4.63,0,0,0-.77-.06,2.43,2.43,0,0,0-1.46.4,1.76,1.76,0,0,0-.61,1.32H71.56a3.53,3.53,0,0,1,.55-1.83m6.16,4.41a3.74,3.74,0,0,1-.64.16,7.06,7.06,0,0,1-.71.11l-.74.11c-.24.05-.47.11-.7.18a1.82,1.82,0,0,0-.59.3,1.33,1.33,0,0,0-.41.47,1.78,1.78,0,0,0,0,1.43,1.14,1.14,0,0,0,.42.45,1.82,1.82,0,0,0,.62.23,4.2,4.2,0,0,0,.72.06,2.82,2.82,0,0,0,1.43-.3,2.13,2.13,0,0,0,.75-.74,2.24,2.24,0,0,0,.29-.87,5.47,5.47,0,0,0,.06-.7v-1.17A1.51,1.51,0,0,1,78.27,141.76Z" transform="translate(0 -0.5)"/><path class="cls-1" d="M90.55,135.68v2.09H88.26v5.63a1.06,1.06,0,0,0,1.32,1.31,4.35,4.35,0,0,0,.51,0,3.4,3.4,0,0,0,.46-.06V147a5.68,5.68,0,0,1-.88.09c-.32,0-.64,0-1,0a10,10,0,0,1-1.37-.09,3.34,3.34,0,0,1-1.14-.39,2,2,0,0,1-.78-.81,2.93,2.93,0,0,1-.29-1.39v-6.7H83.25v-2.09h1.89v-3.4h3.12v3.4h2.29" transform="translate(0 -0.5)"/><path class="cls-1" d="M92.13,131.35h3.12v2.57H92.13Zm0,4.33h3.12V147H92.13Z" transform="translate(0 -0.5)"/><path class="cls-1" d="M97.78,138.9A5.37,5.37,0,0,1,99,137a5.45,5.45,0,0,1,1.85-1.21,6.61,6.61,0,0,1,2.42-.42,6.74,6.74,0,0,1,2.43.42,5.35,5.35,0,0,1,1.85,1.21,5.25,5.25,0,0,1,1.19,1.89,7.47,7.47,0,0,1,0,4.94,5.29,5.29,0,0,1-1.19,1.88,5.17,5.17,0,0,1-1.85,1.19,6.74,6.74,0,0,1-2.43.42,6.61,6.61,0,0,1-2.42-.42A5.26,5.26,0,0,1,99,145.72a5.41,5.41,0,0,1-1.18-1.88,7.47,7.47,0,0,1,0-4.94m2.83,3.81a3.6,3.6,0,0,0,.45,1.16,2.47,2.47,0,0,0,.85.82,2.53,2.53,0,0,0,1.32.31,2.59,2.59,0,0,0,1.33-.31,2.41,2.41,0,0,0,.86-.82,3.6,3.6,0,0,0,.45-1.16,7.42,7.42,0,0,0,.13-1.34,7.51,7.51,0,0,0-.13-1.34,3.51,3.51,0,0,0-.45-1.16,2.63,2.63,0,0,0-.86-.83,2.59,2.59,0,0,0-1.33-.31,2.53,2.53,0,0,0-1.32.31,2.7,2.7,0,0,0-.85.83,3.51,3.51,0,0,0-.45,1.16,7.51,7.51,0,0,0-.13,1.34A7.42,7.42,0,0,0,100.61,142.71Z" transform="translate(0 -0.5)"/><path class="cls-1" d="M114.11,135.68v1.58h.06a3.6,3.6,0,0,1,1.54-1.44,4.61,4.61,0,0,1,1.94-.44,5.22,5.22,0,0,1,2,.34,2.91,2.91,0,0,1,1.26.94,3.53,3.53,0,0,1,.65,1.47,8.83,8.83,0,0,1,.19,1.93v7h-3.12v-6.41a4,4,0,0,0-.44-2.1,1.71,1.71,0,0,0-1.56-.69,2.18,2.18,0,0,0-1.85.75,4.25,4.25,0,0,0-.57,2.5V147h-3.12V135.68h3" transform="translate(0 -0.5)"/><path class="cls-1" d="M144.27,15.28a7.07,7.07,0,0,0-3,7.59c2.91-4.31,11.78-.42,14.72-10.3a8.83,8.83,0,0,1-5.82,1.89c4.83-2,7.59-9.11,3.27-14,1.27,5.72-6,6.22-11.72,7.29-10.74,2-12.5,12-7.62,17-.56-6,4.23-9.61,10.21-9.55" transform="translate(0 -0.5)"/><path class="cls-1" d="M141.62,49.65c.36-5,.48-9.55,1.57-12.86h-9.05c1.09,3.31,1.22,7.86,1.58,12.86.44,6.19,1.55,23.9,1.55,23.9h2.79s1.11-17.71,1.56-23.9m-16.2-19.54a11.78,11.78,0,0,1,.86,4h24.78a11.63,11.63,0,0,1,.86-4H140.15c1.59-2.64,5.43-6.93,13.53-6.92,8.83,0,18.7,7.15,18.74,19.83.07,18.95-19.73,32.49-33.81,41.34C124.75,75.51,104.85,62,104.92,43c0-12.68,9.91-19.83,18.74-19.83,8.1,0,11.94,4.28,13.54,6.92Z" transform="translate(0 -0.5)"/><path class="cls-1" d="M165.45,82.76l5.87,15.69h-3.59L166.54,95h-5.86l-1.23,3.49H156l5.94-15.69h3.54m.19,9.63-2-5.76h0l-2,5.76Z" transform="translate(0 -0.5)"/><path class="cls-1" d="M175.38,87.09v1.54h.05a4.26,4.26,0,0,1,1.48-1.36,3.94,3.94,0,0,1,2-.49,4.5,4.5,0,0,1,2,.42,2.77,2.77,0,0,1,1.36,1.47,5,5,0,0,1,1.37-1.32,3.65,3.65,0,0,1,2-.57,6.44,6.44,0,0,1,1.68.22,3.26,3.26,0,0,1,1.31.71,3.11,3.11,0,0,1,.86,1.26,5.25,5.25,0,0,1,.31,1.88v7.6h-3.12V92c0-.38,0-.74-.05-1.07a2.33,2.33,0,0,0-.24-.88,1.52,1.52,0,0,0-.58-.6,2.22,2.22,0,0,0-1.05-.22,2,2,0,0,0-1.06.26,1.92,1.92,0,0,0-.64.66,2.7,2.7,0,0,0-.31.92,7.17,7.17,0,0,0-.07,1v6.33h-3.12V92.08c0-.34,0-.67,0-1a2.68,2.68,0,0,0-.18-.91,1.44,1.44,0,0,0-.55-.67,2.08,2.08,0,0,0-1.13-.26,2.77,2.77,0,0,0-.59.1,1.94,1.94,0,0,0-.7.38,2.06,2.06,0,0,0-.58.79,3.2,3.2,0,0,0-.24,1.35v6.59h-3.13V87.09h2.95" transform="translate(0 -0.5)"/><path class="cls-1" d="M195.6,95.73a2.8,2.8,0,0,0,2,.68,2.84,2.84,0,0,0,1.63-.47,2,2,0,0,0,.83-1h2.75a5.22,5.22,0,0,1-2,2.92,6,6,0,0,1-3.3.88,6.44,6.44,0,0,1-2.42-.43,5.12,5.12,0,0,1-1.82-1.22,5.49,5.49,0,0,1-1.15-1.89,6.94,6.94,0,0,1-.41-2.42,6.56,6.56,0,0,1,.42-2.37,5.5,5.5,0,0,1,3-3.16,5.85,5.85,0,0,1,2.36-.47,5.46,5.46,0,0,1,2.53.56,5.09,5.09,0,0,1,1.77,1.51,6.34,6.34,0,0,1,1,2.15,8.16,8.16,0,0,1,.22,2.53h-8.2a3.2,3.2,0,0,0,.77,2.2m3.53-6a2.19,2.19,0,0,0-1.71-.61,2.71,2.71,0,0,0-1.24.25,2.37,2.37,0,0,0-.79.62,2.29,2.29,0,0,0-.42.8,3.8,3.8,0,0,0-.14.74h5.08A3.67,3.67,0,0,0,199.13,89.75Z" transform="translate(0 -0.5)"/><path class="cls-1" d="M207.84,87.09V89.2h0a4,4,0,0,1,1.46-1.75,4.24,4.24,0,0,1,1-.49,3.63,3.63,0,0,1,1.14-.18,2.53,2.53,0,0,1,.68.11v2.9a5.09,5.09,0,0,0-.52-.07,4.22,4.22,0,0,0-.6,0,3.35,3.35,0,0,0-1.45.29,2.63,2.63,0,0,0-1,.78,3.09,3.09,0,0,0-.51,1.15,5.92,5.92,0,0,0-.15,1.43v5.12h-3.12V87.09h3" transform="translate(0 -0.5)"/><path class="cls-1" d="M213.51,82.76h3.12v2.57h-3.12Zm0,4.33h3.12V98.45h-3.12Z" transform="translate(0 -0.5)"/><path class="cls-1" d="M224.52,89.14a2.22,2.22,0,0,0-1.25.33,2.76,2.76,0,0,0-.82.88,3.49,3.49,0,0,0-.45,1.19,6.29,6.29,0,0,0-.14,1.29,6.06,6.06,0,0,0,.14,1.25,3.84,3.84,0,0,0,.42,1.15,2.44,2.44,0,0,0,.81.85,2.17,2.17,0,0,0,1.23.33,2.27,2.27,0,0,0,1.72-.63,2.89,2.89,0,0,0,.76-1.68h3a5.15,5.15,0,0,1-1.76,3.45,5.66,5.66,0,0,1-3.71,1.19,6.13,6.13,0,0,1-2.34-.43,5.35,5.35,0,0,1-1.82-1.2,5.55,5.55,0,0,1-1.16-1.83,6.32,6.32,0,0,1-.42-2.34,7.45,7.45,0,0,1,.39-2.45,5.37,5.37,0,0,1,1.13-2,5,5,0,0,1,1.82-1.28,6.17,6.17,0,0,1,2.46-.47,7,7,0,0,1,2,.27,5.07,5.07,0,0,1,1.67.8,4.29,4.29,0,0,1,1.2,1.34,4.18,4.18,0,0,1,.52,1.9h-3a2.09,2.09,0,0,0-2.31-2" transform="translate(0 -0.5)"/><path class="cls-1" d="M232.13,88.76a3.69,3.69,0,0,1,1.23-1.16A5.19,5.19,0,0,1,235,87a9.91,9.91,0,0,1,1.88-.19,12.68,12.68,0,0,1,1.73.12,5.2,5.2,0,0,1,1.61.48,3.05,3.05,0,0,1,1.18,1,2.67,2.67,0,0,1,.47,1.65v5.92A11.64,11.64,0,0,0,242,97.4a2.57,2.57,0,0,0,.31,1h-3.16a4.61,4.61,0,0,1-.15-.53,5.22,5.22,0,0,1-.07-.57,4,4,0,0,1-1.76,1.08,6.88,6.88,0,0,1-2.07.31,5.62,5.62,0,0,1-1.51-.2,3.38,3.38,0,0,1-1.23-.61,2.81,2.81,0,0,1-.83-1.06,3.51,3.51,0,0,1-.29-1.51,3.3,3.3,0,0,1,.34-1.6,2.76,2.76,0,0,1,.88-1,3.65,3.65,0,0,1,1.23-.56c.46-.12.92-.22,1.39-.3s.93-.13,1.39-.17a8.81,8.81,0,0,0,1.2-.2,2.12,2.12,0,0,0,.84-.39.85.85,0,0,0,.29-.73,1.64,1.64,0,0,0-.17-.8,1.15,1.15,0,0,0-.44-.46,1.57,1.57,0,0,0-.64-.22,4.75,4.75,0,0,0-.78-.06,2.33,2.33,0,0,0-1.45.4,1.76,1.76,0,0,0-.61,1.31h-3.12a3.5,3.5,0,0,1,.55-1.82m6.16,4.41a5.44,5.44,0,0,1-.64.16,7.06,7.06,0,0,1-.71.11l-.75.11a5.84,5.84,0,0,0-.69.18,2,2,0,0,0-.59.29,1.46,1.46,0,0,0-.41.48,1.78,1.78,0,0,0,0,1.43,1.14,1.14,0,0,0,.42.45,1.84,1.84,0,0,0,.61.23,4.4,4.4,0,0,0,.73.06,2.74,2.74,0,0,0,1.43-.31,2.07,2.07,0,0,0,.74-.73,2.32,2.32,0,0,0,.3-.87,5.47,5.47,0,0,0,.06-.7V92.89A1.51,1.51,0,0,1,238.29,93.17Z" transform="translate(0 -0.5)"/><path class="cls-1" d="M247.29,87.09v1.58h.07a3.55,3.55,0,0,1,1.54-1.44,4.43,4.43,0,0,1,1.93-.45,5.41,5.41,0,0,1,2,.34,3.11,3.11,0,0,1,1.27.95,3.67,3.67,0,0,1,.65,1.47,9.49,9.49,0,0,1,.18,1.92v7h-3.12V92a3.91,3.91,0,0,0-.44-2.1,1.68,1.68,0,0,0-1.56-.7A2.16,2.16,0,0,0,248,90a4.17,4.17,0,0,0-.58,2.5v6h-3.12V87.09h3" transform="translate(0 -0.5)"/><path class="cls-1" d="M161.45,120.17a3.18,3.18,0,0,0,1,1.14,4.26,4.26,0,0,0,1.43.65,6.75,6.75,0,0,0,1.69.21,8.44,8.44,0,0,0,1.28-.1,4.24,4.24,0,0,0,1.27-.38,2.77,2.77,0,0,0,1-.77,2,2,0,0,0,.39-1.26,1.76,1.76,0,0,0-.52-1.33,4.27,4.27,0,0,0-1.37-.85,15.11,15.11,0,0,0-1.92-.59c-.72-.17-1.45-.36-2.18-.57a18.13,18.13,0,0,1-2.2-.69,7.64,7.64,0,0,1-1.93-1.06A4.87,4.87,0,0,1,158,113a4.81,4.81,0,0,1-.53-2.36,5.2,5.2,0,0,1,.67-2.7,6.09,6.09,0,0,1,1.73-1.91,7.74,7.74,0,0,1,2.43-1.13,10.61,10.61,0,0,1,2.72-.37,12.57,12.57,0,0,1,3,.36,7.6,7.6,0,0,1,2.59,1.14,5.93,5.93,0,0,1,1.8,2,6.25,6.25,0,0,1,.66,3h-4.3a3.36,3.36,0,0,0-.38-1.49,2.44,2.44,0,0,0-.86-.94,4,4,0,0,0-1.23-.48,7.83,7.83,0,0,0-1.51-.14,5.47,5.47,0,0,0-1.07.11,2.93,2.93,0,0,0-1,.4,2.44,2.44,0,0,0-.72.71,1.87,1.87,0,0,0-.28,1.07,1.8,1.8,0,0,0,.22,1,2,2,0,0,0,.89.68,11.77,11.77,0,0,0,1.84.62l3.07.79c.37.08.9.22,1.57.41a7.84,7.84,0,0,1,2,.95,5.77,5.77,0,0,1,1.7,1.74,4.85,4.85,0,0,1,.73,2.78,6.13,6.13,0,0,1-.54,2.57,5.64,5.64,0,0,1-1.6,2,7.49,7.49,0,0,1-2.63,1.34,13.46,13.46,0,0,1-6.86.07,8.1,8.1,0,0,1-2.77-1.28,6.44,6.44,0,0,1-1.91-2.23,6.69,6.69,0,0,1-.68-3.23h4.3a3.66,3.66,0,0,0,.37,1.73" transform="translate(0 -0.5)"/><path class="cls-1" d="M184,110.53v2.69h-2.93v7.23a1.35,1.35,0,0,0,1.69,1.69c.23,0,.44,0,.65,0A4.89,4.89,0,0,0,184,122v3.11a8.85,8.85,0,0,1-1.12.11l-1.22,0a11.16,11.16,0,0,1-1.77-.13,4.25,4.25,0,0,1-1.47-.49,2.6,2.6,0,0,1-1-1,3.77,3.77,0,0,1-.37-1.78v-8.61h-2.43v-2.69H177v-4.38h4v4.38H184" transform="translate(0 -0.5)"/><path class="cls-1" d="M189.73,110.53v2.71h.06a5.06,5.06,0,0,1,1.86-2.24,5.26,5.26,0,0,1,1.33-.64,4.8,4.8,0,0,1,1.47-.22,3,3,0,0,1,.88.14V114c-.19,0-.42-.07-.68-.1a6.8,6.8,0,0,0-.76,0,4.36,4.36,0,0,0-1.87.36,3.22,3.22,0,0,0-1.23,1,3.92,3.92,0,0,0-.66,1.48,7.69,7.69,0,0,0-.2,1.84v6.58h-4V110.53h3.81" transform="translate(0 -0.5)"/><path class="cls-1" d="M196.51,114.67a6.69,6.69,0,0,1,3.9-4,9.1,9.1,0,0,1,6.23,0,6.77,6.77,0,0,1,2.39,1.55,6.89,6.89,0,0,1,1.53,2.43,9.14,9.14,0,0,1,.53,3.18,9,9,0,0,1-.53,3.16,6.85,6.85,0,0,1-1.53,2.42,6.61,6.61,0,0,1-2.39,1.54,9.25,9.25,0,0,1-6.23,0,6.7,6.7,0,0,1-2.37-1.54,6.85,6.85,0,0,1-1.53-2.42,8.77,8.77,0,0,1-.53-3.16,8.92,8.92,0,0,1,.53-3.18m3.65,4.89a4.47,4.47,0,0,0,.58,1.5,3.13,3.13,0,0,0,1.08,1.06,3.39,3.39,0,0,0,1.7.39,3.43,3.43,0,0,0,1.71-.39,3.11,3.11,0,0,0,1.1-1.06,4.69,4.69,0,0,0,.58-1.5,8.85,8.85,0,0,0,.17-1.71,9,9,0,0,0-.17-1.72,4.35,4.35,0,0,0-.58-1.5,3.19,3.19,0,0,0-1.1-1.06,3.33,3.33,0,0,0-1.71-.41,3.29,3.29,0,0,0-1.7.41,3.22,3.22,0,0,0-1.08,1.06,4.16,4.16,0,0,0-.58,1.5,9,9,0,0,0-.17,1.72A8.85,8.85,0,0,0,200.16,119.56Z" transform="translate(0 -0.5)"/><polyline class="cls-1" points="218.07 104.47 218.07 115.29 223.13 110.03 227.88 110.03 222.37 115.4 228.5 124.64 223.64 124.64 219.63 118.11 218.07 119.61 218.07 124.64 214.06 124.64 214.06 104.47 218.07 104.47"/><path class="cls-1" d="M233.21,121.64a4.15,4.15,0,0,0,4.69.27,2.56,2.56,0,0,0,1.07-1.29h3.54a6.77,6.77,0,0,1-2.61,3.76,7.65,7.65,0,0,1-4.23,1.13,8.49,8.49,0,0,1-3.11-.55,6.52,6.52,0,0,1-2.35-1.57,7.12,7.12,0,0,1-1.48-2.43,8.86,8.86,0,0,1-.52-3.11,8.47,8.47,0,0,1,.53-3,7.12,7.12,0,0,1,1.53-2.44,7,7,0,0,1,2.36-1.63,7.46,7.46,0,0,1,3-.59,7,7,0,0,1,3.25.72,6.45,6.45,0,0,1,2.27,1.93,8.2,8.2,0,0,1,1.29,2.77,10.6,10.6,0,0,1,.28,3.25H232.22a4,4,0,0,0,1,2.83m4.53-7.69a2.81,2.81,0,0,0-2.19-.79,3.41,3.41,0,0,0-1.59.33,2.87,2.87,0,0,0-1,.8,3,3,0,0,0-.54,1,5,5,0,0,0-.18,1h6.53A4.67,4.67,0,0,0,237.74,114Z" transform="translate(0 -0.5)"/><path class="cls-1" d="M165.45,131.43l5.87,15.69h-3.59l-1.19-3.5h-5.86l-1.23,3.5H156l5.94-15.69h3.54m.19,9.62-2-5.76h0l-2,5.76Z" transform="translate(0 -0.5)"/><path class="cls-1" d="M175,144.29a1.84,1.84,0,0,0,.54.6,2.63,2.63,0,0,0,.76.34,3.74,3.74,0,0,0,.89.11,3.4,3.4,0,0,0,.69-.08,2.25,2.25,0,0,0,.66-.24,1.62,1.62,0,0,0,.5-.44,1.15,1.15,0,0,0,.2-.69c0-.47-.32-.82-.94-1.06a18.67,18.67,0,0,0-2.6-.7,13.63,13.63,0,0,1-1.33-.36,4.79,4.79,0,0,1-1.16-.55,2.77,2.77,0,0,1-.81-.86,2.38,2.38,0,0,1-.31-1.26,3.51,3.51,0,0,1,.43-1.81,3.22,3.22,0,0,1,1.13-1.1,4.82,4.82,0,0,1,1.58-.58,9.83,9.83,0,0,1,1.81-.16,9.61,9.61,0,0,1,1.79.17,4.82,4.82,0,0,1,1.55.6,3.62,3.62,0,0,1,1.13,1.11,3.72,3.72,0,0,1,.54,1.74h-3a1.37,1.37,0,0,0-.68-1.22,3.13,3.13,0,0,0-1.45-.31l-.57,0a1.92,1.92,0,0,0-.56.14,1.13,1.13,0,0,0-.43.32.93.93,0,0,0,.13,1.24,2.34,2.34,0,0,0,.8.43,10.72,10.72,0,0,0,1.13.3c.43.08.86.18,1.3.28a11.33,11.33,0,0,1,1.33.38,4.14,4.14,0,0,1,1.15.58,2.83,2.83,0,0,1,.82.9,2.7,2.7,0,0,1,.3,1.33,3.63,3.63,0,0,1-.44,1.88,3.82,3.82,0,0,1-1.18,1.22,4.88,4.88,0,0,1-1.66.65,10,10,0,0,1-1.9.18,9.6,9.6,0,0,1-1.94-.19,5.46,5.46,0,0,1-1.68-.66,3.59,3.59,0,0,1-1.72-3.12h3a1.68,1.68,0,0,0,.2.86" transform="translate(0 -0.5)"/><path class="cls-1" d="M186.77,144.29a1.76,1.76,0,0,0,.55.6,2.45,2.45,0,0,0,.75.34,3.74,3.74,0,0,0,.89.11,3.4,3.4,0,0,0,.69-.08,2.15,2.15,0,0,0,.66-.24,1.52,1.52,0,0,0,.5-.44,1.15,1.15,0,0,0,.2-.69c0-.47-.31-.82-.94-1.06a18.67,18.67,0,0,0-2.6-.7,13.63,13.63,0,0,1-1.33-.36,4.71,4.71,0,0,1-1.15-.55,2.8,2.8,0,0,1-.82-.86,2.48,2.48,0,0,1-.31-1.26,3.51,3.51,0,0,1,.43-1.81,3.22,3.22,0,0,1,1.13-1.1,4.79,4.79,0,0,1,1.59-.58,9.64,9.64,0,0,1,1.8-.16,9.53,9.53,0,0,1,1.79.17,4.73,4.73,0,0,1,1.55.6,3.62,3.62,0,0,1,1.13,1.11,3.72,3.72,0,0,1,.54,1.74h-3a1.37,1.37,0,0,0-.68-1.22,3.13,3.13,0,0,0-1.45-.31l-.57,0a1.92,1.92,0,0,0-.56.14,1.13,1.13,0,0,0-.43.32.84.84,0,0,0-.18.56.86.86,0,0,0,.31.68,2.43,2.43,0,0,0,.8.43,10.94,10.94,0,0,0,1.14.3c.42.08.85.18,1.29.28a11.33,11.33,0,0,1,1.33.38,4.2,4.2,0,0,1,1.16.58,2.92,2.92,0,0,1,.81.9,2.7,2.7,0,0,1,.31,1.33,3.63,3.63,0,0,1-.45,1.88,3.72,3.72,0,0,1-1.18,1.22,4.88,4.88,0,0,1-1.66.65,10,10,0,0,1-1.9.18,9.5,9.5,0,0,1-1.93-.19,5.62,5.62,0,0,1-1.69-.66,3.88,3.88,0,0,1-1.2-1.22,3.79,3.79,0,0,1-.52-1.9h3a1.79,1.79,0,0,0,.2.86" transform="translate(0 -0.5)"/><path class="cls-1" d="M196,139a5.37,5.37,0,0,1,1.18-1.89,5.08,5.08,0,0,1,1.85-1.21,6.4,6.4,0,0,1,2.42-.43,6.53,6.53,0,0,1,2.43.43,5.08,5.08,0,0,1,1.85,1.21,5.25,5.25,0,0,1,1.19,1.89,6.92,6.92,0,0,1,.42,2.47,6.82,6.82,0,0,1-.42,2.46,5.29,5.29,0,0,1-1.19,1.88,5.19,5.19,0,0,1-1.85,1.2,7,7,0,0,1-2.43.41,6.82,6.82,0,0,1-2.42-.41,5.19,5.19,0,0,1-1.85-1.2,5.41,5.41,0,0,1-1.18-1.88,6.82,6.82,0,0,1-.42-2.46A6.92,6.92,0,0,1,196,139m2.83,3.8a3.6,3.6,0,0,0,.45,1.16,2.41,2.41,0,0,0,.85.83,2.63,2.63,0,0,0,1.32.31,2.7,2.7,0,0,0,1.33-.31,2.33,2.33,0,0,0,.85-.83,3.19,3.19,0,0,0,.45-1.16,6.53,6.53,0,0,0,.14-1.33,6.62,6.62,0,0,0-.14-1.34,3.17,3.17,0,0,0-.45-1.17,2.39,2.39,0,0,0-.85-.82,2.59,2.59,0,0,0-1.33-.32,2.53,2.53,0,0,0-1.32.32,2.47,2.47,0,0,0-.85.82,3.57,3.57,0,0,0-.45,1.17,6.62,6.62,0,0,0-.13,1.34A6.52,6.52,0,0,0,198.85,142.78Z" transform="translate(0 -0.5)"/><path class="cls-1" d="M214.81,137.8a2.2,2.2,0,0,0-1.26.34,2.88,2.88,0,0,0-.82.88,4,4,0,0,0-.45,1.19,6.25,6.25,0,0,0-.13,1.28,6,6,0,0,0,.13,1.25,3.92,3.92,0,0,0,.43,1.16,2.57,2.57,0,0,0,.8.84,2.22,2.22,0,0,0,1.23.34,2.3,2.3,0,0,0,1.73-.63,3,3,0,0,0,.76-1.68h3a5.15,5.15,0,0,1-1.76,3.45,5.7,5.7,0,0,1-3.72,1.18,6.32,6.32,0,0,1-2.34-.42,5.3,5.3,0,0,1-1.81-1.2,5.38,5.38,0,0,1-1.16-1.84,6.32,6.32,0,0,1-.42-2.34,7.76,7.76,0,0,1,.38-2.45,5.76,5.76,0,0,1,1.13-2,5.34,5.34,0,0,1,1.83-1.28,6.17,6.17,0,0,1,2.46-.46,7.27,7.27,0,0,1,1.94.26,5.22,5.22,0,0,1,1.68.8,4.18,4.18,0,0,1,1.72,3.25h-3a2.1,2.1,0,0,0-2.31-2" transform="translate(0 -0.5)"/><path class="cls-1" d="M222.08,131.43h3.12V134h-3.12Zm0,4.33h3.12v11.36h-3.12Z" transform="translate(0 -0.5)"/><path class="cls-1" d="M228.08,137.43a3.71,3.71,0,0,1,1.23-1.17,5.62,5.62,0,0,1,1.68-.63,10,10,0,0,1,1.88-.18,12.83,12.83,0,0,1,1.74.12,5.33,5.33,0,0,1,1.6.47,3.17,3.17,0,0,1,1.19,1,2.72,2.72,0,0,1,.46,1.66v5.91a11.61,11.61,0,0,0,.09,1.47,2.68,2.68,0,0,0,.31,1.06h-3.17a5.36,5.36,0,0,1-.14-.54,5,5,0,0,1-.08-.56,4.1,4.1,0,0,1-1.75,1.08,7.3,7.3,0,0,1-2.07.3,5.7,5.7,0,0,1-1.52-.19,3.56,3.56,0,0,1-1.23-.62,2.93,2.93,0,0,1-.82-1.05,3.55,3.55,0,0,1-.3-1.52,3.26,3.26,0,0,1,.34-1.59,2.86,2.86,0,0,1,.88-1,3.84,3.84,0,0,1,1.23-.56,11.26,11.26,0,0,1,1.4-.3c.47-.08.93-.13,1.38-.18a7.44,7.44,0,0,0,1.21-.2,2,2,0,0,0,.84-.38.84.84,0,0,0,.28-.74,1.67,1.67,0,0,0-.16-.8,1.3,1.3,0,0,0-.44-.46,1.87,1.87,0,0,0-.64-.22,6.26,6.26,0,0,0-.78-.05,2.38,2.38,0,0,0-1.45.39,1.79,1.79,0,0,0-.62,1.32h-3.12a3.69,3.69,0,0,1,.55-1.82m6.17,4.4a5.41,5.41,0,0,1-.64.17l-.71.11c-.25,0-.5.06-.75.11a5,5,0,0,0-.69.17,2.11,2.11,0,0,0-.6.3,1.31,1.31,0,0,0-.4.47,1.46,1.46,0,0,0-.16.73,1.37,1.37,0,0,0,.16.7,1.19,1.19,0,0,0,.41.45,1.7,1.7,0,0,0,.62.23,4.18,4.18,0,0,0,.72.07,2.71,2.71,0,0,0,1.43-.31,2,2,0,0,0,.75-.74,2.39,2.39,0,0,0,.3-.86c0-.3.05-.53.05-.71v-1.16A1.29,1.29,0,0,1,234.25,141.83Z" transform="translate(0 -0.5)"/><path class="cls-1" d="M246.52,135.76v2.08h-2.28v5.63a1.48,1.48,0,0,0,.26,1.05,1.52,1.52,0,0,0,1.06.27l.5,0,.46-.07v2.42c-.26,0-.56.07-.88.09l-.94,0a10.06,10.06,0,0,1-1.38-.1,3.14,3.14,0,0,1-1.14-.39,2,2,0,0,1-.78-.81,2.89,2.89,0,0,1-.28-1.38v-6.71h-1.9v-2.08h1.9v-3.41h3.12v3.41h2.28" transform="translate(0 -0.5)"/><path class="cls-1" d="M248.1,131.43h3.13V134H248.1Zm0,4.33h3.13v11.36H248.1Z" transform="translate(0 -0.5)"/><path class="cls-1" d="M253.75,139a5.39,5.39,0,0,1,1.19-1.89,5.13,5.13,0,0,1,1.84-1.21,7.05,7.05,0,0,1,4.85,0,5.12,5.12,0,0,1,1.86,1.21,5.23,5.23,0,0,1,1.18,1.89,6.92,6.92,0,0,1,.42,2.47,6.82,6.82,0,0,1-.42,2.46,5.11,5.11,0,0,1-3,3.08,7.38,7.38,0,0,1-4.85,0,5.24,5.24,0,0,1-1.84-1.2,5.44,5.44,0,0,1-1.19-1.88,6.82,6.82,0,0,1-.42-2.46,6.92,6.92,0,0,1,.42-2.47m2.84,3.8a3.19,3.19,0,0,0,.45,1.16,2.33,2.33,0,0,0,.85.83,2.59,2.59,0,0,0,1.31.31,2.7,2.7,0,0,0,1.33-.31,2.36,2.36,0,0,0,.86-.83,3.6,3.6,0,0,0,.45-1.16,6.52,6.52,0,0,0,.13-1.33,6.62,6.62,0,0,0-.13-1.34,3.57,3.57,0,0,0-.45-1.17,2.42,2.42,0,0,0-.86-.82,2.59,2.59,0,0,0-1.33-.32,2.49,2.49,0,0,0-1.31.32,2.39,2.39,0,0,0-.85.82,3.17,3.17,0,0,0-.45,1.17,6.62,6.62,0,0,0-.13,1.34A6.52,6.52,0,0,0,256.59,142.78Z" transform="translate(0 -0.5)"/><path class="cls-1" d="M270.08,135.76v1.58h.07a3.58,3.58,0,0,1,1.53-1.44,4.51,4.51,0,0,1,1.94-.45,5.22,5.22,0,0,1,2.05.34,3.09,3.09,0,0,1,1.27.94,3.77,3.77,0,0,1,.65,1.48,9.35,9.35,0,0,1,.18,1.92v7h-3.12V140.7a3.91,3.91,0,0,0-.44-2.1,1.7,1.7,0,0,0-1.56-.69,2.14,2.14,0,0,0-1.84.76,4.13,4.13,0,0,0-.58,2.49v6h-3.12V135.76h3" transform="translate(0 -0.5)"/><rect class="cls-1" x="138.34" y="99.47" width="1.18" height="47.21"/><path class="cls-1" d="M285.82,147.12a3.39,3.39,0,0,1-3.47-3.52,3.46,3.46,0,1,1,3.47,3.52m0-6.43a2.73,2.73,0,0,0-2.71,2.91,2.71,2.71,0,1,0,5.4,0A2.73,2.73,0,0,0,285.82,140.69Zm-.7,4.93h-.64v-3.9H286c.94,0,1.42.33,1.42,1.12a1,1,0,0,1-1,1.06l1.1,1.72h-.73l-1-1.67h-.61Zm.72-2.21c.48,0,.9,0,.9-.62s-.46-.52-.85-.52h-.77v1.14Z" transform="translate(0 -0.5)"/><rect class="cls-1" x="84.26" y="165.01" width="2.96" height="18.53"/><path class="cls-1" d="M90.51,165.51h3v2.8h-3Zm0,5.11h3V184h-3Z" transform="translate(0 -0.5)"/><path class="cls-1" d="M95.36,170.62h2.21v-1.11c0-3.43,1.79-4,3.71-4a8.26,8.26,0,0,1,2.07.18V168a5.15,5.15,0,0,0-1.37-.16c-.81,0-1.45.29-1.45,1.41v1.37H103v2.21h-2.51V184h-3V172.83H95.36v-2.21" transform="translate(0 -0.5)"/><path class="cls-1" d="M107.16,178.1c0,2.1,1.15,4,3.61,4a3.1,3.1,0,0,0,3.27-2.23h2.81a5.88,5.88,0,0,1-6.08,4.57c-4.2,0-6.56-2.94-6.56-7.07,0-3.81,2.49-7.08,6.48-7.08,4.24,0,6.83,3.81,6.34,7.84h-9.87m6.91-1.95a3.46,3.46,0,1,0-6.91,0Z" transform="translate(0 -0.5)"/><path class="cls-1" d="M126.51,165.51h1.64v2.62h-1.64Zm0,5.14h1.64V184h-1.64Z" transform="translate(0 -0.5)"/><path class="cls-1" d="M139.31,174.57c-.08-2-1.64-2.93-3.5-2.93-1.46,0-3.17.56-3.17,2.3,0,1.46,1.66,2,2.78,2.26l2.18.5c1.86.28,3.81,1.37,3.81,3.71,0,2.9-2.88,4-5.37,4-3.11,0-5.25-1.45-5.5-4.72h1.63c.13,2.2,1.77,3.34,4,3.34,1.53,0,3.66-.67,3.66-2.54,0-1.56-1.46-2.07-2.94-2.44l-2.1-.47C132.61,177,131,176.31,131,174c0-2.72,2.68-3.76,5-3.76,2.67,0,4.8,1.4,4.91,4.31h-1.64" transform="translate(0 -0.5)"/><polyline class="cls-1" points="149.63 170.15 151.37 170.15 154.79 181.62 154.85 181.62 158.12 170.15 159.96 170.15 163.23 181.62 163.28 181.62 166.71 170.15 168.45 170.15 164.14 183.54 162.35 183.54 159.05 172.28 159 172.28 155.73 183.54 153.94 183.54 149.63 170.15"/><path class="cls-1" d="M170.18,165.51h1.63V173h.05a4.55,4.55,0,0,1,4.29-2.7c3.76,0,4.9,2,4.9,5.17V184h-1.63v-8.36c0-2.31-.76-4-3.41-4s-4.15,2-4.2,4.59V184h-1.63V165.51" transform="translate(0 -0.5)"/><path class="cls-1" d="M182.63,170.65h1.74l4.41,11.42,4.12-11.42h1.64l-5.81,15.44c-.94,2.26-1.49,2.91-3.53,2.91a4.56,4.56,0,0,1-1.25-.13v-1.38a5.5,5.5,0,0,0,1.12.13c1.45,0,1.79-.85,2.33-2.1L188,184l-5.34-13.34" transform="translate(0 -0.5)"/><path class="cls-1" d="M198.37,171.08h-1v2.83h-.54v-2.83h-1v-.43h2.59v.43m4.25,2.83h-.54v-2.72h0L201,173.91h-.34l-1.07-2.72h0v2.72H199v-3.26h.83l1,2.48,1-2.48h.83Z" transform="translate(0 -0.5)"/><path class="cls-1" d="M403.27,87.15c-1.73-8.07-8.38-12.71-16-12.74-13.85-.06-19.76,11.5-19.81,22.94s5.78,23,19.63,23.09c9.67,0,15.86-7.42,16.85-16.72l5,0c-1.44,12.82-9.61,21-21.85,21-16.49-.07-24.65-13.07-24.59-27.36s8.32-27.24,24.8-27.17c9.9,0,19.7,6,21,17l-5,0" transform="translate(0 -0.5)"/><path class="cls-1" d="M413.32,85.87l4.91,0,12.34,32.3L442.35,86H447l-16.59,43.55c-2.66,6.36-4.2,8.19-10,8.17a12.14,12.14,0,0,1-3.52-.38l0-3.89a15.21,15.21,0,0,0,3.15.38c4.1,0,5.06-2.4,6.61-5.91l1.63-4.32L413.32,85.87" transform="translate(0 -0.5)"/><path class="cls-1" d="M477.41,98c-1.22-5.65-4.65-9.11-10.67-9.13-8.86,0-13.29,8-13.32,16.07s4.33,16.14,13.2,16.17c5.72,0,10.42-4.42,11-10.73l4.61,0C481,119.49,475,125,466.6,125c-11.58,0-17.84-9.23-17.8-20.08s6.38-20,18-19.94C474.82,85,481,89.36,482,98l-4.62,0" transform="translate(0 -0.5)"/><polyline class="cls-1" points="488.95 71.16 493.57 71.18 493.37 123.51 488.75 123.49 488.95 71.16"/><path class="cls-1" d="M506.85,106.39c0,6.75,3.54,14.9,12.4,14.93,6.74,0,10.42-3.92,11.91-9.63l4.62,0c-2,8.57-7,13.53-16.54,13.5-12,0-17-9.31-17-20.08,0-10,5.13-20,17.15-19.94s17,10.69,16.56,21.32l-29.1-.12m24.49-3.78c-.19-7-4.49-13.51-12-13.54s-11.75,6.55-12.52,13.44Z" transform="translate(0 -0.5)"/><polyline class="cls-1" points="543.12 71.37 548.7 71.39 579.01 115.78 579.16 115.78 579.33 71.51 584.32 71.53 584.11 123.86 578.54 123.84 548.22 79.45 548.08 79.45 547.9 123.72 542.92 123.7 543.12 71.37"/><path class="cls-1" d="M594.48,98.16c.47-8.87,6.72-12.65,15.37-12.62,6.67,0,13.92,2.11,13.88,12.23l-.08,20.08a2.45,2.45,0,0,0,2.7,2.79,4.21,4.21,0,0,0,1.46-.29v3.89a12.23,12.23,0,0,1-3,.28c-4.69,0-5.41-2.66-5.39-6.62h-.15c-3.24,4.9-6.55,7.67-13.81,7.64-7,0-12.66-3.49-12.64-11.11.05-10.63,10.38-11,20.35-12.09,3.82-.42,5.94-.93,6-5.11,0-6.23-4.44-7.78-9.86-7.8-5.72,0-10,2.6-10.15,8.75l-4.62,0m24.61,5.67h-.15c-.59,1.1-2.65,1.45-3.89,1.67-7.85,1.36-17.6,1.25-17.63,8.65,0,4.62,4.08,7.49,8.4,7.51,7,0,13.28-4.42,13.24-11.82Z" transform="translate(0 -0.5)"/><path class="cls-1" d="M640.34,86.76l7.69,0v3.89l-7.7,0-.1,25.5c0,3,.43,4.77,3.73,5a35,35,0,0,0,3.95-.2v4c-1.4,0-2.72.13-4.11.13-6.16,0-8.27-2.09-8.18-8.54l.11-25.87-6.6,0,0-3.88,6.59,0,0-11.36,4.61,0,0,11.36" transform="translate(0 -0.5)"/><path class="cls-1" d="M654.84,72.31l4.61,0,0,7.4-4.61,0,0-7.4m-.06,14.51,4.62,0-.15,37.82-4.62,0Z" transform="translate(0 -0.5)"/><path class="cls-1" d="M702.05,105.91c0,10.85-6.38,20-18,19.94s-17.84-9.23-17.8-20.08,6.38-20,18-19.94,17.85,9.24,17.8,20.08m-31.14-.12c0,8.07,4.33,16.14,13.2,16.18s13.3-8,13.33-16.07-4.34-16.15-13.21-16.18S670.94,97.73,670.91,105.79Z" transform="translate(0 -0.5)"/><path class="cls-1" d="M709,87l4.62,0,0,6.52h.15C715.39,89,720.46,86,725.81,86c10.63,0,13.83,5.62,13.8,14.64l-.1,24.33-4.61,0,.09-23.6c0-6.52-2.08-11.44-9.56-11.47-7.33,0-11.75,5.52-11.92,12.93l-.09,22.06-4.62,0L709,87" transform="translate(0 -0.5)"/><path class="cls-1" d="M743.19,87.48l0-6.08H741v-.74l5.32,0v.75h-2.23l0,6.08h-.88m4.31,0,0-6.83h1.4l2.19,5.54,2.16-5.52h1.4l0,6.83h-.88l0-6h0l-2.44,6h-.5l-2.39-6h0l0,6Z" transform="translate(0 -0.5)"/><line class="cls-2" x1="330.92" y1="29.09" x2="330.92" y2="182.04"/></svg>