<svg id="cn_logo_white" data-name="CN Logo White" xmlns="http://www.w3.org/2000/svg" viewBox="0 0 754.68 188.5"><defs><style>.cls-1{fill:#fff;}.cls-2{fill:none;stroke:#fff;stroke-miterlimit:10;}</style></defs><title>Cyclenation_logo_W</title><path class="st0" d="M32.1,82.2L38,97.9h-3.6l-1.2-3.5h-5.9l-1.2,3.5h-3.5l5.9-15.7L32.1,82.2 M32.3,91.8l-2-5.8l0,0l-2,5.8H32.3z"
	/>
<path class="st0" d="M42,86.5V88l0,0c0.4-0.6,0.9-1,1.5-1.4c0.6-0.3,1.3-0.5,2-0.5c0.7,0,1.4,0.1,2,0.4c0.6,0.3,1.1,0.8,1.3,1.5
	c0.4-0.5,0.8-1,1.4-1.3c0.6-0.4,1.3-0.6,2.1-0.6c0.6,0,1.1,0.1,1.7,0.2c0.5,0.1,0.9,0.4,1.3,0.7c0.4,0.4,0.7,0.8,0.8,1.3
	c0.2,0.6,0.3,1.2,0.3,1.9v7.6h-3.1v-6.4c0-0.4,0-0.7,0-1.1c0-0.3-0.2-0.6-0.3-0.9c-0.1-0.2-0.3-0.5-0.6-0.6c-0.3-0.2-0.7-0.2-1-0.2
	c-0.4,0-0.7,0.1-1.1,0.2c-0.3,0.2-0.5,0.4-0.6,0.7c-0.2,0.3-0.3,0.6-0.3,0.9c0,0.3-0.1,0.7-0.1,1v6.3h-3.1v-6.4c0-0.3,0-0.7,0-1
	c0-0.3-0.1-0.6-0.2-0.9c-0.1-0.3-0.3-0.5-0.5-0.7c-0.3-0.2-0.7-0.3-1.1-0.2c-0.2,0-0.4,0-0.6,0.1c-0.3,0.1-0.5,0.2-0.7,0.4
	c-0.2,0.2-0.4,0.5-0.6,0.8c-0.2,0.4-0.3,0.9-0.2,1.4v6.6h-3.1V86.5H42"/>
<path class="st0" d="M62.2,95.2c0.6,0.5,1.3,0.7,2,0.7c0.6,0,1.1-0.2,1.6-0.5c0.4-0.2,0.7-0.6,0.8-1h2.8c-0.3,1.2-1,2.2-2,2.9
	c-1,0.6-2.1,0.9-3.3,0.9c-0.8,0-1.6-0.1-2.4-0.4c-0.7-0.3-1.3-0.7-1.8-1.2c-0.5-0.5-0.9-1.2-1.2-1.9c-0.3-0.8-0.4-1.6-0.4-2.4
	c0-0.8,0.1-1.6,0.4-2.4c0.5-1.4,1.6-2.6,3-3.2c0.7-0.3,1.6-0.5,2.4-0.5c0.9,0,1.7,0.2,2.5,0.6c0.7,0.4,1.3,0.9,1.8,1.5
	c0.5,0.6,0.8,1.4,1,2.2c0.2,0.8,0.3,1.7,0.2,2.5h-8.2C61.5,93.7,61.7,94.5,62.2,95.2 M65.8,89.1c-0.5-0.4-1.1-0.7-1.7-0.6
	c-0.4,0-0.9,0.1-1.2,0.2c-0.3,0.2-0.6,0.4-0.8,0.6c-0.2,0.2-0.3,0.5-0.4,0.8c-0.1,0.2-0.1,0.5-0.1,0.8h5.1
	C66.5,90.3,66.2,89.7,65.8,89.1L65.8,89.1z"/>
<path class="st0" d="M74.5,86.5v2.1l0,0c0.1-0.4,0.3-0.7,0.6-1c0.2-0.3,0.5-0.6,0.9-0.8c0.3-0.2,0.6-0.4,1-0.5
	c0.4-0.1,0.8-0.2,1.2-0.2c0.2,0,0.5,0,0.7,0.1v2.9l-0.5-0.1h-0.6c-0.5,0-1,0.1-1.4,0.3c-0.4,0.2-0.7,0.4-1,0.8
	c-0.2,0.3-0.4,0.7-0.5,1.2c-0.1,0.5-0.2,0.9-0.2,1.4v5.1h-3V86.5H74.5"/>
<path class="st0" d="M80.2,82.2h3.1v2.6h-3.1V82.2z M80.2,86.5h3.1v11.4h-3.1V86.5z"/>
<path class="st0" d="M91.2,88.6c-0.4,0-0.9,0.1-1.2,0.3c-0.3,0.2-0.6,0.5-0.8,0.9c-0.2,0.4-0.4,0.8-0.4,1.2
	c-0.1,0.4-0.1,0.8-0.1,1.3c0,0.4,0,0.8,0.1,1.3c0.1,0.4,0.2,0.8,0.4,1.2c0.2,0.3,0.5,0.6,0.8,0.8c0.4,0.2,0.8,0.3,1.2,0.3
	c0.6,0,1.3-0.2,1.7-0.6c0.4-0.5,0.7-1.1,0.7-1.7h3c-0.1,1.3-0.7,2.6-1.8,3.4c-1.1,0.8-2.4,1.2-3.7,1.2c-0.8,0-1.6-0.1-2.3-0.4
	c-0.7-0.3-1.3-0.7-1.8-1.2c-0.5-0.5-0.9-1.2-1.2-1.8c-0.3-0.7-0.4-1.5-0.4-2.3c0-0.8,0.1-1.7,0.4-2.4c0.2-0.7,0.6-1.4,1.1-2
	c0.5-0.6,1.1-1,1.8-1.3c0.8-0.3,1.6-0.5,2.5-0.5c0.7,0,1.3,0.1,1.9,0.3c0.6,0.2,1.2,0.4,1.7,0.8c0.5,0.4,0.9,0.9,1.2,1.4
	c0.3,0.6,0.5,1.2,0.5,1.9h-3c0-1.2-1-2.1-2.2-2C91.3,88.5,91.2,88.5,91.2,88.6"/>
<path class="st0" d="M98.8,88.2c0.3-0.5,0.7-0.9,1.2-1.2c0.5-0.3,1.1-0.5,1.7-0.6c0.6-0.1,1.2-0.2,1.9-0.2c0.6,0,1.2,0,1.7,0.1
	c0.6,0.1,1.1,0.2,1.6,0.5c0.5,0.2,0.9,0.6,1.2,1c0.3,0.5,0.5,1.1,0.5,1.7v5.9c0,0.5,0,1,0.1,1.5c0,0.4,0.1,0.7,0.3,1.1h-3.2
	c-0.1-0.2-0.1-0.4-0.1-0.5c0-0.2-0.1-0.4-0.1-0.6c-0.5,0.5-1.1,0.9-1.8,1.1c-0.7,0.2-1.4,0.3-2.1,0.3c-0.5,0-1-0.1-1.5-0.2
	c-0.4-0.1-0.9-0.3-1.2-0.6c-0.3-0.3-0.6-0.6-0.8-1c-0.2-0.5-0.3-1-0.3-1.5c0-0.6,0.1-1.1,0.3-1.6c0.2-0.4,0.5-0.7,0.9-1
	c0.4-0.3,0.8-0.4,1.2-0.6c0.5-0.1,0.9-0.2,1.4-0.3l1.4-0.2c0.4,0,0.8-0.1,1.2-0.2c0.3-0.1,0.6-0.2,0.8-0.4c0.2-0.2,0.3-0.5,0.3-0.7
	c0-0.3,0-0.6-0.2-0.8c-0.1-0.2-0.3-0.4-0.4-0.5c-0.2-0.1-0.4-0.2-0.6-0.2c-0.3,0-0.5,0-0.8,0c-0.5,0-1,0.1-1.4,0.4
	c-0.4,0.3-0.6,0.8-0.6,1.3h-3.1C98.3,89.5,98.4,88.8,98.8,88.2 M104.9,92.7c-0.2,0.1-0.4,0.1-0.6,0.2l-0.7,0.1
	c-0.2,0-0.5,0.1-0.7,0.1c-0.2,0-0.5,0.1-0.7,0.2c-0.2,0.1-0.4,0.2-0.6,0.3c-0.2,0.1-0.3,0.3-0.4,0.5c-0.1,0.2-0.2,0.5-0.2,0.7
	c0,0.2,0,0.5,0.2,0.7c0.1,0.2,0.2,0.3,0.4,0.4c0.2,0.1,0.4,0.2,0.6,0.2c0.2,0,0.5,0.1,0.7,0.1c0.5,0,1-0.1,1.4-0.3
	c0.3-0.2,0.6-0.4,0.8-0.7c0.2-0.3,0.3-0.6,0.3-0.9c0-0.2,0.1-0.5,0.1-0.7v-1.3c-0.1,0.1-0.3,0.2-0.5,0.3V92.7z"/>
<path class="st0" d="M114,86.5v1.6l0,0c0.4-0.6,0.9-1.1,1.5-1.4c0.6-0.3,1.3-0.4,1.9-0.4c0.7,0,1.4,0.1,2.1,0.3
	c0.5,0.2,0.9,0.6,1.3,1c0.3,0.4,0.5,0.9,0.7,1.5c0.1,0.6,0.2,1.3,0.2,1.9v7h-3.1v-6.4c0.1-0.7-0.1-1.5-0.4-2.1
	c-0.4-0.5-1-0.8-1.6-0.7c-0.7-0.1-1.4,0.2-1.8,0.8c-0.4,0.8-0.6,1.6-0.6,2.5v6H111V86.5H114"/>
<polyline class="st0" points="53.5,104.4 53.5,112.1 61.6,112.1 61.6,104.4 66.1,104.4 66.1,124.6 61.6,124.6 61.6,115.9 
	53.5,115.9 53.5,124.6 49,124.6 49,104.4 53.5,104.4 "/>
<path class="st0" d="M73.8,121.1c1.4,1.1,3.2,1.2,4.7,0.3c0.5-0.3,0.9-0.7,1.1-1.3h3.5c-0.4,1.5-1.3,2.8-2.6,3.8
	c-1.3,0.8-2.7,1.2-4.2,1.1c-1.1,0-2.1-0.2-3.1-0.6c-0.9-0.3-1.7-0.9-2.3-1.6c-0.7-0.7-1.2-1.5-1.5-2.4c-0.4-1-0.5-2.1-0.5-3.1
	c0-1,0.2-2.1,0.5-3.1c0.7-1.8,2.1-3.3,3.9-4.1c1-0.4,2-0.6,3-0.6c1.1,0,2.2,0.2,3.2,0.7c0.9,0.5,1.7,1.1,2.3,1.9
	c0.6,0.8,1,1.8,1.3,2.8c0.3,1.1,0.4,2.2,0.3,3.2H72.8C72.8,119.3,73.1,120.3,73.8,121.1 M78.4,113.4c-0.6-0.6-1.4-0.9-2.2-0.8
	c-0.5,0-1.1,0.1-1.6,0.3c-0.4,0.2-0.7,0.5-1,0.8c-0.2,0.3-0.4,0.6-0.5,1c-0.1,0.3-0.2,0.7-0.2,1h6.5C79.3,114.9,78.9,114,78.4,113.4
	L78.4,113.4z"/>
<path class="st0" d="M86.3,112.1c0.4-0.6,0.9-1.1,1.6-1.5c0.7-0.4,1.4-0.7,2.1-0.8c0.8-0.2,1.6-0.2,2.4-0.2c0.7,0,1.5,0.1,2.2,0.2
	c0.7,0.1,1.4,0.3,2.1,0.6c0.6,0.3,1.1,0.7,1.5,1.2c0.4,0.6,0.6,1.4,0.6,2.1v7.6c0,0.6,0,1.3,0.1,1.9c0,0.5,0.2,0.9,0.4,1.4h-4
	c-0.1-0.2-0.1-0.5-0.2-0.7c0-0.2-0.1-0.5-0.1-0.7c-0.6,0.6-1.4,1.1-2.3,1.3c-0.9,0.3-1.8,0.4-2.7,0.4c-0.7,0-1.3-0.1-2-0.3
	c-0.6-0.2-1.1-0.4-1.6-0.8c-0.4-0.4-0.8-0.8-1-1.3c-0.3-0.6-0.4-1.3-0.4-2c0-0.7,0.1-1.4,0.4-2c0.3-0.5,0.7-0.9,1.1-1.3
	c0.5-0.3,1-0.6,1.6-0.7c0.6-0.2,1.2-0.3,1.8-0.4c0.6-0.1,1.2-0.2,1.8-0.2c0.5,0,1-0.1,1.6-0.2c0.4-0.1,0.8-0.3,1.1-0.5
	c0.3-0.2,0.4-0.6,0.4-1c0-0.3-0.1-0.7-0.2-1c-0.1-0.2-0.3-0.4-0.6-0.6c-0.3-0.1-0.5-0.2-0.8-0.3c-0.3,0-0.7-0.1-1-0.1
	c-0.7,0-1.3,0.1-1.9,0.5c-0.5,0.4-0.8,1-0.8,1.7h-4C85.6,113.6,85.9,112.8,86.3,112.1 M94.2,117.7c-0.3,0.1-0.5,0.2-0.8,0.2
	c-0.3,0.1-0.6,0.1-0.9,0.1l-1,0.1c-0.3,0.1-0.6,0.1-0.9,0.2c-0.3,0.1-0.5,0.2-0.8,0.4c-0.2,0.2-0.4,0.4-0.5,0.6
	c-0.1,0.3-0.2,0.6-0.2,0.9c0,0.3,0.1,0.6,0.2,0.9c0.1,0.2,0.3,0.4,0.5,0.6c0.2,0.1,0.5,0.2,0.8,0.3c0.3,0.1,0.6,0.1,0.9,0.1
	c0.6,0,1.3-0.1,1.8-0.4c0.4-0.2,0.8-0.5,1-0.9c0.2-0.3,0.3-0.7,0.4-1.1c0-0.3,0.1-0.6,0.1-0.9v-1.5
	C94.7,117.5,94.5,117.7,94.2,117.7L94.2,117.7z"/>
<path class="st0" d="M105.8,110v2.7l0,0c0.2-0.5,0.5-0.9,0.8-1.3c0.3-0.4,0.7-0.7,1.1-1c0.4-0.3,0.9-0.5,1.3-0.6
	c0.5-0.2,1-0.2,1.5-0.2c0.3,0,0.6,0.1,0.9,0.1v3.7l-0.7-0.1c-0.3,0-0.5,0-0.8,0c-0.6,0-1.3,0.1-1.9,0.4c-0.5,0.2-0.9,0.6-1.2,1
	c-0.3,0.4-0.5,1-0.7,1.5c-0.1,0.6-0.2,1.2-0.2,1.8v6.6h-4V110H105.8"/>
<path class="st0" d="M122.6,110v2.7h-2.9v7.2c-0.1,0.5,0.1,1,0.3,1.3c0.4,0.3,0.9,0.4,1.4,0.3c0.2,0,0.4,0,0.7,0
	c0.2,0,0.4,0,0.6-0.1v3.1c-0.3,0.1-0.7,0.1-1.1,0.1h-1.2c-0.6,0-1.2,0-1.8-0.1c-0.5-0.1-1-0.2-1.5-0.5c-0.4-0.2-0.8-0.6-1-1
	c-0.3-0.6-0.4-1.2-0.4-1.8v-8.6h-2.4V110h2.4v-4.4h4v4.4L122.6,110"/>
<path class="st0" d="M9.5,130.9l5.9,15.6h-3.6l-1.2-3.5H4.7l-1.2,3.5H0l5.9-15.7L9.5,130.9 M9.7,140.4l-2-5.8l0,0l-2.1,5.8
	L9.7,140.4z"/>
<path class="st0" d="M19,143.7c0.1,0.2,0.3,0.4,0.5,0.6c0.2,0.2,0.5,0.3,0.8,0.3c0.3,0.1,0.6,0.1,0.9,0.1c0.2,0,0.5,0,0.7-0.1
	c0.2,0,0.5-0.1,0.7-0.2c0.2-0.1,0.4-0.3,0.5-0.4c0.1-0.2,0.2-0.5,0.2-0.7c0-0.5-0.3-0.8-0.9-1.1c-0.9-0.3-1.7-0.5-2.6-0.7
	c-0.5-0.1-0.9-0.2-1.3-0.4c-0.4-0.1-0.8-0.3-1.1-0.6c-0.3-0.2-0.6-0.5-0.8-0.9c-0.2-0.4-0.3-0.8-0.3-1.3c0-0.6,0.1-1.3,0.4-1.8
	c0.3-0.5,0.7-0.8,1.1-1.1c0.5-0.3,1-0.5,1.6-0.6c0.6-0.1,1.2-0.2,1.8-0.2c0.6,0,1.2,0.1,1.8,0.2c0.5,0.1,1.1,0.3,1.5,0.6
	c0.5,0.3,0.8,0.7,1.1,1.1c0.3,0.5,0.5,1.1,0.5,1.8h-3c0-0.5-0.2-1-0.7-1.2c-0.5-0.2-1-0.3-1.5-0.3h-0.6c-0.2,0-0.4,0.1-0.6,0.1
	c-0.2,0.1-0.3,0.2-0.4,0.3c-0.1,0.2-0.2,0.4-0.2,0.6c0,0.3,0.1,0.5,0.3,0.7c0.2,0.2,0.5,0.3,0.8,0.4c0.4,0.1,0.7,0.2,1.1,0.3
	l1.3,0.3c0.5,0.1,0.9,0.2,1.3,0.4c0.4,0.1,0.8,0.3,1.1,0.6c0.3,0.2,0.6,0.5,0.8,0.9c0.2,0.4,0.3,0.9,0.3,1.3
	c0.1,1.3-0.6,2.4-1.6,3.1c-0.5,0.3-1.1,0.5-1.7,0.6c-0.6,0.1-1.3,0.2-1.9,0.2c-0.7,0-1.3-0.1-1.9-0.2c-0.6-0.1-1.2-0.3-1.7-0.7
	c-1.1-0.7-1.7-1.8-1.7-3.1h3C18.7,143.1,18.8,143.4,19,143.7"/>
<path class="st0" d="M30.8,143.7c0.1,0.2,0.3,0.4,0.5,0.6c0.2,0.2,0.5,0.3,0.8,0.3c0.3,0.1,0.6,0.1,0.9,0.1c0.2,0,0.5,0,0.7-0.1
	c0.2,0,0.5-0.1,0.7-0.2c0.2-0.1,0.4-0.3,0.5-0.4c0.1-0.2,0.2-0.5,0.2-0.7c0-0.5-0.3-0.8-0.9-1.1c-0.9-0.3-1.7-0.5-2.6-0.7
	c-0.5-0.1-0.9-0.2-1.3-0.4c-0.4-0.1-0.8-0.3-1.2-0.6c-0.3-0.2-0.6-0.5-0.8-0.9c-0.2-0.4-0.3-0.8-0.3-1.3c0-0.6,0.1-1.3,0.4-1.8
	c0.3-0.5,0.7-0.8,1.1-1.1c0.5-0.3,1-0.5,1.6-0.6c0.6-0.1,1.2-0.2,1.8-0.2c0.6,0,1.2,0.1,1.8,0.2c0.5,0.1,1.1,0.3,1.5,0.6
	c0.5,0.3,0.8,0.7,1.1,1.1c0.3,0.5,0.5,1.1,0.5,1.8h-3c0-0.5-0.2-1-0.7-1.2c-0.5-0.2-0.9-0.3-1.5-0.3h-0.6c-0.2,0-0.4,0.1-0.6,0.1
	c-0.2,0.1-0.3,0.2-0.4,0.3c-0.1,0.2-0.2,0.4-0.2,0.6c0,0.3,0.1,0.5,0.3,0.7c0.2,0.2,0.5,0.3,0.8,0.4c0.4,0.1,0.7,0.2,1.1,0.3
	l1.3,0.3c0.5,0.1,0.9,0.2,1.3,0.4c0.4,0.1,0.8,0.3,1.2,0.6c0.3,0.2,0.6,0.5,0.8,0.9c0.2,0.4,0.3,0.9,0.3,1.3
	c0.1,1.3-0.6,2.4-1.6,3.1c-0.5,0.3-1.1,0.5-1.7,0.6c-0.6,0.1-1.3,0.2-1.9,0.2c-0.7,0-1.3-0.1-1.9-0.2c-0.6-0.1-1.2-0.3-1.7-0.7
	c-0.5-0.3-0.9-0.7-1.2-1.2c-0.3-0.6-0.5-1.2-0.5-1.9h3C30.6,143.1,30.7,143.4,30.8,143.7"/>
<path class="st0" d="M40,138.4c0.5-1.4,1.6-2.5,3-3.1c0.8-0.3,1.6-0.4,2.4-0.4c0.8,0,1.7,0.1,2.4,0.4c0.7,0.3,1.4,0.7,1.9,1.2
	c0.5,0.5,1,1.2,1.2,1.9c0.6,1.6,0.6,3.3,0,4.9c-0.3,0.7-0.7,1.3-1.2,1.9c-0.5,0.5-1.2,0.9-1.9,1.2c-0.8,0.3-1.6,0.4-2.4,0.4
	c-0.8,0-1.6-0.1-2.4-0.4c-0.7-0.3-1.3-0.7-1.8-1.2c-0.5-0.5-1-1.2-1.3-1.9C39.4,141.7,39.4,140,40,138.4 M42.8,142.2
	c0.1,0.4,0.2,0.8,0.5,1.2c0.2,0.3,0.5,0.6,0.8,0.8c0.8,0.4,1.8,0.4,2.7,0c0.4-0.2,0.6-0.5,0.9-0.8c0.2-0.4,0.4-0.8,0.5-1.2
	c0.1-0.4,0.1-0.9,0.1-1.3c0-0.4,0-0.9-0.1-1.3c-0.1-0.4-0.2-0.8-0.5-1.2c-0.2-0.3-0.5-0.6-0.9-0.8c-1.2-0.7-2.8-0.4-3.5,0.8
	c-0.2,0.4-0.4,0.7-0.5,1.2c-0.1,0.4-0.1,0.9-0.1,1.3C42.7,141.3,42.8,141.8,42.8,142.2L42.8,142.2z"/>
<path class="st0" d="M58.8,137.2c-0.4,0-0.9,0.1-1.2,0.3c-0.3,0.2-0.6,0.5-0.8,0.9c-0.2,0.4-0.4,0.8-0.5,1.2
	c-0.1,0.4-0.1,0.9-0.1,1.3c0,0.4,0,0.8,0.1,1.2c0.1,0.4,0.2,0.8,0.4,1.2c0.2,0.3,0.5,0.6,0.8,0.8c0.4,0.2,0.8,0.3,1.2,0.3
	c0.6,0,1.3-0.2,1.7-0.6c0.4-0.5,0.7-1.1,0.8-1.7h3c-0.1,1.3-0.7,2.6-1.8,3.4c-1.1,0.8-2.4,1.2-3.7,1.2c-0.8,0-1.6-0.1-2.3-0.4
	c-0.7-0.3-1.3-0.7-1.8-1.2c-0.5-0.5-0.9-1.2-1.2-1.8c-0.3-0.7-0.4-1.5-0.4-2.3c0-0.8,0.1-1.7,0.4-2.4c0.2-0.7,0.6-1.4,1.1-2
	c0.5-0.6,1.1-1,1.8-1.3c0.8-0.3,1.6-0.5,2.5-0.5c0.7,0,1.3,0.1,2,0.3c0.6,0.2,1.2,0.4,1.7,0.8c0.5,0.4,0.9,0.8,1.2,1.3
	c0.3,0.6,0.5,1.2,0.5,1.9h-3.1c0-1.2-1-2.1-2.2-2C58.9,137.1,58.9,137.1,58.8,137.2"/>
<path class="st0" d="M66.1,130.9h3.1v2.6h-3.1V130.9z M66.1,135.2h3.1v11.3h-3.1V135.2z"/>
<path class="st0" d="M72.1,136.9c0.3-0.5,0.7-0.9,1.2-1.2c0.5-0.3,1.1-0.5,1.7-0.6c0.6-0.1,1.2-0.2,1.9-0.2c0.6,0,1.2,0,1.7,0.1
	c0.6,0.1,1.1,0.2,1.6,0.5c0.5,0.2,0.9,0.6,1.2,1c0.3,0.5,0.5,1.1,0.5,1.6v5.9c0,0.5,0,1,0.1,1.5c0,0.4,0.1,0.7,0.3,1h-3.2
	c-0.1-0.2-0.1-0.3-0.1-0.5c0-0.2-0.1-0.4-0.1-0.6c-0.5,0.5-1.1,0.9-1.8,1.1c-0.7,0.2-1.4,0.3-2.1,0.3c-0.5,0-1-0.1-1.5-0.2
	c-0.4-0.1-0.9-0.3-1.2-0.6c-0.4-0.3-0.6-0.6-0.8-1.1c-0.2-0.5-0.3-1-0.3-1.5c0-0.6,0.1-1.1,0.3-1.6c0.2-0.4,0.5-0.7,0.9-1
	c0.4-0.3,0.8-0.4,1.2-0.6c0.5-0.1,0.9-0.2,1.4-0.3s0.9-0.1,1.4-0.2c0.4,0,0.8-0.1,1.2-0.2c0.3-0.1,0.6-0.2,0.8-0.4
	c0.2-0.2,0.3-0.5,0.3-0.7c0-0.3,0-0.6-0.2-0.8c-0.1-0.2-0.3-0.4-0.4-0.5c-0.2-0.1-0.4-0.2-0.6-0.2c-0.3,0-0.5-0.1-0.8-0.1
	c-0.5,0-1,0.1-1.5,0.4c-0.4,0.3-0.6,0.8-0.6,1.3h-3.1C71.6,138,71.8,137.4,72.1,136.9 M78.3,141.2c-0.2,0.1-0.4,0.1-0.6,0.2
	c-0.2,0-0.5,0.1-0.7,0.1l-0.7,0.1c-0.2,0.1-0.5,0.1-0.7,0.2c-0.2,0.1-0.4,0.2-0.6,0.3c-0.2,0.1-0.3,0.3-0.4,0.5
	c-0.2,0.5-0.2,1,0,1.4c0.1,0.2,0.2,0.3,0.4,0.4c0.2,0.1,0.4,0.2,0.6,0.2c0.2,0,0.5,0.1,0.7,0.1c0.5,0,1-0.1,1.4-0.3
	c0.3-0.2,0.6-0.4,0.8-0.7c0.2-0.3,0.3-0.6,0.3-0.9c0-0.2,0.1-0.5,0.1-0.7V141C78.6,141.1,78.5,141.2,78.3,141.2L78.3,141.2z"/>
<path class="st0" d="M90.6,135.2v2.1h-2.3v5.6c-0.2,0.6,0.2,1.2,0.7,1.3c0.2,0.1,0.4,0.1,0.6,0c0.2,0,0.3,0,0.5,0
	c0.2,0,0.3,0,0.5-0.1v2.4c-0.3,0.1-0.6,0.1-0.9,0.1c-0.3,0-0.6,0-1,0c-0.5,0-0.9,0-1.4-0.1c-0.4-0.1-0.8-0.2-1.1-0.4
	c-0.3-0.2-0.6-0.5-0.8-0.8c-0.2-0.4-0.3-0.9-0.3-1.4v-6.7h-1.8v-2.1h1.9v-3.4h3.1v3.4L90.6,135.2"/>
<path class="st0" d="M92.1,130.9h3.1v2.6h-3.1V130.9z M92.1,135.2h3.1v11.3h-3.1V135.2z"/>
<path class="st0" d="M97.8,138.4c0.3-0.7,0.7-1.4,1.2-1.9c0.5-0.5,1.2-0.9,1.8-1.2c0.8-0.3,1.6-0.4,2.4-0.4c0.8,0,1.7,0.1,2.4,0.4
	c0.7,0.3,1.3,0.7,1.8,1.2c0.5,0.5,0.9,1.2,1.2,1.9c0.6,1.6,0.6,3.3,0,4.9c-0.3,0.7-0.7,1.3-1.2,1.9c-0.5,0.5-1.2,0.9-1.8,1.2
	c-0.8,0.3-1.6,0.4-2.4,0.4c-0.8,0-1.6-0.1-2.4-0.4c-0.7-0.3-1.3-0.7-1.8-1.2c-0.5-0.5-0.9-1.2-1.2-1.9
	C97.3,141.7,97.3,140,97.8,138.4 M100.7,142.2c0.1,0.4,0.2,0.8,0.4,1.2c0.2,0.3,0.5,0.6,0.8,0.8c0.4,0.2,0.9,0.3,1.3,0.3
	c0.5,0,0.9-0.1,1.3-0.3c0.4-0.2,0.6-0.5,0.9-0.8c0.2-0.4,0.4-0.8,0.4-1.2c0.1-0.4,0.1-0.9,0.1-1.3c0-0.4,0-0.9-0.1-1.3
	c-0.1-0.4-0.2-0.8-0.4-1.2c-0.2-0.3-0.5-0.6-0.9-0.8c-0.4-0.2-0.9-0.3-1.3-0.3c-0.5,0-0.9,0.1-1.3,0.3c-0.3,0.2-0.6,0.5-0.8,0.8
	c-0.2,0.4-0.4,0.7-0.4,1.2c-0.1,0.4-0.1,0.9-0.1,1.3C100.5,141.3,100.5,141.8,100.7,142.2L100.7,142.2z"/>
<path class="st0" d="M114.1,135.2v1.6h0.1c0.4-0.6,0.9-1.1,1.5-1.4c0.6-0.3,1.3-0.4,1.9-0.4c0.7,0,1.4,0.1,2,0.3
	c0.5,0.2,0.9,0.5,1.3,0.9c0.3,0.4,0.5,0.9,0.7,1.5c0.1,0.6,0.2,1.3,0.2,1.9v7h-3.1v-6.4c0-0.7-0.1-1.5-0.4-2.1
	c-0.4-0.5-1-0.8-1.6-0.7c-0.7-0.1-1.4,0.2-1.8,0.8c-0.4,0.8-0.6,1.6-0.6,2.5v5.9h-3.1v-11.3H114.1"/>
<path class="st0" d="M144.3,14.8c-2.5,1.6-3.7,4.7-3,7.6c2.9-4.3,11.8-0.4,14.7-10.3c-1.7,1.3-3.7,2-5.8,1.9c4.8-2,7.6-9.1,3.3-14
	c1.3,5.7-6,6.2-11.7,7.3c-10.7,2-12.5,12-7.6,17C133.5,18.2,138.3,14.6,144.3,14.8"/>
<path class="st0" d="M141.6,49.2c0.4-5,0.5-9.5,1.6-12.9h-9.1c1.1,3.3,1.2,7.9,1.6,12.9c0.4,6.2,1.6,23.9,1.6,23.9h2.8
	C140.1,73.1,141.2,55.3,141.6,49.2 M125.4,29.6c0.5,1.3,0.8,2.6,0.9,4h24.8c0-1.4,0.3-2.7,0.9-4h-11.8c1.6-2.6,5.4-6.9,13.5-6.9
	c8.8,0,18.7,7.1,18.7,19.8c0.1,19-19.7,32.5-33.8,41.3c-13.9-8.8-33.8-22.4-33.7-41.4c0-12.7,9.9-19.8,18.7-19.8
	c8.1,0,11.9,4.3,13.5,6.9L125.4,29.6z"/>
<path class="st0" d="M165.4,82.3l5.9,15.7h-3.6l-1.2-3.5h-5.9l-1.2,3.5H156l5.9-15.7L165.4,82.3 M165.7,91.9l-2-5.8l0,0l-2,5.8
	H165.7z"/>
<path class="st0" d="M175.4,86.6v1.5h0.1c0.4-0.6,0.9-1,1.5-1.4c0.6-0.3,1.3-0.5,2-0.5c0.7,0,1.4,0.1,2,0.4c0.6,0.3,1.1,0.8,1.4,1.5
	c0.4-0.5,0.8-1,1.4-1.3c0.6-0.4,1.3-0.6,2-0.6c0.6,0,1.1,0.1,1.7,0.2c0.5,0.1,0.9,0.4,1.3,0.7c0.4,0.3,0.7,0.8,0.9,1.3
	c0.2,0.6,0.3,1.2,0.3,1.9v7.6h-3.1v-6.4c0-0.4,0-0.7-0.1-1.1c0-0.3-0.1-0.6-0.2-0.9c-0.1-0.3-0.3-0.5-0.6-0.6
	c-0.3-0.2-0.7-0.2-1.1-0.2c-0.4,0-0.7,0.1-1.1,0.3c-0.3,0.2-0.5,0.4-0.6,0.7c-0.2,0.3-0.3,0.6-0.3,0.9c0,0.3-0.1,0.7-0.1,1v6.3h-3.1
	v-6.3c0-0.3,0-0.7,0-1c0-0.3-0.1-0.6-0.2-0.9c-0.1-0.3-0.3-0.5-0.6-0.7c-0.3-0.2-0.7-0.3-1.1-0.3c-0.2,0-0.4,0-0.6,0.1
	c-0.3,0.1-0.5,0.2-0.7,0.4c-0.3,0.2-0.5,0.5-0.6,0.8c-0.2,0.4-0.3,0.9-0.2,1.3v6.6h-3.1V86.6H175.4"/>
<path class="st0" d="M195.6,95.2c0.6,0.5,1.3,0.7,2,0.7c0.6,0,1.1-0.2,1.6-0.5c0.4-0.2,0.7-0.6,0.8-1h2.8c-0.3,1.2-1,2.2-2,2.9
	c-1,0.6-2.1,0.9-3.3,0.9c-0.8,0-1.6-0.1-2.4-0.4c-0.7-0.3-1.3-0.7-1.8-1.2c-0.5-0.5-0.9-1.2-1.1-1.9c-0.3-0.8-0.4-1.6-0.4-2.4
	c0-0.8,0.1-1.6,0.4-2.4c0.5-1.4,1.6-2.6,3-3.2c0.7-0.3,1.5-0.5,2.4-0.5c0.9,0,1.7,0.2,2.5,0.6c0.7,0.4,1.3,0.9,1.8,1.5
	c0.5,0.6,0.8,1.4,1,2.2c0.2,0.8,0.3,1.7,0.2,2.5h-8.2C194.8,93.8,195.1,94.6,195.6,95.2 M199.1,89.2c-0.5-0.4-1.1-0.7-1.7-0.6
	c-0.4,0-0.9,0.1-1.2,0.2c-0.3,0.1-0.6,0.4-0.8,0.6c-0.2,0.2-0.3,0.5-0.4,0.8c-0.1,0.2-0.1,0.5-0.1,0.7h5.1
	C199.8,90.4,199.5,89.8,199.1,89.2L199.1,89.2z"/>
<path class="st0" d="M207.8,86.6v2.1l0,0c0.3-0.7,0.8-1.3,1.5-1.8c0.3-0.2,0.6-0.4,1-0.5c0.4-0.1,0.8-0.2,1.1-0.2
	c0.2,0,0.5,0,0.7,0.1v2.9c-0.2,0-0.3-0.1-0.5-0.1c-0.2,0-0.4,0-0.6,0c-0.5,0-1,0.1-1.4,0.3c-0.4,0.2-0.7,0.4-1,0.8
	c-0.2,0.3-0.4,0.7-0.5,1.2c-0.1,0.5-0.2,0.9-0.1,1.4V98h-3.1V86.6H207.8"/>
<path class="st0" d="M213.5,82.3h3.1v2.6h-3.1V82.3z M213.5,86.6h3.1v11.4h-3.1V86.6z"/>
<path class="st0" d="M224.5,88.6c-0.4,0-0.9,0.1-1.2,0.3c-0.3,0.2-0.6,0.5-0.8,0.9c-0.2,0.4-0.4,0.8-0.4,1.2
	c-0.1,0.4-0.1,0.9-0.1,1.3c0,0.4,0.1,0.8,0.1,1.2c0.1,0.4,0.2,0.8,0.4,1.2c0.2,0.3,0.5,0.6,0.8,0.8c0.4,0.2,0.8,0.3,1.2,0.3
	c0.6,0,1.3-0.2,1.7-0.6c0.4-0.5,0.7-1.1,0.8-1.7h3c-0.1,1.3-0.7,2.6-1.8,3.4c-1.1,0.8-2.4,1.2-3.7,1.2c-0.8,0-1.6-0.1-2.3-0.4
	c-0.7-0.3-1.3-0.7-1.8-1.2c-0.5-0.5-0.9-1.1-1.2-1.8c-0.3-0.7-0.4-1.5-0.4-2.3c0-0.8,0.1-1.7,0.4-2.4c0.2-0.7,0.6-1.4,1.1-2
	c0.5-0.6,1.1-1,1.8-1.3c0.8-0.3,1.6-0.5,2.5-0.5c0.7,0,1.3,0.1,2,0.3c0.6,0.2,1.2,0.4,1.7,0.8c0.5,0.4,0.9,0.8,1.2,1.3
	c0.3,0.6,0.5,1.2,0.5,1.9h-3c0-1.2-1-2.1-2.2-2C224.7,88.5,224.7,88.5,224.5,88.6"/>
<path class="st0" d="M232.1,88.3c0.3-0.5,0.7-0.9,1.2-1.2c0.5-0.3,1.1-0.5,1.6-0.6c0.6-0.1,1.2-0.2,1.9-0.2c0.6,0,1.2,0,1.7,0.1
	c0.6,0.1,1.1,0.2,1.6,0.5c0.5,0.2,0.9,0.6,1.2,1c0.3,0.5,0.5,1.1,0.5,1.7v5.9c0,0.5,0.1,0.9,0.1,1.4c0,0.4,0.1,0.7,0.3,1h-3.2
	c-0.1-0.2-0.1-0.4-0.1-0.5c0-0.2-0.1-0.4-0.1-0.6c-0.5,0.5-1.1,0.9-1.8,1.1c-0.7,0.2-1.4,0.3-2.1,0.3c-0.5,0-1-0.1-1.5-0.2
	c-0.4-0.1-0.9-0.3-1.2-0.6c-0.4-0.3-0.6-0.6-0.8-1.1c-0.2-0.5-0.3-1-0.3-1.5c0-0.6,0.1-1.1,0.3-1.6c0.2-0.4,0.5-0.7,0.9-1
	c0.4-0.3,0.8-0.5,1.2-0.6c0.5-0.1,0.9-0.2,1.4-0.3s0.9-0.1,1.4-0.2c0.4,0,0.8-0.1,1.2-0.2c0.3-0.1,0.6-0.2,0.8-0.4
	c0.2-0.2,0.3-0.5,0.3-0.7c0-0.3,0-0.6-0.2-0.8c-0.1-0.2-0.3-0.4-0.4-0.5c-0.2-0.1-0.4-0.2-0.6-0.2c-0.3,0-0.5-0.1-0.8-0.1
	c-0.5,0-1,0.1-1.4,0.4c-0.4,0.3-0.6,0.8-0.6,1.3h-3.1C231.6,89.4,231.8,88.8,232.1,88.3 M238.3,92.6c-0.2,0.1-0.4,0.1-0.6,0.2
	c-0.2,0-0.5,0.1-0.7,0.1l-0.8,0.1c-0.2,0-0.5,0.1-0.7,0.2c-0.2,0.1-0.4,0.2-0.6,0.3c-0.2,0.1-0.3,0.3-0.4,0.5c-0.2,0.5-0.2,1,0,1.4
	c0.1,0.2,0.2,0.3,0.4,0.4c0.2,0.1,0.4,0.2,0.6,0.2c0.2,0,0.5,0.1,0.7,0.1c0.5,0,1-0.1,1.4-0.3c0.3-0.2,0.6-0.4,0.7-0.7
	c0.2-0.3,0.3-0.6,0.3-0.9c0-0.2,0.1-0.5,0.1-0.7v-1.1C238.6,92.5,238.5,92.6,238.3,92.6L238.3,92.6z"/>
<path class="st0" d="M247.3,86.6v1.6h0.1c0.4-0.6,0.9-1.1,1.5-1.4c0.6-0.3,1.3-0.4,1.9-0.4c0.7,0,1.4,0.1,2,0.3
	c0.5,0.2,0.9,0.5,1.3,0.9c0.3,0.4,0.5,0.9,0.6,1.5c0.1,0.6,0.2,1.3,0.2,1.9v7h-3.1v-6.5c0.1-0.7-0.1-1.5-0.4-2.1
	c-0.4-0.5-1-0.8-1.6-0.7c-0.7,0-1.4,0.3-1.8,0.8c-0.5,0.8-0.7,1.6-0.6,2.5v6h-3.1V86.6H247.3"/>
<path class="st0" d="M161.4,119.7c0.2,0.5,0.6,0.8,1,1.1c0.4,0.3,0.9,0.5,1.4,0.7c0.6,0.1,1.1,0.2,1.7,0.2c0.4,0,0.9,0,1.3-0.1
	c0.4-0.1,0.9-0.2,1.3-0.4c0.4-0.2,0.7-0.4,1-0.8c0.3-0.4,0.4-0.8,0.4-1.3c0-0.5-0.2-1-0.5-1.3c-0.4-0.4-0.9-0.7-1.4-0.8
	c-0.6-0.2-1.3-0.4-1.9-0.6c-0.7-0.2-1.4-0.4-2.2-0.6c-0.7-0.2-1.5-0.4-2.2-0.7c-0.7-0.3-1.3-0.6-1.9-1.1c-0.6-0.4-1-1-1.4-1.6
	c-0.4-0.7-0.6-1.5-0.5-2.4c0-0.9,0.2-1.9,0.7-2.7c0.4-0.8,1-1.4,1.7-1.9c0.7-0.5,1.6-0.9,2.4-1.1c0.9-0.2,1.8-0.4,2.7-0.4
	c1,0,2,0.1,3,0.4c0.9,0.2,1.8,0.6,2.6,1.1c0.7,0.5,1.4,1.2,1.8,2c0.5,0.9,0.7,2,0.7,3h-4.3c0-0.5-0.1-1-0.4-1.5
	c-0.2-0.4-0.5-0.7-0.9-0.9c-0.4-0.2-0.8-0.4-1.2-0.5c-0.5-0.1-1-0.1-1.5-0.1c-0.4,0-0.7,0-1.1,0.1c-0.4,0.1-0.7,0.2-1,0.4
	c-0.3,0.2-0.5,0.4-0.7,0.7c-0.2,0.3-0.3,0.7-0.3,1.1c0,0.3,0.1,0.7,0.2,1c0.2,0.3,0.5,0.5,0.9,0.7c0.6,0.3,1.2,0.5,1.8,0.6l3.1,0.8
	c0.4,0.1,0.9,0.2,1.6,0.4c0.7,0.2,1.4,0.5,2,0.9c0.7,0.5,1.3,1,1.7,1.7c0.5,0.8,0.8,1.8,0.7,2.8c0,0.9-0.2,1.8-0.5,2.6
	c-0.4,0.8-0.9,1.5-1.6,2c-0.8,0.6-1.7,1.1-2.6,1.3c-2.2,0.6-4.6,0.6-6.9,0.1c-1-0.2-1.9-0.7-2.8-1.3c-0.8-0.6-1.5-1.3-1.9-2.2
	c-0.5-1-0.7-2.1-0.7-3.2h4.3C161,118.6,161.2,119.2,161.4,119.7"/>
<path class="st0" d="M184,110v2.7h-2.9v7.2c-0.2,0.7,0.2,1.5,0.9,1.7c0.3,0.1,0.5,0.1,0.8,0c0.2,0,0.4,0,0.6,0
	c0.2,0,0.4-0.1,0.6-0.1v3.1c-0.4,0.1-0.7,0.1-1.1,0.1h-1.2c-0.6,0-1.2,0-1.8-0.1c-0.5-0.1-1-0.2-1.5-0.5c-0.4-0.2-0.8-0.6-1-1
	c-0.3-0.6-0.4-1.2-0.4-1.8v-8.6h-2.4V110h2.4v-4.4h4v4.4L184,110"/>
<path class="st0" d="M189.7,110v2.7h0.1c0.4-0.9,1-1.7,1.9-2.2c0.4-0.3,0.9-0.5,1.3-0.6c0.5-0.1,1-0.2,1.5-0.2c0.3,0,0.6,0,0.9,0.1
	v3.7c-0.2,0-0.4-0.1-0.7-0.1c-0.3,0-0.5,0-0.8,0c-0.6,0-1.3,0.1-1.9,0.4c-0.5,0.2-0.9,0.6-1.2,1c-0.3,0.4-0.5,0.9-0.7,1.5
	c-0.1,0.6-0.2,1.2-0.2,1.8v6.6h-4V110H189.7"/>
<path class="st0" d="M196.5,114.2c0.7-1.8,2.1-3.3,3.9-4c2-0.7,4.2-0.7,6.2,0c0.9,0.3,1.7,0.9,2.4,1.6c0.7,0.7,1.2,1.5,1.5,2.4
	c0.4,1,0.5,2.1,0.5,3.2c0,1.1-0.2,2.1-0.5,3.2c-0.3,0.9-0.9,1.7-1.5,2.4c-0.7,0.7-1.5,1.2-2.4,1.5c-2,0.7-4.2,0.7-6.2,0
	c-0.9-0.3-1.7-0.9-2.4-1.5c-0.7-0.7-1.2-1.5-1.5-2.4c-0.4-1-0.5-2.1-0.5-3.2C196,116.2,196.1,115.2,196.5,114.2 M200.2,119
	c0.1,0.5,0.3,1,0.6,1.5c0.3,0.4,0.6,0.8,1.1,1.1c0.5,0.3,1.1,0.4,1.7,0.4c0.6,0,1.2-0.1,1.7-0.4c0.4-0.3,0.8-0.6,1.1-1.1
	c0.3-0.5,0.5-1,0.6-1.5c0.1-0.6,0.2-1.1,0.2-1.7c0-0.6-0.1-1.2-0.2-1.7c-0.1-0.5-0.3-1-0.6-1.5c-0.3-0.4-0.7-0.8-1.1-1.1
	c-0.5-0.3-1.1-0.4-1.7-0.4c-0.6,0-1.2,0.1-1.7,0.4c-0.4,0.3-0.8,0.6-1.1,1.1c-0.3,0.5-0.5,1-0.6,1.5c-0.1,0.6-0.2,1.1-0.2,1.7
	C200,117.9,200,118.5,200.2,119L200.2,119z"/>
<polyline class="st0" points="218.1,104.5 218.1,115.3 223.1,110 227.9,110 222.4,115.4 228.5,124.6 223.6,124.6 219.6,118.1 
	218.1,119.6 218.1,124.6 214.1,124.6 214.1,104.5 218.1,104.5 "/>
<path class="st0" d="M233.2,121.1c1.4,1.1,3.2,1.2,4.7,0.3c0.5-0.3,0.9-0.8,1.1-1.3h3.5c-0.4,1.5-1.3,2.8-2.6,3.8
	c-1.3,0.8-2.7,1.2-4.2,1.1c-1.1,0-2.1-0.2-3.1-0.6c-0.9-0.3-1.7-0.9-2.4-1.6c-0.7-0.7-1.2-1.5-1.5-2.4c-0.4-1-0.5-2.1-0.5-3.1
	c0-1,0.2-2,0.5-3c0.3-0.9,0.9-1.7,1.5-2.4c0.7-0.7,1.5-1.3,2.4-1.6c0.9-0.4,2-0.6,3-0.6c1.1,0,2.2,0.2,3.2,0.7
	c0.9,0.5,1.7,1.1,2.3,1.9c0.6,0.8,1,1.8,1.3,2.8c0.3,1.1,0.4,2.2,0.3,3.2h-10.5C232.2,119.4,232.5,120.4,233.2,121.1 M237.8,113.5
	c-0.6-0.6-1.4-0.9-2.2-0.8c-0.5,0-1.1,0.1-1.6,0.3c-0.4,0.2-0.7,0.5-1,0.8c-0.2,0.3-0.4,0.6-0.5,1c-0.1,0.3-0.2,0.7-0.2,1h6.5
	C238.7,115,238.3,114.2,237.8,113.5L237.8,113.5z"/>
<path class="st0" d="M165.4,130.9l5.9,15.7h-3.6l-1.2-3.5h-5.9l-1.2,3.5H156l5.9-15.7H165.4 M165.7,140.5l-2-5.8l0,0l-2,5.8H165.7z"
	/>
<path class="st0" d="M175,143.8c0.1,0.2,0.3,0.4,0.5,0.6c0.2,0.2,0.5,0.3,0.8,0.3c0.3,0.1,0.6,0.1,0.9,0.1c0.2,0,0.5,0,0.7-0.1
	c0.2,0,0.5-0.1,0.7-0.2c0.2-0.1,0.4-0.3,0.5-0.4c0.1-0.2,0.2-0.4,0.2-0.7c0-0.5-0.3-0.8-0.9-1.1c-0.8-0.3-1.7-0.5-2.6-0.7
	c-0.4-0.1-0.9-0.2-1.3-0.4c-0.4-0.1-0.8-0.3-1.2-0.6c-0.3-0.2-0.6-0.5-0.8-0.9c-0.2-0.4-0.3-0.8-0.3-1.3c0-0.6,0.1-1.3,0.4-1.8
	c0.3-0.5,0.7-0.8,1.1-1.1c0.5-0.3,1-0.5,1.6-0.6c0.6-0.1,1.2-0.2,1.8-0.2c0.6,0,1.2,0.1,1.8,0.2c0.5,0.1,1.1,0.3,1.6,0.6
	c0.5,0.3,0.8,0.7,1.1,1.1c0.3,0.5,0.5,1.1,0.5,1.7h-3c0-0.5-0.2-1-0.7-1.2c-0.5-0.2-0.9-0.3-1.4-0.3h-0.6c-0.2,0-0.4,0.1-0.6,0.1
	c-0.2,0.1-0.3,0.2-0.4,0.3c-0.3,0.4-0.2,0.9,0.1,1.2c0.2,0.2,0.5,0.3,0.8,0.4c0.4,0.1,0.7,0.2,1.1,0.3c0.4,0.1,0.9,0.2,1.3,0.3
	c0.5,0.1,0.9,0.2,1.3,0.4c0.4,0.1,0.8,0.3,1.1,0.6c0.3,0.2,0.6,0.5,0.8,0.9c0.2,0.4,0.3,0.9,0.3,1.3c0,0.7-0.1,1.3-0.4,1.9
	c-0.3,0.5-0.7,0.9-1.2,1.2c-0.5,0.3-1.1,0.5-1.7,0.6c-0.6,0.1-1.3,0.2-1.9,0.2c-0.7,0-1.3-0.1-1.9-0.2c-0.6-0.1-1.2-0.3-1.7-0.7
	c-1.1-0.7-1.7-1.8-1.7-3.1h3C174.8,143.2,174.9,143.5,175,143.8"/>
<path class="st0" d="M186.8,143.8c0.1,0.2,0.3,0.4,0.6,0.6c0.2,0.2,0.5,0.3,0.8,0.3c0.3,0.1,0.6,0.1,0.9,0.1c0.2,0,0.5,0,0.7-0.1
	c0.2,0,0.5-0.1,0.7-0.2c0.2-0.1,0.4-0.3,0.5-0.4c0.1-0.2,0.2-0.4,0.2-0.7c0-0.5-0.3-0.8-0.9-1.1c-0.8-0.3-1.7-0.5-2.6-0.7
	c-0.4-0.1-0.9-0.2-1.3-0.4c-0.4-0.1-0.8-0.3-1.1-0.6c-0.3-0.2-0.6-0.5-0.8-0.9c-0.2-0.4-0.3-0.8-0.3-1.3c0-0.6,0.1-1.3,0.4-1.8
	c0.3-0.5,0.7-0.8,1.1-1.1c0.5-0.3,1-0.5,1.6-0.6c0.6-0.1,1.2-0.2,1.8-0.2c0.6,0,1.2,0.1,1.8,0.2c0.5,0.1,1.1,0.3,1.6,0.6
	c0.5,0.3,0.8,0.7,1.1,1.1c0.3,0.5,0.5,1.1,0.5,1.7h-3c0-0.5-0.2-1-0.7-1.2c-0.5-0.2-0.9-0.3-1.4-0.3h-0.6c-0.2,0-0.4,0.1-0.6,0.1
	c-0.2,0.1-0.3,0.2-0.4,0.3c-0.1,0.2-0.2,0.4-0.2,0.6c0,0.3,0.1,0.5,0.3,0.7c0.2,0.2,0.5,0.3,0.8,0.4c0.4,0.1,0.8,0.2,1.1,0.3
	c0.4,0.1,0.9,0.2,1.3,0.3c0.5,0.1,0.9,0.2,1.3,0.4c0.4,0.1,0.8,0.3,1.2,0.6c0.3,0.2,0.6,0.5,0.8,0.9c0.2,0.4,0.3,0.9,0.3,1.3
	c0,0.7-0.1,1.3-0.4,1.9c-0.3,0.5-0.7,0.9-1.2,1.2c-0.5,0.3-1.1,0.5-1.7,0.6c-0.6,0.1-1.3,0.2-1.9,0.2c-0.6,0-1.3-0.1-1.9-0.2
	c-0.6-0.1-1.2-0.3-1.7-0.7c-0.5-0.3-0.9-0.7-1.2-1.2c-0.3-0.6-0.5-1.2-0.5-1.9h3C186.6,143.2,186.6,143.5,186.8,143.8"/>
<path class="st0" d="M196,138.5c0.3-0.7,0.7-1.3,1.2-1.9c0.5-0.5,1.2-0.9,1.9-1.2c0.8-0.3,1.6-0.4,2.4-0.4c0.8,0,1.7,0.1,2.4,0.4
	c0.7,0.3,1.3,0.7,1.9,1.2c0.5,0.5,0.9,1.2,1.2,1.9c0.3,0.8,0.4,1.6,0.4,2.5c0,0.8-0.1,1.7-0.4,2.5c-0.3,0.7-0.7,1.3-1.2,1.9
	c-0.5,0.5-1.2,0.9-1.9,1.2c-0.8,0.3-1.6,0.4-2.4,0.4c-0.8,0-1.6-0.1-2.4-0.4c-0.7-0.3-1.3-0.7-1.9-1.2c-0.5-0.5-0.9-1.2-1.2-1.9
	c-0.3-0.8-0.4-1.6-0.4-2.5C195.6,140.1,195.7,139.3,196,138.5 M198.8,142.3c0.1,0.4,0.2,0.8,0.4,1.2c0.2,0.3,0.5,0.6,0.9,0.8
	c0.4,0.2,0.9,0.3,1.3,0.3c0.5,0,0.9-0.1,1.3-0.3c0.4-0.2,0.6-0.5,0.9-0.8c0.2-0.4,0.4-0.7,0.4-1.2c0.1-0.4,0.1-0.9,0.1-1.3
	c0-0.5,0-0.9-0.1-1.3c-0.1-0.4-0.2-0.8-0.4-1.2c-0.2-0.3-0.5-0.6-0.9-0.8c-0.4-0.2-0.9-0.3-1.3-0.3c-0.5,0-0.9,0.1-1.3,0.3
	c-0.3,0.2-0.6,0.5-0.9,0.8c-0.2,0.4-0.4,0.8-0.4,1.2c-0.1,0.4-0.1,0.9-0.1,1.3C198.7,141.4,198.8,141.8,198.8,142.3L198.8,142.3z"/>
<path class="st0" d="M214.8,137.3c-0.4,0-0.9,0.1-1.3,0.3c-0.3,0.2-0.6,0.5-0.8,0.9c-0.2,0.4-0.4,0.8-0.4,1.2
	c-0.1,0.4-0.1,0.8-0.1,1.3c0,0.4,0,0.8,0.1,1.2c0.1,0.4,0.2,0.8,0.4,1.2c0.2,0.3,0.5,0.6,0.8,0.8c0.4,0.2,0.8,0.3,1.2,0.3
	c0.6,0,1.3-0.2,1.7-0.6c0.4-0.5,0.7-1.1,0.8-1.7h3c-0.1,1.3-0.7,2.6-1.8,3.4c-1.1,0.8-2.4,1.2-3.7,1.2c-0.8,0-1.6-0.1-2.3-0.4
	c-0.7-0.3-1.3-0.7-1.8-1.2c-0.5-0.5-0.9-1.2-1.2-1.8c-0.3-0.7-0.4-1.5-0.4-2.3c0-0.8,0.1-1.7,0.4-2.4c0.2-0.7,0.6-1.4,1.1-2
	c0.5-0.6,1.1-1,1.8-1.3c0.8-0.3,1.6-0.5,2.5-0.5c0.7,0,1.3,0.1,1.9,0.3c0.6,0.2,1.2,0.4,1.7,0.8c1,0.8,1.7,2,1.7,3.2h-3
	c0-1.2-1-2.1-2.2-2C214.9,137.2,214.9,137.2,214.8,137.3"/>
<path class="st0" d="M222.1,130.9h3.1v2.6h-3.1V130.9z M222.1,135.3h3.1v11.4h-3.1V135.3z"/>
<path class="st0" d="M228.1,136.9c0.3-0.5,0.7-0.9,1.2-1.2c0.5-0.3,1.1-0.5,1.7-0.6c0.6-0.1,1.2-0.2,1.9-0.2c0.6,0,1.2,0,1.7,0.1
	c0.6,0.1,1.1,0.2,1.6,0.5c0.5,0.2,0.9,0.6,1.2,1c0.3,0.5,0.5,1.1,0.5,1.7v5.9c0,0.5,0,1,0.1,1.5c0,0.4,0.1,0.7,0.3,1.1h-3.2
	c-0.1-0.2-0.1-0.4-0.1-0.5c0-0.2-0.1-0.4-0.1-0.6c-0.5,0.5-1.1,0.9-1.8,1.1c-0.7,0.2-1.4,0.3-2.1,0.3c-0.5,0-1-0.1-1.5-0.2
	c-0.4-0.1-0.9-0.3-1.2-0.6c-0.4-0.3-0.6-0.6-0.8-1.1c-0.2-0.5-0.3-1-0.3-1.5c0-0.6,0.1-1.1,0.3-1.6c0.2-0.4,0.5-0.7,0.9-1
	c0.4-0.3,0.8-0.4,1.2-0.6c0.5-0.1,0.9-0.2,1.4-0.3c0.5-0.1,0.9-0.1,1.4-0.2c0.4,0,0.8-0.1,1.2-0.2c0.3-0.1,0.6-0.2,0.8-0.4
	c0.2-0.2,0.3-0.5,0.3-0.7c0-0.3,0-0.6-0.2-0.8c-0.1-0.2-0.3-0.3-0.4-0.5c-0.2-0.1-0.4-0.2-0.6-0.2c-0.3,0-0.5,0-0.8-0.1
	c-0.5,0-1,0.1-1.4,0.4c-0.4,0.3-0.6,0.8-0.6,1.3h-3.1C227.6,138.1,227.7,137.5,228.1,136.9 M234.2,141.3c-0.2,0.1-0.4,0.1-0.6,0.2
	l-0.7,0.1c-0.2,0-0.5,0.1-0.8,0.1c-0.2,0-0.5,0.1-0.7,0.2c-0.2,0.1-0.4,0.2-0.6,0.3c-0.2,0.1-0.3,0.3-0.4,0.5
	c-0.1,0.2-0.2,0.5-0.2,0.7c0,0.2,0,0.5,0.2,0.7c0.1,0.2,0.2,0.3,0.4,0.4c0.2,0.1,0.4,0.2,0.6,0.2c0.2,0,0.5,0.1,0.7,0.1
	c0.5,0,1-0.1,1.4-0.3c0.3-0.2,0.6-0.4,0.8-0.7c0.2-0.3,0.3-0.6,0.3-0.9c0-0.3,0.1-0.5,0.1-0.7v-1.2
	C234.6,141.2,234.4,141.3,234.2,141.3L234.2,141.3z"/>
<path class="st0" d="M246.5,135.3v2.1h-2.3v5.6c0,0.4,0,0.7,0.3,1.1c0.3,0.2,0.7,0.3,1.1,0.3h0.5l0.5-0.1v2.4
	c-0.3,0-0.6,0.1-0.9,0.1h-0.9c-0.5,0-0.9,0-1.4-0.1c-0.4-0.1-0.8-0.2-1.1-0.4c-0.3-0.2-0.6-0.5-0.8-0.8c-0.2-0.4-0.3-0.9-0.3-1.4
	v-6.7h-1.9v-2.1h1.9v-3.4h3.1v3.4L246.5,135.3"/>
<path class="st0" d="M248.1,130.9h3.1v2.6h-3.1V130.9z M248.1,135.3h3.1v11.4h-3.1V135.3z"/>
<path class="st0" d="M253.8,138.5c0.3-0.7,0.7-1.3,1.2-1.9c0.5-0.5,1.1-0.9,1.8-1.2c1.6-0.6,3.3-0.6,4.9,0c0.7,0.3,1.3,0.7,1.9,1.2
	c0.5,0.5,0.9,1.2,1.2,1.9c0.3,0.8,0.4,1.6,0.4,2.5c0,0.8-0.1,1.7-0.4,2.5c-0.5,1.4-1.6,2.5-3,3.1c-1.6,0.5-3.3,0.5-4.9,0
	c-0.7-0.3-1.3-0.7-1.8-1.2c-0.5-0.5-0.9-1.2-1.2-1.9c-0.3-0.8-0.4-1.6-0.4-2.5C253.4,140.1,253.5,139.3,253.8,138.5 M256.6,142.3
	c0.1,0.4,0.2,0.8,0.5,1.2c0.2,0.3,0.5,0.6,0.9,0.8c0.4,0.2,0.9,0.3,1.3,0.3c0.5,0,0.9-0.1,1.3-0.3c0.4-0.2,0.6-0.5,0.9-0.8
	c0.2-0.4,0.4-0.8,0.5-1.2c0.1-0.4,0.1-0.9,0.1-1.3c0-0.4,0-0.9-0.1-1.3c-0.1-0.4-0.2-0.8-0.5-1.2c-0.2-0.3-0.5-0.6-0.9-0.8
	c-0.4-0.2-0.9-0.3-1.3-0.3c-0.5,0-0.9,0.1-1.3,0.3c-0.3,0.2-0.6,0.5-0.9,0.8c-0.2,0.4-0.4,0.8-0.5,1.2c-0.1,0.4-0.1,0.9-0.1,1.3
	C256.5,141.4,256.5,141.8,256.6,142.3L256.6,142.3z"/>
<path class="st0" d="M270.1,135.3v1.6h0.1c0.4-0.6,0.9-1.1,1.5-1.4c0.6-0.3,1.3-0.4,1.9-0.4c0.7,0,1.4,0.1,2,0.3
	c0.5,0.2,0.9,0.5,1.3,0.9c0.3,0.4,0.5,0.9,0.6,1.5c0.1,0.6,0.2,1.3,0.2,1.9v7h-3.1v-6.4c0.1-0.7-0.1-1.5-0.4-2.1
	c-0.4-0.5-1-0.8-1.6-0.7c-0.7-0.1-1.4,0.2-1.8,0.8c-0.5,0.7-0.7,1.6-0.6,2.5v6h-3.1v-11.4H270.1"/>
<rect x="138.3" y="99.5" class="st0" width="1.2" height="47.2"/>
<path class="st0" d="M285.8,146.6c-1.9,0-3.4-1.4-3.5-3.3c0-0.1,0-0.1,0-0.2c0-1.9,1.6-3.4,3.5-3.4s3.4,1.6,3.4,3.5
	C289.2,145.1,287.7,146.6,285.8,146.6 M285.8,140.2c-1.5,0-2.7,1.2-2.7,2.7c0,0.1,0,0.1,0,0.2c-0.1,1.5,1,2.8,2.5,2.9
	c1.5,0.1,2.8-1,2.9-2.5c0-0.2,0-0.3,0-0.5c0.1-1.5-1-2.8-2.5-2.9C285.9,140.2,285.9,140.2,285.8,140.2z M285.1,145.1h-0.6v-3.9h1.5
	c0.9,0,1.4,0.3,1.4,1.1c0,0.6-0.4,1-0.9,1.1c0,0,0,0-0.1,0l1.1,1.7h-0.7l-1-1.7h-0.6L285.1,145.1z M285.8,142.9c0.5,0,0.9,0,0.9-0.6
	s-0.5-0.5-0.9-0.5h-0.8v1.1H285.8z"/>
<path class="st0" d="M403.3,86.7c-1.7-8.1-8.4-12.7-16-12.7c-13.9-0.1-19.8,11.5-19.8,22.9s5.8,23,19.6,23.1
	c9.7,0,15.9-7.4,16.9-16.7h5c-1.4,12.8-9.6,21-21.9,21c-16.5-0.1-24.6-13.1-24.6-27.4s8.3-27.2,24.8-27.2c9.9,0,19.7,6,21,17
	L403.3,86.7"/>
<path class="st0" d="M413.3,85.4h4.9l12.3,32.3l11.8-32.2h4.6l-16.6,43.6c-2.7,6.4-4.2,8.2-10,8.2c-1.2,0-2.4-0.1-3.5-0.4v-3.9
	c1,0.2,2.1,0.4,3.1,0.4c4.1,0,5.1-2.4,6.6-5.9l1.6-4.3L413.3,85.4"/>
<path class="st0" d="M477.4,97.5c-1.2-5.7-4.6-9.1-10.7-9.1c-8.9,0-13.3,8-13.3,16.1s4.3,16.1,13.2,16.2c5.7,0,10.4-4.4,11-10.7h4.6
	c-1.2,9.1-7.2,14.6-15.6,14.6c-11.6,0-17.8-9.2-17.8-20.1s6.4-20,18-19.9c8,0,14.2,4.4,15.2,13H477.4"/>
<polyline class="st0" points="489,71.2 493.6,71.2 493.4,123.5 488.8,123.5 489,71.2 "/>
<path class="st0" d="M506.9,105.9c0,6.8,3.5,14.9,12.4,14.9c6.7,0,10.4-3.9,11.9-9.6h4.6c-2,8.6-7,13.5-16.5,13.5
	c-12,0-17-9.3-17-20.1c0-10,5.1-20,17.2-19.9s17,10.7,16.6,21.3L506.9,105.9 M531.3,102.1c-0.2-7-4.5-13.5-12-13.5
	s-11.8,6.6-12.5,13.4L531.3,102.1z"/>
<polyline class="st0" points="543.1,71.4 548.7,71.4 579,115.8 579.2,115.8 579.3,71.5 584.3,71.5 584.1,123.9 578.5,123.8 
	548.2,79.4 548.1,79.4 547.9,123.7 542.9,123.7 543.1,71.4 "/>
<path class="st0" d="M594.5,97.7c0.5-8.9,6.7-12.7,15.4-12.6c6.7,0,13.9,2.1,13.9,12.2l-0.1,20.1c-0.2,1.3,0.7,2.6,2.1,2.8
	c0.2,0,0.4,0,0.6,0c0.5,0,1-0.1,1.5-0.3v3.9c-1,0.2-2,0.3-3,0.3c-4.7,0-5.4-2.7-5.4-6.6h-0.2c-3.2,4.9-6.5,7.7-13.8,7.6
	c-7,0-12.7-3.5-12.6-11.1c0-10.6,10.4-11,20.3-12.1c3.8-0.4,5.9-0.9,6-5.1c0-6.2-4.4-7.8-9.9-7.8c-5.7,0-10,2.6-10.2,8.8L594.5,97.7
	 M619.1,103.3H619c-0.6,1.1-2.7,1.4-3.9,1.7c-7.8,1.4-17.6,1.2-17.6,8.7c0,4.6,4.1,7.5,8.4,7.5c7,0,13.3-4.4,13.2-11.8L619.1,103.3z
	"/>
<path class="st0" d="M640.3,86.3h7.7v3.9h-7.7l-0.1,25.5c0,3,0.4,4.8,3.7,5c1.3,0,2.6-0.1,4-0.2v4c-1.4,0-2.7,0.1-4.1,0.1
	c-6.2,0-8.3-2.1-8.2-8.5l0.1-25.9h-6.6v-3.9h6.6V74.9h4.6L640.3,86.3"/>
<path class="st0" d="M654.8,71.8h4.6v7.4h-4.6V71.8 M654.8,86.3h4.6l-0.2,37.8h-4.6L654.8,86.3z"/>
<path class="st0" d="M702,105.4c0,10.8-6.4,20-18,19.9s-17.8-9.2-17.8-20.1s6.4-20,18-19.9S702.1,94.6,702,105.4 M670.9,105.3
	c0,8.1,4.3,16.1,13.2,16.2s13.3-8,13.3-16.1s-4.3-16.2-13.2-16.2S670.9,97.2,670.9,105.3z"/>
<path class="st0" d="M709,86.5h4.6V93h0.2c1.6-4.5,6.7-7.5,12-7.5c10.6,0,13.8,5.6,13.8,14.6l-0.1,24.3h-4.6l0.1-23.6
	c0-6.5-2.1-11.4-9.6-11.5c-7.3,0-11.8,5.5-11.9,12.9l-0.1,22.1h-4.6L709,86.5"/>
<path class="st0" d="M743.2,87v-6.1H741v-0.7h5.3v0.8h-2.2V87L743.2,87 M747.5,87v-6.8h1.4l2.2,5.5l2.2-5.5h1.4V87h-0.9v-6l0,0
	l-2.4,6h-0.5l-2.4-6l0,0v6L747.5,87z"/>
<line class="st1" x1="330.9" y1="29.1" x2="330.9" y2="182"/></svg>