<?xml version="1.0" encoding="utf-8"?>
<!-- Generator: Adobe Illustrator 22.0.1, SVG Export Plug-In . SVG Version: 6.00 Build 0)  -->
<svg version="1.1" id="CN_Logo_White" xmlns="http://www.w3.org/2000/svg" xmlns:xlink="http://www.w3.org/1999/xlink" x="0px" y="0px"
	 viewBox="0 0 755 189" style="enable-background:new 0 0 755 189;" xml:space="preserve">
<style type="text/css">
	.st0{fill:#FFFFFF;}
	.st1{fill:none;stroke:#FFFFFF;stroke-miterlimit:10;}
</style>
<path class="st0" d="M32.1,82.7L38,98.4h-3.6l-1.2-3.5h-5.9l-1.2,3.5h-3.5l5.9-15.7H32.1 M32.3,92.3l-2-5.8h0l-2,5.8H32.3z"/>
<path class="st0" d="M42,87v1.5h0c0.4-0.6,0.9-1,1.5-1.4c0.6-0.3,1.2-0.5,2-0.5c0.7,0,1.4,0.1,2,0.4c0.6,0.3,1,0.8,1.3,1.5
	c0.3-0.5,0.8-0.9,1.4-1.3c0.6-0.4,1.3-0.6,2.1-0.6c0.6,0,1.2,0.1,1.7,0.2c0.5,0.1,1,0.4,1.3,0.7c0.4,0.3,0.7,0.7,0.9,1.3
	c0.2,0.5,0.3,1.1,0.3,1.9v7.6h-3.1v-6.4c0-0.4,0-0.7,0-1.1c0-0.3-0.1-0.6-0.2-0.9c-0.1-0.2-0.3-0.4-0.6-0.6c-0.3-0.1-0.6-0.2-1-0.2
	c-0.4,0-0.8,0.1-1.1,0.3c-0.3,0.2-0.5,0.4-0.6,0.7c-0.2,0.3-0.3,0.6-0.3,0.9c-0.1,0.3-0.1,0.7-0.1,1v6.3h-3.1V92c0-0.3,0-0.7,0-1
	c0-0.3-0.1-0.6-0.2-0.9c-0.1-0.3-0.3-0.5-0.5-0.7c-0.3-0.2-0.6-0.3-1.1-0.3c-0.1,0-0.3,0-0.6,0.1c-0.2,0.1-0.5,0.2-0.7,0.4
	c-0.2,0.2-0.4,0.4-0.6,0.8c-0.2,0.3-0.2,0.8-0.2,1.4v6.6h-3.1V87H42"/>
<path class="st0" d="M62.3,95.7c0.5,0.5,1.1,0.7,2,0.7c0.6,0,1.2-0.2,1.6-0.5c0.5-0.3,0.7-0.6,0.8-1h2.7c-0.4,1.4-1.1,2.3-2,2.9
	c-0.9,0.6-2,0.9-3.3,0.9c-0.9,0-1.7-0.1-2.4-0.4C61,98,60.4,97.5,59.9,97c-0.5-0.5-0.9-1.2-1.2-1.9c-0.3-0.7-0.4-1.5-0.4-2.4
	c0-0.8,0.1-1.6,0.4-2.4c0.3-0.7,0.7-1.4,1.2-1.9c0.5-0.5,1.1-1,1.8-1.3c0.7-0.3,1.5-0.5,2.4-0.5c1,0,1.8,0.2,2.5,0.6
	c0.7,0.4,1.3,0.9,1.8,1.5c0.5,0.6,0.8,1.3,1,2.2c0.2,0.8,0.3,1.6,0.2,2.5h-8.2C61.5,94.5,61.8,95.2,62.3,95.7 M65.8,89.7
	c-0.4-0.4-0.9-0.6-1.7-0.6c-0.5,0-0.9,0.1-1.2,0.3c-0.3,0.2-0.6,0.4-0.8,0.6c-0.2,0.2-0.3,0.5-0.4,0.8c-0.1,0.3-0.1,0.5-0.1,0.7h5.1
	C66.4,90.7,66.2,90.1,65.8,89.7z"/>
<path class="st0" d="M74.5,87v2.1h0c0.1-0.4,0.3-0.7,0.6-1c0.2-0.3,0.5-0.6,0.9-0.8c0.3-0.2,0.7-0.4,1-0.5c0.4-0.1,0.7-0.2,1.1-0.2
	c0.2,0,0.4,0,0.7,0.1v2.9c-0.1,0-0.3-0.1-0.5-0.1c-0.2,0-0.4,0-0.6,0c-0.6,0-1.1,0.1-1.4,0.3c-0.4,0.2-0.7,0.4-1,0.8
	c-0.2,0.3-0.4,0.7-0.5,1.2c-0.1,0.4-0.2,0.9-0.2,1.4v5.1h-3.1V87H74.5"/>
<path class="st0" d="M80.2,82.7h3.1v2.6h-3.1V82.7z M80.2,87h3.1v11.4h-3.1V87z"/>
<path class="st0" d="M91.2,89.1c-0.5,0-0.9,0.1-1.2,0.3c-0.3,0.2-0.6,0.5-0.8,0.9c-0.2,0.4-0.4,0.8-0.5,1.2
	c-0.1,0.4-0.1,0.9-0.1,1.3c0,0.4,0,0.8,0.1,1.3c0.1,0.4,0.2,0.8,0.4,1.2c0.2,0.3,0.5,0.6,0.8,0.8c0.3,0.2,0.7,0.3,1.2,0.3
	c0.7,0,1.3-0.2,1.7-0.6c0.4-0.4,0.7-1,0.8-1.7h3c-0.2,1.5-0.8,2.7-1.8,3.4c-1,0.8-2.2,1.2-3.7,1.2c-0.9,0-1.6-0.1-2.3-0.4
	C88.1,98,87.5,97.6,87,97c-0.5-0.5-0.9-1.1-1.2-1.8c-0.3-0.7-0.4-1.5-0.4-2.3c0-0.9,0.1-1.7,0.4-2.5c0.3-0.8,0.6-1.4,1.1-2
	c0.5-0.6,1.1-1,1.8-1.3c0.7-0.3,1.5-0.5,2.5-0.5c0.7,0,1.3,0.1,1.9,0.3c0.6,0.2,1.2,0.4,1.7,0.8c0.5,0.4,0.9,0.8,1.2,1.3
	c0.3,0.5,0.5,1.2,0.5,1.9h-3.1C93.3,89.7,92.5,89.1,91.2,89.1"/>
<path class="st0" d="M98.8,88.7c0.3-0.5,0.7-0.9,1.2-1.2c0.5-0.3,1.1-0.5,1.7-0.6c0.6-0.1,1.3-0.2,1.9-0.2c0.6,0,1.1,0,1.7,0.1
	c0.6,0.1,1.1,0.2,1.6,0.5c0.5,0.2,0.9,0.6,1.2,1c0.3,0.4,0.5,1,0.5,1.7v5.9c0,0.5,0,1,0.1,1.5c0.1,0.5,0.2,0.8,0.3,1.1h-3.2
	c-0.1-0.2-0.1-0.4-0.1-0.5c0-0.2-0.1-0.4-0.1-0.6c-0.5,0.5-1.1,0.9-1.8,1.1c-0.7,0.2-1.4,0.3-2.1,0.3c-0.5,0-1-0.1-1.5-0.2
	c-0.5-0.1-0.9-0.3-1.2-0.6c-0.3-0.3-0.6-0.6-0.8-1.1c-0.2-0.4-0.3-0.9-0.3-1.5c0-0.6,0.1-1.2,0.3-1.6c0.2-0.4,0.5-0.8,0.9-1
	c0.4-0.2,0.8-0.4,1.2-0.6c0.5-0.1,0.9-0.2,1.4-0.3c0.5-0.1,0.9-0.1,1.4-0.2c0.5,0,0.9-0.1,1.2-0.2c0.4-0.1,0.6-0.2,0.8-0.4
	c0.2-0.2,0.3-0.4,0.3-0.7c0-0.3-0.1-0.6-0.2-0.8c-0.1-0.2-0.3-0.4-0.4-0.5s-0.4-0.2-0.6-0.2c-0.2,0-0.5-0.1-0.8-0.1
	c-0.6,0-1.1,0.1-1.4,0.4c-0.4,0.3-0.6,0.7-0.6,1.3h-3.1C98.3,89.8,98.5,89.2,98.8,88.7 M104.9,93.1c-0.2,0.1-0.4,0.1-0.6,0.2
	c-0.2,0-0.5,0.1-0.7,0.1c-0.2,0-0.5,0.1-0.7,0.1c-0.2,0-0.5,0.1-0.7,0.2c-0.2,0.1-0.4,0.2-0.6,0.3c-0.2,0.1-0.3,0.3-0.4,0.5
	c-0.1,0.2-0.2,0.4-0.2,0.7c0,0.3,0.1,0.5,0.2,0.7c0.1,0.2,0.2,0.3,0.4,0.5c0.2,0.1,0.4,0.2,0.6,0.2c0.2,0,0.5,0.1,0.7,0.1
	c0.6,0,1.1-0.1,1.4-0.3c0.3-0.2,0.6-0.4,0.7-0.7c0.2-0.3,0.3-0.6,0.3-0.9c0-0.3,0.1-0.5,0.1-0.7v-1.2
	C105.3,92.9,105.1,93,104.9,93.1z"/>
<path class="st0" d="M113.9,87v1.6h0.1c0.4-0.7,0.9-1.1,1.5-1.4c0.6-0.3,1.3-0.5,1.9-0.5c0.8,0,1.5,0.1,2.1,0.3
	c0.5,0.2,1,0.5,1.3,0.9c0.3,0.4,0.5,0.9,0.6,1.5c0.1,0.6,0.2,1.2,0.2,1.9v7h-3.1V92c0-0.9-0.1-1.6-0.4-2.1c-0.3-0.5-0.8-0.7-1.6-0.7
	c-0.8,0-1.5,0.3-1.8,0.8c-0.4,0.5-0.6,1.3-0.6,2.5v6H111V87H113.9"/>
<polyline class="st0" points="53.4,104.9 53.4,112.6 61.6,112.6 61.6,104.9 66,104.9 66,125.1 61.6,125.1 61.6,116.4 53.4,116.4 
	53.4,125.1 49,125.1 49,104.9 53.4,104.9 "/>
<path class="st0" d="M73.8,121.6c0.6,0.6,1.5,0.9,2.6,0.9c0.8,0,1.5-0.2,2.1-0.6c0.6-0.4,0.9-0.8,1.1-1.3h3.5
	c-0.6,1.8-1.4,3-2.6,3.8c-1.2,0.8-2.6,1.1-4.2,1.1c-1.2,0-2.2-0.2-3.1-0.6c-0.9-0.4-1.7-0.9-2.3-1.6c-0.6-0.7-1.1-1.5-1.5-2.4
	s-0.5-2-0.5-3.1c0-1.1,0.2-2.1,0.5-3.1c0.4-0.9,0.9-1.8,1.5-2.4c0.7-0.7,1.4-1.2,2.4-1.6c0.9-0.4,1.9-0.6,3-0.6
	c1.2,0,2.3,0.2,3.2,0.7c0.9,0.5,1.7,1.1,2.3,1.9c0.6,0.8,1,1.7,1.3,2.8c0.3,1,0.4,2.1,0.3,3.2H72.8C72.9,120,73.2,121,73.8,121.6
	 M78.4,113.9c-0.5-0.5-1.2-0.8-2.2-0.8c-0.6,0-1.2,0.1-1.6,0.3c-0.4,0.2-0.8,0.5-1,0.8c-0.3,0.3-0.4,0.7-0.5,1
	c-0.1,0.4-0.2,0.7-0.2,1h6.5C79.2,115.2,78.8,114.4,78.4,113.9z"/>
<path class="st0" d="M86.3,112.6c0.4-0.6,0.9-1.1,1.6-1.5s1.4-0.6,2.2-0.8c0.8-0.2,1.6-0.2,2.4-0.2c0.7,0,1.5,0.1,2.2,0.2
	c0.8,0.1,1.4,0.3,2.1,0.6c0.6,0.3,1.1,0.7,1.5,1.3c0.4,0.5,0.6,1.2,0.6,2.1v7.6c0,0.7,0,1.3,0.1,1.9c0.1,0.6,0.2,1.1,0.4,1.4h-4.1
	c-0.1-0.2-0.1-0.5-0.2-0.7c0-0.2-0.1-0.5-0.1-0.7c-0.6,0.7-1.4,1.1-2.3,1.4c-0.9,0.3-1.8,0.4-2.7,0.4c-0.7,0-1.3-0.1-2-0.3
	c-0.6-0.2-1.1-0.4-1.6-0.8c-0.5-0.4-0.8-0.8-1.1-1.4c-0.3-0.5-0.4-1.2-0.4-1.9c0-0.8,0.1-1.5,0.4-2c0.3-0.5,0.7-1,1.1-1.3
	c0.5-0.3,1-0.6,1.6-0.7c0.6-0.2,1.2-0.3,1.8-0.4c0.6-0.1,1.2-0.2,1.8-0.2c0.6-0.1,1.1-0.1,1.6-0.3c0.5-0.1,0.8-0.3,1.1-0.5
	c0.3-0.2,0.4-0.5,0.4-0.9c0-0.4-0.1-0.8-0.2-1c-0.1-0.3-0.3-0.5-0.6-0.6c-0.2-0.1-0.5-0.2-0.8-0.3c-0.3,0-0.6-0.1-1-0.1
	c-0.8,0-1.4,0.2-1.9,0.5c-0.4,0.3-0.7,0.9-0.8,1.7h-4C85.6,114,85.9,113.2,86.3,112.6 M94.2,118.3c-0.3,0.1-0.5,0.2-0.8,0.2
	c-0.3,0.1-0.6,0.1-0.9,0.1c-0.3,0-0.6,0.1-1,0.1c-0.3,0.1-0.6,0.1-0.9,0.2c-0.3,0.1-0.5,0.2-0.8,0.4c-0.2,0.2-0.4,0.4-0.5,0.6
	c-0.1,0.2-0.2,0.6-0.2,0.9c0,0.4,0.1,0.7,0.2,0.9c0.1,0.2,0.3,0.4,0.5,0.6c0.2,0.1,0.5,0.2,0.8,0.3c0.3,0.1,0.6,0.1,0.9,0.1
	c0.8,0,1.4-0.1,1.8-0.4c0.4-0.3,0.8-0.6,1-0.9c0.2-0.4,0.3-0.7,0.4-1.1c0-0.4,0.1-0.7,0.1-0.9v-1.5
	C94.7,118.1,94.5,118.2,94.2,118.3z"/>
<path class="st0" d="M105.8,110.5v2.7h0.1c0.2-0.5,0.4-0.9,0.8-1.3c0.3-0.4,0.7-0.7,1.1-1c0.4-0.3,0.9-0.5,1.3-0.6
	c0.5-0.2,1-0.2,1.5-0.2c0.3,0,0.6,0,0.9,0.1v3.7c-0.2,0-0.4-0.1-0.7-0.1c-0.3,0-0.5,0-0.8,0c-0.7,0-1.4,0.1-1.9,0.4
	c-0.5,0.2-0.9,0.6-1.2,1c-0.3,0.4-0.5,0.9-0.7,1.5c-0.1,0.6-0.2,1.2-0.2,1.8v6.6h-4v-14.6H105.8"/>
<path class="st0" d="M122.6,110.5v2.7h-2.9v7.2c0,0.7,0.1,1.1,0.3,1.4c0.2,0.2,0.7,0.3,1.4,0.3c0.2,0,0.4,0,0.7,0
	c0.2,0,0.4,0,0.6-0.1v3.1c-0.3,0.1-0.7,0.1-1.1,0.1c-0.4,0-0.8,0-1.2,0c-0.6,0-1.2,0-1.8-0.1c-0.6-0.1-1-0.2-1.5-0.5
	c-0.4-0.2-0.8-0.6-1-1c-0.2-0.5-0.4-1-0.4-1.8v-8.6h-2.4v-2.7h2.4v-4.4h4v4.4H122.6"/>
<path class="st0" d="M9.5,131.4l5.9,15.7h-3.6l-1.2-3.5H4.7L3.5,147H0l5.9-15.7H9.5 M9.7,141l-2-5.8h0l-2,5.8H9.7z"/>
<path class="st0" d="M19,144.2c0.1,0.2,0.3,0.4,0.5,0.6s0.5,0.3,0.8,0.3c0.3,0.1,0.6,0.1,0.9,0.1c0.2,0,0.5,0,0.7-0.1
	c0.2-0.1,0.5-0.1,0.7-0.2s0.4-0.3,0.5-0.4c0.1-0.2,0.2-0.4,0.2-0.7c0-0.5-0.3-0.8-0.9-1.1c-0.6-0.2-1.5-0.5-2.6-0.7
	c-0.5-0.1-0.9-0.2-1.3-0.4c-0.4-0.1-0.8-0.3-1.2-0.5s-0.6-0.5-0.8-0.9c-0.2-0.3-0.3-0.8-0.3-1.3c0-0.7,0.1-1.3,0.4-1.8
	c0.3-0.5,0.7-0.8,1.1-1.1c0.5-0.3,1-0.5,1.6-0.6c0.6-0.1,1.2-0.2,1.8-0.2c0.6,0,1.2,0.1,1.8,0.2c0.6,0.1,1.1,0.3,1.5,0.6
	c0.5,0.3,0.8,0.6,1.1,1.1c0.3,0.5,0.5,1,0.5,1.7h-3c0-0.6-0.3-1-0.7-1.2c-0.4-0.2-0.9-0.3-1.5-0.3c-0.2,0-0.4,0-0.6,0
	c-0.2,0-0.4,0.1-0.6,0.1c-0.2,0.1-0.3,0.2-0.4,0.3c-0.1,0.1-0.2,0.3-0.2,0.6c0,0.3,0.1,0.5,0.3,0.7c0.2,0.2,0.5,0.3,0.8,0.4
	c0.3,0.1,0.7,0.2,1.1,0.3c0.4,0.1,0.9,0.2,1.3,0.3c0.5,0.1,0.9,0.2,1.3,0.4c0.4,0.1,0.8,0.3,1.2,0.6c0.3,0.2,0.6,0.5,0.8,0.9
	c0.2,0.4,0.3,0.8,0.3,1.3c0,0.7-0.1,1.4-0.5,1.9c-0.3,0.5-0.7,0.9-1.2,1.2c-0.5,0.3-1,0.5-1.7,0.6c-0.6,0.1-1.3,0.2-1.9,0.2
	c-0.7,0-1.3-0.1-1.9-0.2c-0.6-0.1-1.2-0.4-1.7-0.7c-0.5-0.3-0.9-0.7-1.2-1.2c-0.3-0.5-0.5-1.1-0.5-1.9h3
	C18.8,143.7,18.9,144,19,144.2"/>
<path class="st0" d="M30.8,144.2c0.1,0.2,0.3,0.4,0.5,0.6c0.2,0.2,0.5,0.3,0.8,0.3c0.3,0.1,0.6,0.1,0.9,0.1c0.2,0,0.5,0,0.7-0.1
	c0.2-0.1,0.5-0.1,0.7-0.2c0.2-0.1,0.4-0.3,0.5-0.4c0.1-0.2,0.2-0.4,0.2-0.7c0-0.5-0.3-0.8-0.9-1.1c-0.6-0.2-1.5-0.5-2.6-0.7
	c-0.5-0.1-0.9-0.2-1.3-0.4c-0.4-0.1-0.8-0.3-1.2-0.5c-0.3-0.2-0.6-0.5-0.8-0.9c-0.2-0.3-0.3-0.8-0.3-1.3c0-0.7,0.1-1.3,0.4-1.8
	c0.3-0.5,0.7-0.8,1.1-1.1c0.5-0.3,1-0.5,1.6-0.6c0.6-0.1,1.2-0.2,1.8-0.2c0.6,0,1.2,0.1,1.8,0.2c0.6,0.1,1.1,0.3,1.5,0.6
	c0.5,0.3,0.8,0.6,1.1,1.1c0.3,0.5,0.5,1,0.5,1.7h-3c0-0.6-0.3-1-0.7-1.2c-0.4-0.2-0.9-0.3-1.4-0.3c-0.2,0-0.4,0-0.6,0
	c-0.2,0-0.4,0.1-0.6,0.1c-0.2,0.1-0.3,0.2-0.4,0.3c-0.1,0.1-0.2,0.3-0.2,0.6c0,0.3,0.1,0.5,0.3,0.7c0.2,0.2,0.5,0.3,0.8,0.4
	c0.3,0.1,0.7,0.2,1.1,0.3c0.4,0.1,0.9,0.2,1.3,0.3c0.5,0.1,0.9,0.2,1.3,0.4c0.4,0.1,0.8,0.3,1.2,0.6c0.3,0.2,0.6,0.5,0.8,0.9
	c0.2,0.4,0.3,0.8,0.3,1.3c0,0.7-0.2,1.4-0.4,1.9c-0.3,0.5-0.7,0.9-1.2,1.2c-0.5,0.3-1,0.5-1.7,0.6c-0.6,0.1-1.3,0.2-1.9,0.2
	c-0.7,0-1.3-0.1-1.9-0.2c-0.6-0.1-1.2-0.4-1.7-0.7c-0.5-0.3-0.9-0.7-1.2-1.2c-0.3-0.5-0.5-1.1-0.5-1.9h3
	C30.6,143.7,30.7,144,30.8,144.2"/>
<path class="st0" d="M40,138.9c0.3-0.7,0.7-1.4,1.2-1.9c0.5-0.5,1.1-0.9,1.8-1.2c0.7-0.3,1.5-0.4,2.4-0.4c0.9,0,1.7,0.1,2.4,0.4
	c0.7,0.3,1.3,0.7,1.9,1.2c0.5,0.5,0.9,1.2,1.2,1.9c0.3,0.7,0.4,1.6,0.4,2.5c0,0.9-0.1,1.7-0.4,2.5c-0.3,0.7-0.7,1.4-1.2,1.9
	c-0.5,0.5-1.1,0.9-1.9,1.2c-0.7,0.3-1.5,0.4-2.4,0.4c-0.9,0-1.7-0.1-2.4-0.4c-0.7-0.3-1.3-0.7-1.8-1.2c-0.5-0.5-0.9-1.1-1.2-1.9
	c-0.3-0.7-0.4-1.6-0.4-2.5C39.6,140.5,39.8,139.6,40,138.9 M42.9,142.7c0.1,0.4,0.2,0.8,0.5,1.2c0.2,0.3,0.5,0.6,0.8,0.8
	c0.4,0.2,0.8,0.3,1.3,0.3c0.5,0,1-0.1,1.3-0.3c0.4-0.2,0.6-0.5,0.9-0.8c0.2-0.3,0.4-0.7,0.5-1.2c0.1-0.4,0.1-0.9,0.1-1.3
	c0-0.5,0-0.9-0.1-1.3c-0.1-0.4-0.2-0.8-0.5-1.2c-0.2-0.3-0.5-0.6-0.9-0.8c-0.4-0.2-0.8-0.3-1.3-0.3c-0.5,0-1,0.1-1.3,0.3
	c-0.3,0.2-0.6,0.5-0.8,0.8c-0.2,0.3-0.4,0.7-0.5,1.2c-0.1,0.4-0.1,0.9-0.1,1.3C42.7,141.8,42.8,142.3,42.9,142.7z"/>
<path class="st0" d="M58.8,137.7c-0.5,0-0.9,0.1-1.3,0.3c-0.3,0.2-0.6,0.5-0.8,0.9c-0.2,0.4-0.4,0.8-0.5,1.2
	c-0.1,0.4-0.1,0.9-0.1,1.3c0,0.4,0,0.8,0.1,1.3s0.2,0.8,0.4,1.2c0.2,0.3,0.5,0.6,0.8,0.8c0.3,0.2,0.7,0.3,1.2,0.3
	c0.7,0,1.3-0.2,1.7-0.6c0.4-0.4,0.7-1,0.8-1.7h3c-0.2,1.5-0.8,2.7-1.8,3.5c-1,0.8-2.2,1.2-3.7,1.2c-0.8,0-1.6-0.1-2.3-0.4
	c-0.7-0.3-1.3-0.7-1.8-1.2c-0.5-0.5-0.9-1.1-1.2-1.8c-0.3-0.7-0.4-1.5-0.4-2.3c0-0.9,0.1-1.7,0.4-2.5c0.3-0.8,0.6-1.4,1.1-2
	c0.5-0.5,1.1-1,1.8-1.3c0.7-0.3,1.5-0.5,2.5-0.5c0.7,0,1.3,0.1,1.9,0.3c0.6,0.2,1.2,0.4,1.7,0.8c0.5,0.4,0.9,0.8,1.2,1.3
	c0.3,0.5,0.5,1.2,0.5,1.9h-3.1C60.9,138.4,60.2,137.7,58.8,137.7"/>
<path class="st0" d="M66.1,131.4h3.1v2.6h-3.1V131.4z M66.1,135.7h3.1V147h-3.1V135.7z"/>
<path class="st0" d="M72.1,137.4c0.3-0.5,0.7-0.9,1.2-1.2c0.5-0.3,1.1-0.5,1.7-0.6c0.6-0.1,1.3-0.2,1.9-0.2c0.6,0,1.1,0,1.7,0.1
	c0.6,0.1,1.1,0.2,1.6,0.5c0.5,0.2,0.9,0.6,1.2,1c0.3,0.4,0.5,1,0.5,1.7v5.9c0,0.5,0,1,0.1,1.5c0.1,0.5,0.2,0.8,0.3,1.1h-3.2
	c-0.1-0.2-0.1-0.4-0.1-0.5c0-0.2-0.1-0.4-0.1-0.6c-0.5,0.5-1.1,0.9-1.8,1.1c-0.7,0.2-1.4,0.3-2.1,0.3c-0.5,0-1-0.1-1.5-0.2
	c-0.5-0.1-0.9-0.3-1.2-0.6c-0.3-0.3-0.6-0.6-0.8-1.1c-0.2-0.4-0.3-0.9-0.3-1.5c0-0.6,0.1-1.2,0.3-1.6c0.2-0.4,0.5-0.8,0.9-1
	c0.4-0.2,0.8-0.4,1.2-0.6c0.5-0.1,0.9-0.2,1.4-0.3c0.5-0.1,0.9-0.1,1.4-0.2c0.5,0,0.9-0.1,1.2-0.2c0.4-0.1,0.6-0.2,0.8-0.4
	c0.2-0.2,0.3-0.4,0.3-0.7c0-0.3-0.1-0.6-0.2-0.8c-0.1-0.2-0.3-0.4-0.4-0.5c-0.2-0.1-0.4-0.2-0.6-0.2c-0.2,0-0.5-0.1-0.8-0.1
	c-0.6,0-1.1,0.1-1.5,0.4c-0.4,0.3-0.6,0.7-0.6,1.3h-3.1C71.6,138.4,71.8,137.8,72.1,137.4 M78.3,141.8c-0.2,0.1-0.4,0.1-0.6,0.2
	c-0.2,0-0.5,0.1-0.7,0.1c-0.2,0-0.5,0.1-0.7,0.1c-0.2,0-0.5,0.1-0.7,0.2c-0.2,0.1-0.4,0.2-0.6,0.3c-0.2,0.1-0.3,0.3-0.4,0.5
	c-0.1,0.2-0.2,0.4-0.2,0.7c0,0.3,0.1,0.5,0.2,0.7c0.1,0.2,0.2,0.3,0.4,0.4c0.2,0.1,0.4,0.2,0.6,0.2c0.2,0,0.5,0.1,0.7,0.1
	c0.6,0,1.1-0.1,1.4-0.3c0.3-0.2,0.6-0.5,0.7-0.7c0.2-0.3,0.3-0.6,0.3-0.9c0-0.3,0.1-0.5,0.1-0.7v-1.2
	C78.6,141.6,78.5,141.7,78.3,141.8z"/>
<path class="st0" d="M90.5,135.7v2.1h-2.3v5.6c0,0.5,0.1,0.9,0.3,1.1c0.2,0.2,0.5,0.3,1.1,0.3c0.2,0,0.3,0,0.5,0
	c0.2,0,0.3,0,0.5-0.1v2.4c-0.3,0-0.6,0.1-0.9,0.1c-0.3,0-0.6,0-0.9,0c-0.5,0-0.9,0-1.4-0.1c-0.4-0.1-0.8-0.2-1.1-0.4
	c-0.3-0.2-0.6-0.5-0.8-0.8c-0.2-0.4-0.3-0.8-0.3-1.4v-6.7h-1.9v-2.1h1.9v-3.4h3.1v3.4H90.5"/>
<path class="st0" d="M92.1,131.4h3.1v2.6h-3.1V131.4z M92.1,135.7h3.1V147h-3.1V135.7z"/>
<path class="st0" d="M97.8,138.9c0.3-0.7,0.7-1.4,1.2-1.9c0.5-0.5,1.1-0.9,1.8-1.2c0.7-0.3,1.5-0.4,2.4-0.4c0.9,0,1.7,0.1,2.4,0.4
	c0.7,0.3,1.3,0.7,1.9,1.2c0.5,0.5,0.9,1.2,1.2,1.9c0.3,0.7,0.4,1.6,0.4,2.5c0,0.9-0.1,1.7-0.4,2.5s-0.7,1.4-1.2,1.9
	c-0.5,0.5-1.1,0.9-1.9,1.2c-0.7,0.3-1.5,0.4-2.4,0.4c-0.9,0-1.7-0.1-2.4-0.4c-0.7-0.3-1.3-0.7-1.8-1.2c-0.5-0.5-0.9-1.1-1.2-1.9
	s-0.4-1.6-0.4-2.5C97.4,140.5,97.5,139.6,97.8,138.9 M100.6,142.7c0.1,0.4,0.2,0.8,0.5,1.2c0.2,0.3,0.5,0.6,0.8,0.8
	c0.4,0.2,0.8,0.3,1.3,0.3c0.5,0,1-0.1,1.3-0.3c0.4-0.2,0.6-0.5,0.9-0.8c0.2-0.3,0.4-0.7,0.5-1.2c0.1-0.4,0.1-0.9,0.1-1.3
	c0-0.5,0-0.9-0.1-1.3c-0.1-0.4-0.2-0.8-0.5-1.2c-0.2-0.3-0.5-0.6-0.9-0.8c-0.4-0.2-0.8-0.3-1.3-0.3c-0.5,0-1,0.1-1.3,0.3
	c-0.3,0.2-0.6,0.5-0.8,0.8c-0.2,0.3-0.4,0.7-0.5,1.2c-0.1,0.4-0.1,0.9-0.1,1.3C100.5,141.8,100.5,142.3,100.6,142.7z"/>
<path class="st0" d="M114.1,135.7v1.6h0.1c0.4-0.7,0.9-1.1,1.5-1.4c0.6-0.3,1.3-0.4,1.9-0.4c0.8,0,1.5,0.1,2.1,0.3
	c0.5,0.2,1,0.5,1.3,0.9c0.3,0.4,0.5,0.9,0.6,1.5c0.1,0.6,0.2,1.2,0.2,1.9v7h-3.1v-6.4c0-0.9-0.1-1.6-0.4-2.1
	c-0.3-0.5-0.8-0.7-1.6-0.7c-0.8,0-1.5,0.3-1.8,0.8c-0.4,0.5-0.6,1.3-0.6,2.5v6h-3.1v-11.4H114.1"/>
<path class="st0" d="M144.3,15.3c-2.2,1.3-3.9,4.4-3,7.6c2.9-4.3,11.8-0.4,14.7-10.3c-2,1.6-4.5,2-5.8,1.9c4.8-2,7.6-9.1,3.3-14
	c1.3,5.7-6,6.2-11.7,7.3c-10.7,2-12.5,12-7.6,17C133.5,18.8,138.3,15.2,144.3,15.3"/>
<path class="st0" d="M141.6,49.7c0.4-5,0.5-9.6,1.6-12.9h-9.1c1.1,3.3,1.2,7.9,1.6,12.9c0.4,6.2,1.6,23.9,1.6,23.9h2.8
	C140.1,73.6,141.2,55.8,141.6,49.7 M125.4,30.1c0,0,0.9,2,0.9,3.9h24.8c0-2,0.9-3.9,0.9-3.9l-11.8,0c1.6-2.6,5.4-6.9,13.5-6.9
	c8.8,0,18.7,7.2,18.7,19.8c0.1,18.9-19.7,32.5-33.8,41.3C124.7,75.5,104.9,62,104.9,43c0-12.7,9.9-19.8,18.7-19.8
	c8.1,0,11.9,4.3,13.5,6.9L125.4,30.1z"/>
<path class="st0" d="M165.4,82.8l5.9,15.7h-3.6l-1.2-3.5h-5.9l-1.2,3.5H156l5.9-15.7H165.4 M165.6,92.4l-2-5.8h0l-2,5.8H165.6z"/>
<path class="st0" d="M175.4,87.1v1.5h0c0.4-0.6,0.9-1,1.5-1.4c0.6-0.3,1.2-0.5,2-0.5c0.7,0,1.4,0.1,2,0.4c0.6,0.3,1,0.8,1.4,1.5
	c0.3-0.5,0.8-0.9,1.4-1.3c0.6-0.4,1.3-0.6,2.1-0.6c0.6,0,1.2,0.1,1.7,0.2c0.5,0.1,1,0.4,1.3,0.7c0.4,0.3,0.7,0.7,0.9,1.3
	c0.2,0.5,0.3,1.1,0.3,1.9v7.6h-3.1V92c0-0.4,0-0.7,0-1.1c0-0.3-0.1-0.6-0.2-0.9c-0.1-0.2-0.3-0.4-0.6-0.6c-0.3-0.1-0.6-0.2-1-0.2
	c-0.4,0-0.8,0.1-1.1,0.3c-0.3,0.2-0.5,0.4-0.6,0.7c-0.2,0.3-0.3,0.6-0.3,0.9c-0.1,0.3-0.1,0.7-0.1,1v6.3h-3.1v-6.4c0-0.3,0-0.7,0-1
	c0-0.3-0.1-0.6-0.2-0.9c-0.1-0.3-0.3-0.5-0.5-0.7c-0.3-0.2-0.6-0.3-1.1-0.3c-0.1,0-0.3,0-0.6,0.1c-0.2,0.1-0.5,0.2-0.7,0.4
	c-0.2,0.2-0.4,0.4-0.6,0.8c-0.2,0.3-0.2,0.8-0.2,1.3v6.6h-3.1V87.1H175.4"/>
<path class="st0" d="M195.6,95.7c0.5,0.5,1.1,0.7,2,0.7c0.6,0,1.2-0.2,1.6-0.5c0.5-0.3,0.7-0.6,0.8-1h2.7c-0.4,1.4-1.1,2.3-2,2.9
	c-0.9,0.6-2,0.9-3.3,0.9c-0.9,0-1.7-0.1-2.4-0.4c-0.7-0.3-1.3-0.7-1.8-1.2c-0.5-0.5-0.9-1.2-1.2-1.9c-0.3-0.7-0.4-1.5-0.4-2.4
	c0-0.8,0.1-1.6,0.4-2.4c0.3-0.7,0.7-1.4,1.2-1.9c0.5-0.5,1.1-1,1.8-1.3c0.7-0.3,1.5-0.5,2.4-0.5c1,0,1.8,0.2,2.5,0.6
	c0.7,0.4,1.3,0.9,1.8,1.5c0.5,0.6,0.8,1.3,1,2.2c0.2,0.8,0.3,1.6,0.2,2.5h-8.2C194.9,94.5,195.1,95.3,195.6,95.7 M199.1,89.8
	c-0.4-0.4-0.9-0.6-1.7-0.6c-0.5,0-0.9,0.1-1.2,0.3c-0.3,0.2-0.6,0.4-0.8,0.6c-0.2,0.2-0.3,0.5-0.4,0.8c-0.1,0.3-0.1,0.5-0.1,0.7h5.1
	C199.8,90.8,199.5,90.2,199.1,89.8z"/>
<path class="st0" d="M207.8,87.1v2.1h0c0.1-0.4,0.3-0.7,0.6-1c0.2-0.3,0.5-0.6,0.9-0.8c0.3-0.2,0.7-0.4,1-0.5
	c0.4-0.1,0.7-0.2,1.1-0.2c0.2,0,0.4,0,0.7,0.1v2.9c-0.1,0-0.3-0.1-0.5-0.1c-0.2,0-0.4,0-0.6,0c-0.6,0-1.1,0.1-1.4,0.3
	c-0.4,0.2-0.7,0.5-1,0.8c-0.2,0.3-0.4,0.7-0.5,1.2c-0.1,0.4-0.2,0.9-0.2,1.4v5.1h-3.1V87.1H207.8"/>
<path class="st0" d="M213.5,82.8h3.1v2.6h-3.1V82.8z M213.5,87.1h3.1v11.4h-3.1V87.1z"/>
<path class="st0" d="M224.5,89.1c-0.5,0-0.9,0.1-1.3,0.3c-0.3,0.2-0.6,0.5-0.8,0.9c-0.2,0.4-0.4,0.8-0.4,1.2
	c-0.1,0.4-0.1,0.9-0.1,1.3c0,0.4,0,0.8,0.1,1.3c0.1,0.4,0.2,0.8,0.4,1.2c0.2,0.3,0.5,0.6,0.8,0.8c0.3,0.2,0.7,0.3,1.2,0.3
	c0.7,0,1.3-0.2,1.7-0.6c0.4-0.4,0.7-1,0.8-1.7h3c-0.2,1.5-0.8,2.7-1.8,3.5c-1,0.8-2.2,1.2-3.7,1.2c-0.9,0-1.6-0.1-2.3-0.4
	c-0.7-0.3-1.3-0.7-1.8-1.2c-0.5-0.5-0.9-1.1-1.2-1.8c-0.3-0.7-0.4-1.5-0.4-2.3c0-0.9,0.1-1.7,0.4-2.5c0.3-0.8,0.6-1.4,1.1-2
	c0.5-0.5,1.1-1,1.8-1.3c0.7-0.3,1.5-0.5,2.5-0.5c0.7,0,1.3,0.1,1.9,0.3c0.6,0.2,1.2,0.4,1.7,0.8c0.5,0.4,0.9,0.8,1.2,1.3
	c0.3,0.5,0.5,1.2,0.5,1.9h-3.1C226.6,89.8,225.9,89.1,224.5,89.1"/>
<path class="st0" d="M232.1,88.8c0.3-0.5,0.7-0.9,1.2-1.2s1.1-0.5,1.7-0.6c0.6-0.1,1.2-0.2,1.9-0.2c0.6,0,1.1,0,1.7,0.1
	c0.6,0.1,1.1,0.2,1.6,0.5c0.5,0.2,0.9,0.6,1.2,1c0.3,0.4,0.5,1,0.5,1.7v5.9c0,0.5,0,1,0.1,1.5c0.1,0.5,0.2,0.8,0.3,1.1h-3.2
	c-0.1-0.2-0.1-0.4-0.1-0.5c0-0.2-0.1-0.4-0.1-0.6c-0.5,0.5-1.1,0.9-1.8,1.1c-0.7,0.2-1.4,0.3-2.1,0.3c-0.5,0-1-0.1-1.5-0.2
	c-0.5-0.1-0.9-0.3-1.2-0.6c-0.4-0.3-0.6-0.6-0.8-1.1c-0.2-0.4-0.3-0.9-0.3-1.5c0-0.6,0.1-1.2,0.3-1.6c0.2-0.4,0.5-0.7,0.9-1
	c0.4-0.2,0.8-0.4,1.2-0.6c0.5-0.1,0.9-0.2,1.4-0.3c0.5-0.1,0.9-0.1,1.4-0.2c0.5,0,0.9-0.1,1.2-0.2c0.4-0.1,0.6-0.2,0.8-0.4
	c0.2-0.2,0.3-0.4,0.3-0.7c0-0.3-0.1-0.6-0.2-0.8c-0.1-0.2-0.3-0.4-0.4-0.5c-0.2-0.1-0.4-0.2-0.6-0.2c-0.2,0-0.5-0.1-0.8-0.1
	c-0.6,0-1.1,0.1-1.5,0.4c-0.3,0.3-0.6,0.7-0.6,1.3h-3.1C231.6,89.9,231.8,89.2,232.1,88.8 M238.3,93.2c-0.2,0.1-0.4,0.1-0.6,0.2
	c-0.2,0-0.5,0.1-0.7,0.1c-0.2,0-0.5,0.1-0.7,0.1c-0.2,0-0.5,0.1-0.7,0.2c-0.2,0.1-0.4,0.2-0.6,0.3c-0.2,0.1-0.3,0.3-0.4,0.5
	c-0.1,0.2-0.2,0.4-0.2,0.7c0,0.3,0.1,0.5,0.2,0.7c0.1,0.2,0.2,0.3,0.4,0.5c0.2,0.1,0.4,0.2,0.6,0.2c0.2,0,0.5,0.1,0.7,0.1
	c0.6,0,1.1-0.1,1.4-0.3c0.3-0.2,0.6-0.5,0.7-0.7c0.2-0.3,0.3-0.6,0.3-0.9c0-0.3,0.1-0.5,0.1-0.7v-1.2
	C238.7,93,238.5,93.1,238.3,93.2z"/>
<path class="st0" d="M247.3,87.1v1.6h0.1c0.4-0.7,0.9-1.1,1.5-1.4c0.6-0.3,1.3-0.5,1.9-0.5c0.8,0,1.5,0.1,2.1,0.3
	c0.5,0.2,1,0.5,1.3,0.9c0.3,0.4,0.5,0.9,0.6,1.5c0.1,0.6,0.2,1.2,0.2,1.9v7h-3.1V92c0-0.9-0.1-1.6-0.4-2.1c-0.3-0.5-0.8-0.7-1.6-0.7
	c-0.9,0-1.5,0.3-1.8,0.8c-0.4,0.5-0.6,1.3-0.6,2.5v6h-3.1V87.1H247.3"/>
<path class="st0" d="M161.4,120.2c0.2,0.5,0.6,0.9,1,1.1c0.4,0.3,0.9,0.5,1.4,0.7c0.5,0.1,1.1,0.2,1.7,0.2c0.4,0,0.8,0,1.3-0.1
	c0.5-0.1,0.9-0.2,1.3-0.4c0.4-0.2,0.7-0.4,1-0.8c0.3-0.3,0.4-0.7,0.4-1.3c0-0.5-0.2-1-0.5-1.3c-0.3-0.3-0.8-0.6-1.4-0.8
	c-0.6-0.2-1.2-0.4-1.9-0.6c-0.7-0.2-1.4-0.4-2.2-0.6c-0.8-0.2-1.5-0.4-2.2-0.7c-0.7-0.3-1.4-0.6-1.9-1.1c-0.6-0.4-1-1-1.4-1.6
	c-0.4-0.7-0.5-1.4-0.5-2.4c0-1,0.2-1.9,0.7-2.7c0.4-0.8,1-1.4,1.7-1.9c0.7-0.5,1.5-0.9,2.4-1.1c0.9-0.2,1.8-0.4,2.7-0.4
	c1.1,0,2.1,0.1,3,0.4c1,0.2,1.8,0.6,2.6,1.1c0.8,0.5,1.4,1.2,1.8,2c0.4,0.8,0.7,1.8,0.7,3h-4.3c0-0.6-0.2-1.1-0.4-1.5
	c-0.2-0.4-0.5-0.7-0.9-0.9c-0.4-0.2-0.8-0.4-1.2-0.5c-0.5-0.1-1-0.1-1.5-0.1c-0.4,0-0.7,0-1.1,0.1c-0.4,0.1-0.7,0.2-1,0.4
	c-0.3,0.2-0.5,0.4-0.7,0.7c-0.2,0.3-0.3,0.6-0.3,1.1c0,0.4,0.1,0.7,0.2,1c0.1,0.2,0.4,0.5,0.9,0.7c0.4,0.2,1.1,0.4,1.8,0.6
	c0.8,0.2,1.8,0.5,3.1,0.8c0.4,0.1,0.9,0.2,1.6,0.4c0.7,0.2,1.3,0.5,2,0.9c0.7,0.4,1.2,1,1.7,1.7c0.5,0.7,0.7,1.7,0.7,2.8
	c0,0.9-0.2,1.8-0.5,2.6c-0.4,0.8-0.9,1.5-1.6,2c-0.7,0.6-1.6,1-2.6,1.3c-1,0.3-2.3,0.5-3.6,0.5c-1.1,0-2.2-0.1-3.2-0.4
	c-1-0.3-2-0.7-2.8-1.3c-0.8-0.6-1.4-1.3-1.9-2.2c-0.5-0.9-0.7-2-0.7-3.2h4.3C161.1,119.1,161.2,119.7,161.4,120.2"/>
<path class="st0" d="M184,110.5v2.7h-2.9v7.2c0,0.7,0.1,1.1,0.3,1.4c0.2,0.2,0.7,0.3,1.4,0.3c0.2,0,0.4,0,0.6,0c0.2,0,0.4,0,0.6-0.1
	v3.1c-0.3,0.1-0.7,0.1-1.1,0.1c-0.4,0-0.8,0-1.2,0c-0.6,0-1.2,0-1.8-0.1c-0.6-0.1-1-0.2-1.5-0.5c-0.4-0.2-0.8-0.6-1-1
	c-0.2-0.5-0.4-1-0.4-1.8v-8.6h-2.4v-2.7h2.4v-4.4h4v4.4H184"/>
<path class="st0" d="M189.7,110.5v2.7h0.1c0.2-0.5,0.4-0.9,0.8-1.3c0.3-0.4,0.7-0.7,1.1-1c0.4-0.3,0.9-0.5,1.3-0.6
	c0.5-0.2,1-0.2,1.5-0.2c0.3,0,0.6,0,0.9,0.1v3.7c-0.2,0-0.4-0.1-0.7-0.1c-0.3,0-0.5,0-0.8,0c-0.7,0-1.4,0.1-1.9,0.4
	c-0.5,0.2-0.9,0.6-1.2,1c-0.3,0.4-0.5,0.9-0.7,1.5c-0.1,0.6-0.2,1.2-0.2,1.8v6.6h-4v-14.6H189.7"/>
<path class="st0" d="M196.5,114.7c0.4-0.9,0.9-1.8,1.5-2.4c0.7-0.7,1.4-1.2,2.4-1.6c0.9-0.4,2-0.5,3.1-0.5c1.1,0,2.2,0.2,3.1,0.5
	c0.9,0.4,1.7,0.9,2.4,1.6c0.7,0.7,1.2,1.5,1.5,2.4c0.4,1,0.5,2,0.5,3.2s-0.2,2.2-0.5,3.2c-0.4,0.9-0.9,1.7-1.5,2.4
	c-0.7,0.7-1.5,1.2-2.4,1.5c-0.9,0.4-2,0.5-3.1,0.5c-1.1,0-2.2-0.2-3.1-0.5c-0.9-0.4-1.7-0.9-2.4-1.5c-0.7-0.7-1.2-1.5-1.5-2.4
	c-0.4-0.9-0.5-2-0.5-3.2S196.2,115.6,196.5,114.7 M200.2,119.6c0.1,0.6,0.3,1.1,0.6,1.5c0.3,0.4,0.6,0.8,1.1,1.1
	c0.5,0.3,1,0.4,1.7,0.4c0.7,0,1.2-0.1,1.7-0.4c0.5-0.3,0.8-0.6,1.1-1.1c0.3-0.4,0.5-0.9,0.6-1.5c0.1-0.6,0.2-1.1,0.2-1.7
	s-0.1-1.2-0.2-1.7c-0.1-0.6-0.3-1.1-0.6-1.5c-0.3-0.4-0.6-0.8-1.1-1.1c-0.5-0.3-1-0.4-1.7-0.4c-0.7,0-1.2,0.1-1.7,0.4
	c-0.5,0.3-0.8,0.6-1.1,1.1c-0.3,0.4-0.5,0.9-0.6,1.5c-0.1,0.6-0.2,1.1-0.2,1.7S200,119,200.2,119.6z"/>
<polyline class="st0" points="218.1,105 218.1,115.8 223.1,110.5 227.9,110.5 222.4,115.9 228.5,125.1 223.6,125.1 219.6,118.6 
	218.1,120.1 218.1,125.1 214.1,125.1 214.1,105 218.1,105 "/>
<path class="st0" d="M233.2,121.6c0.6,0.6,1.5,0.9,2.6,0.9c0.8,0,1.5-0.2,2.1-0.6c0.6-0.4,0.9-0.8,1.1-1.3h3.5
	c-0.6,1.8-1.4,3-2.6,3.8c-1.2,0.8-2.6,1.1-4.2,1.1c-1.1,0-2.2-0.2-3.1-0.6c-0.9-0.4-1.7-0.9-2.3-1.6c-0.6-0.7-1.1-1.5-1.5-2.4
	c-0.4-0.9-0.5-2-0.5-3.1c0-1.1,0.2-2.1,0.5-3.1c0.4-0.9,0.9-1.8,1.5-2.4c0.7-0.7,1.4-1.2,2.4-1.6c0.9-0.4,1.9-0.6,3-0.6
	c1.2,0,2.3,0.2,3.2,0.7c0.9,0.5,1.7,1.1,2.3,1.9c0.6,0.8,1,1.7,1.3,2.8c0.3,1,0.4,2.1,0.3,3.2h-10.5
	C232.3,120.1,232.6,121.1,233.2,121.6 M237.7,114c-0.5-0.5-1.2-0.8-2.2-0.8c-0.6,0-1.2,0.1-1.6,0.3c-0.4,0.2-0.8,0.5-1,0.8
	c-0.3,0.3-0.4,0.7-0.5,1c-0.1,0.4-0.2,0.7-0.2,1h6.5C238.6,115.3,238.2,114.5,237.7,114z"/>
<path class="st0" d="M165.4,131.4l5.9,15.7h-3.6l-1.2-3.5h-5.9l-1.2,3.5H156l5.9-15.7H165.4 M165.6,141.1l-2-5.8h0l-2,5.8H165.6z"/>
<path class="st0" d="M175,144.3c0.1,0.2,0.3,0.4,0.5,0.6c0.2,0.2,0.5,0.3,0.8,0.3s0.6,0.1,0.9,0.1c0.2,0,0.5,0,0.7-0.1
	c0.2-0.1,0.5-0.1,0.7-0.2c0.2-0.1,0.4-0.3,0.5-0.4c0.1-0.2,0.2-0.4,0.2-0.7c0-0.5-0.3-0.8-0.9-1.1c-0.6-0.2-1.5-0.5-2.6-0.7
	c-0.5-0.1-0.9-0.2-1.3-0.4c-0.4-0.1-0.8-0.3-1.2-0.5c-0.3-0.2-0.6-0.5-0.8-0.9c-0.2-0.3-0.3-0.8-0.3-1.3c0-0.7,0.1-1.3,0.4-1.8
	c0.3-0.5,0.7-0.8,1.1-1.1c0.5-0.3,1-0.5,1.6-0.6c0.6-0.1,1.2-0.2,1.8-0.2c0.6,0,1.2,0.1,1.8,0.2c0.6,0.1,1.1,0.3,1.6,0.6
	c0.5,0.3,0.8,0.6,1.1,1.1c0.3,0.5,0.5,1,0.5,1.7h-3c0-0.6-0.3-1-0.7-1.2c-0.4-0.2-0.9-0.3-1.4-0.3c-0.2,0-0.4,0-0.6,0
	c-0.2,0-0.4,0.1-0.6,0.1c-0.2,0.1-0.3,0.2-0.4,0.3c-0.1,0.1-0.2,0.3-0.2,0.6c0,0.3,0.1,0.5,0.3,0.7c0.2,0.2,0.5,0.3,0.8,0.4
	c0.3,0.1,0.7,0.2,1.1,0.3c0.4,0.1,0.9,0.2,1.3,0.3c0.5,0.1,0.9,0.2,1.3,0.4c0.4,0.1,0.8,0.3,1.2,0.6c0.3,0.2,0.6,0.5,0.8,0.9
	c0.2,0.4,0.3,0.8,0.3,1.3c0,0.7-0.1,1.4-0.4,1.9c-0.3,0.5-0.7,0.9-1.2,1.2c-0.5,0.3-1,0.5-1.7,0.6c-0.6,0.1-1.3,0.2-1.9,0.2
	c-0.7,0-1.3-0.1-1.9-0.2c-0.6-0.1-1.2-0.4-1.7-0.7c-0.5-0.3-0.9-0.7-1.2-1.2c-0.3-0.5-0.5-1.1-0.5-1.9h3
	C174.8,143.8,174.8,144.1,175,144.3"/>
<path class="st0" d="M186.8,144.3c0.1,0.2,0.3,0.4,0.5,0.6c0.2,0.2,0.5,0.3,0.8,0.3c0.3,0.1,0.6,0.1,0.9,0.1c0.2,0,0.4,0,0.7-0.1
	c0.2-0.1,0.5-0.1,0.7-0.2c0.2-0.1,0.4-0.3,0.5-0.4c0.1-0.2,0.2-0.4,0.2-0.7c0-0.5-0.3-0.8-0.9-1.1c-0.6-0.2-1.5-0.5-2.6-0.7
	c-0.5-0.1-0.9-0.2-1.3-0.4c-0.4-0.1-0.8-0.3-1.2-0.5c-0.3-0.2-0.6-0.5-0.8-0.9c-0.2-0.3-0.3-0.8-0.3-1.3c0-0.7,0.1-1.3,0.4-1.8
	c0.3-0.5,0.7-0.8,1.1-1.1c0.5-0.3,1-0.5,1.6-0.6c0.6-0.1,1.2-0.2,1.8-0.2c0.6,0,1.2,0.1,1.8,0.2c0.6,0.1,1.1,0.3,1.5,0.6
	c0.5,0.3,0.8,0.6,1.1,1.1c0.3,0.5,0.5,1,0.5,1.7h-3c0-0.6-0.3-1-0.7-1.2c-0.4-0.2-0.9-0.3-1.5-0.3c-0.2,0-0.4,0-0.6,0
	c-0.2,0-0.4,0.1-0.6,0.1c-0.2,0.1-0.3,0.2-0.4,0.3c-0.1,0.1-0.2,0.3-0.2,0.6c0,0.3,0.1,0.5,0.3,0.7c0.2,0.2,0.5,0.3,0.8,0.4
	c0.3,0.1,0.7,0.2,1.1,0.3c0.4,0.1,0.9,0.2,1.3,0.3c0.5,0.1,0.9,0.2,1.3,0.4c0.4,0.1,0.8,0.3,1.2,0.6c0.3,0.2,0.6,0.5,0.8,0.9
	c0.2,0.4,0.3,0.8,0.3,1.3c0,0.7-0.2,1.4-0.5,1.9c-0.3,0.5-0.7,0.9-1.2,1.2c-0.5,0.3-1,0.5-1.7,0.6c-0.6,0.1-1.3,0.2-1.9,0.2
	c-0.7,0-1.3-0.1-1.9-0.2c-0.6-0.1-1.2-0.4-1.7-0.7c-0.5-0.3-0.9-0.7-1.2-1.2c-0.3-0.5-0.5-1.1-0.5-1.9h3
	C186.6,143.8,186.6,144.1,186.8,144.3"/>
<path class="st0" d="M196,139c0.3-0.7,0.7-1.4,1.2-1.9c0.5-0.5,1.1-0.9,1.8-1.2c0.7-0.3,1.5-0.4,2.4-0.4c0.9,0,1.7,0.1,2.4,0.4
	c0.7,0.3,1.3,0.7,1.9,1.2c0.5,0.5,0.9,1.1,1.2,1.9c0.3,0.7,0.4,1.6,0.4,2.5c0,0.9-0.1,1.7-0.4,2.5c-0.3,0.7-0.7,1.4-1.2,1.9
	c-0.5,0.5-1.1,0.9-1.9,1.2c-0.7,0.3-1.5,0.4-2.4,0.4c-0.9,0-1.7-0.1-2.4-0.4c-0.7-0.3-1.3-0.7-1.8-1.2c-0.5-0.5-0.9-1.1-1.2-1.9
	c-0.3-0.7-0.4-1.6-0.4-2.5C195.6,140.5,195.7,139.7,196,139 M198.9,142.8c0.1,0.4,0.2,0.8,0.4,1.2c0.2,0.3,0.5,0.6,0.8,0.8
	c0.3,0.2,0.8,0.3,1.3,0.3c0.5,0,1-0.1,1.3-0.3c0.4-0.2,0.6-0.5,0.9-0.8c0.2-0.3,0.4-0.7,0.5-1.2c0.1-0.4,0.1-0.9,0.1-1.3
	c0-0.5,0-0.9-0.1-1.3c-0.1-0.4-0.2-0.8-0.5-1.2c-0.2-0.3-0.5-0.6-0.9-0.8c-0.4-0.2-0.8-0.3-1.3-0.3c-0.5,0-1,0.1-1.3,0.3
	c-0.4,0.2-0.6,0.5-0.8,0.8c-0.2,0.3-0.4,0.7-0.4,1.2c-0.1,0.4-0.1,0.9-0.1,1.3C198.7,141.9,198.8,142.3,198.9,142.8z"/>
<path class="st0" d="M214.8,137.8c-0.5,0-0.9,0.1-1.3,0.3c-0.3,0.2-0.6,0.5-0.8,0.9c-0.2,0.4-0.4,0.8-0.5,1.2
	c-0.1,0.4-0.1,0.9-0.1,1.3c0,0.4,0,0.8,0.1,1.3c0.1,0.4,0.2,0.8,0.4,1.2c0.2,0.3,0.5,0.6,0.8,0.8c0.3,0.2,0.7,0.3,1.2,0.3
	c0.7,0,1.3-0.2,1.7-0.6c0.4-0.4,0.7-1,0.8-1.7h3c-0.2,1.5-0.8,2.7-1.8,3.5c-1,0.8-2.2,1.2-3.7,1.2c-0.9,0-1.6-0.1-2.3-0.4
	c-0.7-0.3-1.3-0.7-1.8-1.2c-0.5-0.5-0.9-1.1-1.2-1.8c-0.3-0.7-0.4-1.5-0.4-2.3c0-0.9,0.1-1.7,0.4-2.5c0.3-0.8,0.6-1.4,1.1-2
	c0.5-0.5,1.1-1,1.8-1.3c0.7-0.3,1.5-0.5,2.5-0.5c0.7,0,1.3,0.1,1.9,0.3c0.6,0.2,1.2,0.4,1.7,0.8c0.5,0.4,0.9,0.8,1.2,1.3
	c0.3,0.5,0.5,1.2,0.5,1.9h-3.1C216.9,138.5,216.1,137.8,214.8,137.8"/>
<path class="st0" d="M222.1,131.4h3.1v2.6h-3.1V131.4z M222.1,135.8h3.1v11.4h-3.1V135.8z"/>
<path class="st0" d="M228.1,137.4c0.3-0.5,0.7-0.9,1.2-1.2s1.1-0.5,1.7-0.6c0.6-0.1,1.2-0.2,1.9-0.2c0.6,0,1.2,0,1.7,0.1
	c0.6,0.1,1.1,0.2,1.6,0.5c0.5,0.2,0.9,0.6,1.2,1c0.3,0.4,0.5,1,0.5,1.7v5.9c0,0.5,0,1,0.1,1.5c0.1,0.5,0.2,0.8,0.3,1.1h-3.2
	c-0.1-0.2-0.1-0.4-0.1-0.5c0-0.2-0.1-0.4-0.1-0.6c-0.5,0.5-1.1,0.9-1.8,1.1c-0.7,0.2-1.4,0.3-2.1,0.3c-0.5,0-1-0.1-1.5-0.2
	c-0.5-0.1-0.9-0.3-1.2-0.6c-0.4-0.3-0.6-0.6-0.8-1.1c-0.2-0.4-0.3-0.9-0.3-1.5c0-0.6,0.1-1.2,0.3-1.6c0.2-0.4,0.5-0.8,0.9-1
	c0.4-0.2,0.8-0.4,1.2-0.6c0.5-0.1,0.9-0.2,1.4-0.3c0.5-0.1,0.9-0.1,1.4-0.2c0.5,0,0.9-0.1,1.2-0.2c0.4-0.1,0.6-0.2,0.8-0.4
	c0.2-0.2,0.3-0.4,0.3-0.7c0-0.3-0.1-0.6-0.2-0.8c-0.1-0.2-0.3-0.4-0.4-0.5c-0.2-0.1-0.4-0.2-0.6-0.2c-0.2,0-0.5-0.1-0.8-0.1
	c-0.6,0-1.1,0.1-1.5,0.4c-0.4,0.3-0.6,0.7-0.6,1.3h-3.1C227.6,138.5,227.8,137.9,228.1,137.4 M234.2,141.8c-0.2,0.1-0.4,0.1-0.6,0.2
	c-0.2,0-0.5,0.1-0.7,0.1c-0.2,0-0.5,0.1-0.7,0.1c-0.2,0-0.5,0.1-0.7,0.2c-0.2,0.1-0.4,0.2-0.6,0.3c-0.2,0.1-0.3,0.3-0.4,0.5
	c-0.1,0.2-0.2,0.4-0.2,0.7c0,0.3,0.1,0.5,0.2,0.7c0.1,0.2,0.2,0.3,0.4,0.5c0.2,0.1,0.4,0.2,0.6,0.2c0.2,0,0.5,0.1,0.7,0.1
	c0.6,0,1.1-0.1,1.4-0.3c0.3-0.2,0.6-0.4,0.7-0.7c0.2-0.3,0.3-0.6,0.3-0.9c0-0.3,0.1-0.5,0.1-0.7v-1.2
	C234.6,141.7,234.4,141.8,234.2,141.8z"/>
<path class="st0" d="M246.5,135.8v2.1h-2.3v5.6c0,0.5,0.1,0.9,0.3,1.1c0.2,0.2,0.5,0.3,1.1,0.3c0.2,0,0.3,0,0.5,0
	c0.2,0,0.3,0,0.5-0.1v2.4c-0.3,0-0.6,0.1-0.9,0.1c-0.3,0-0.6,0-0.9,0c-0.5,0-0.9,0-1.4-0.1c-0.4-0.1-0.8-0.2-1.1-0.4
	c-0.3-0.2-0.6-0.5-0.8-0.8c-0.2-0.4-0.3-0.8-0.3-1.4v-6.7h-1.9v-2.1h1.9v-3.4h3.1v3.4H246.5"/>
<path class="st0" d="M248.1,131.4h3.1v2.6h-3.1V131.4z M248.1,135.8h3.1v11.4h-3.1V135.8z"/>
<path class="st0" d="M253.8,139c0.3-0.7,0.7-1.4,1.2-1.9c0.5-0.5,1.1-0.9,1.8-1.2c0.7-0.3,1.5-0.4,2.4-0.4c0.9,0,1.7,0.1,2.4,0.4
	c0.7,0.3,1.3,0.7,1.9,1.2c0.5,0.5,0.9,1.1,1.2,1.9c0.3,0.7,0.4,1.6,0.4,2.5c0,0.9-0.1,1.7-0.4,2.5c-0.3,0.7-0.7,1.4-1.2,1.9
	c-0.5,0.5-1.1,0.9-1.9,1.2c-0.7,0.3-1.5,0.4-2.4,0.4c-0.9,0-1.7-0.1-2.4-0.4c-0.7-0.3-1.3-0.7-1.8-1.2c-0.5-0.5-0.9-1.1-1.2-1.9
	c-0.3-0.7-0.4-1.6-0.4-2.5C253.3,140.5,253.5,139.7,253.8,139 M256.6,142.8c0.1,0.4,0.2,0.8,0.4,1.2c0.2,0.3,0.5,0.6,0.8,0.8
	c0.3,0.2,0.8,0.3,1.3,0.3s1-0.1,1.3-0.3c0.4-0.2,0.6-0.5,0.9-0.8c0.2-0.3,0.4-0.7,0.5-1.2c0.1-0.4,0.1-0.9,0.1-1.3
	c0-0.5,0-0.9-0.1-1.3c-0.1-0.4-0.2-0.8-0.5-1.2c-0.2-0.3-0.5-0.6-0.9-0.8c-0.4-0.2-0.8-0.3-1.3-0.3s-1,0.1-1.3,0.3
	c-0.4,0.2-0.6,0.5-0.8,0.8c-0.2,0.3-0.4,0.7-0.4,1.2c-0.1,0.4-0.1,0.9-0.1,1.3C256.5,141.9,256.5,142.3,256.6,142.8z"/>
<path class="st0" d="M270.1,135.8v1.6h0.1c0.4-0.7,0.9-1.1,1.5-1.4c0.6-0.3,1.3-0.4,1.9-0.4c0.8,0,1.5,0.1,2.1,0.3
	c0.5,0.2,1,0.5,1.3,0.9c0.3,0.4,0.5,0.9,0.6,1.5c0.1,0.6,0.2,1.2,0.2,1.9v7h-3.1v-6.4c0-0.9-0.1-1.6-0.4-2.1
	c-0.3-0.5-0.8-0.7-1.6-0.7c-0.9,0-1.5,0.3-1.8,0.8c-0.4,0.5-0.6,1.3-0.6,2.5v6h-3.1v-11.4H270.1"/>
<rect x="138.3" y="100" class="st0" width="1.2" height="47.2"/>
<path class="st0" d="M285.8,147.1c-2,0-3.5-1.5-3.5-3.5c0-2.1,1.6-3.5,3.5-3.5c1.8,0,3.4,1.4,3.4,3.5
	C289.3,145.7,287.7,147.1,285.8,147.1 M285.8,140.7c-1.5,0-2.7,1.2-2.7,2.9c0,1.6,1,2.9,2.7,2.9c1.5,0,2.7-1.2,2.7-2.9
	C288.5,141.9,287.3,140.7,285.8,140.7z M285.1,145.6h-0.6v-3.9h1.5c0.9,0,1.4,0.3,1.4,1.1c0,0.7-0.4,1-1,1.1l1.1,1.7h-0.7l-1-1.7
	h-0.6V145.6z M285.8,143.4c0.5,0,0.9,0,0.9-0.6c0-0.5-0.5-0.5-0.8-0.5h-0.8v1.1H285.8z"/>
<path class="st0" d="M403.3,87.2c-1.7-8.1-8.4-12.7-16-12.7c-13.9-0.1-19.8,11.5-19.8,22.9c0,11.4,5.8,23,19.6,23.1
	c9.7,0,15.9-7.4,16.8-16.7l5,0c-1.4,12.8-9.6,21-21.9,21c-16.5-0.1-24.6-13.1-24.6-27.4c0.1-14.3,8.3-27.2,24.8-27.2
	c9.9,0,19.7,6,21,17L403.3,87.2"/>
<path class="st0" d="M413.3,85.9l4.9,0l12.3,32.3L442.3,86l4.6,0l-16.6,43.5c-2.7,6.4-4.2,8.2-10,8.2c-1.8-0.1-2.8-0.1-3.5-0.4
	l0-3.9c1.1,0.2,2.1,0.4,3.2,0.4c4.1,0,5.1-2.4,6.6-5.9l1.6-4.3L413.3,85.9"/>
<path class="st0" d="M477.4,98c-1.2-5.6-4.7-9.1-10.7-9.1c-8.9,0-13.3,8-13.3,16.1c0,8.1,4.3,16.1,13.2,16.2c5.7,0,10.4-4.4,11-10.7
	l4.6,0c-1.3,9.1-7.2,14.6-15.7,14.6c-11.6,0-17.8-9.2-17.8-20.1c0-10.8,6.4-20,18-19.9c8.1,0,14.3,4.4,15.3,13L477.4,98"/>
<polyline class="st0" points="489,71.7 493.6,71.7 493.4,124 488.8,124 489,71.7 "/>
<path class="st0" d="M506.9,106.4c0,6.7,3.5,14.9,12.4,14.9c6.7,0,10.4-3.9,11.9-9.6l4.6,0c-2,8.6-7,13.5-16.5,13.5
	c-12,0-17-9.3-17-20.1c0-10,5.1-20,17.2-19.9c12.2,0,17,10.7,16.6,21.3L506.9,106.4 M531.3,102.6c-0.2-7-4.5-13.5-12-13.5
	c-7.5,0-11.8,6.6-12.5,13.4L531.3,102.6z"/>
<polyline class="st0" points="543.1,71.9 548.7,71.9 579,116.3 579.2,116.3 579.3,72 584.3,72 584.1,124.4 578.5,124.3 548.2,80 
	548.1,79.9 547.9,124.2 542.9,124.2 543.1,71.9 "/>
<path class="st0" d="M594.5,98.2c0.5-8.9,6.7-12.7,15.4-12.6c6.7,0,13.9,2.1,13.9,12.2l-0.1,20.1c0,1.8,0.9,2.8,2.7,2.8
	c0.5,0,1.1-0.1,1.5-0.3l0,3.9c-1,0.2-1.8,0.3-3,0.3c-4.7,0-5.4-2.7-5.4-6.6h-0.1c-3.2,4.9-6.6,7.7-13.8,7.6c-7,0-12.7-3.5-12.6-11.1
	c0-10.6,10.4-11,20.3-12.1c3.8-0.4,5.9-0.9,6-5.1c0-6.2-4.4-7.8-9.9-7.8c-5.7,0-10,2.6-10.1,8.8L594.5,98.2 M619.1,103.8l-0.1,0
	c-0.6,1.1-2.6,1.5-3.9,1.7c-7.8,1.4-17.6,1.3-17.6,8.7c0,4.6,4.1,7.5,8.4,7.5c7,0,13.3-4.4,13.2-11.8L619.1,103.8z"/>
<path class="st0" d="M640.3,86.8l7.7,0l0,3.9l-7.7,0l-0.1,25.5c0,3,0.4,4.8,3.7,5c1.3,0,2.6-0.1,4-0.2l0,4c-1.4,0-2.7,0.1-4.1,0.1
	c-6.2,0-8.3-2.1-8.2-8.5l0.1-25.9l-6.6,0l0-3.9l6.6,0l0-11.4l4.6,0L640.3,86.8"/>
<path class="st0" d="M654.8,72.3l4.6,0l0,7.4l-4.6,0L654.8,72.3 M654.8,86.8l4.6,0l-0.1,37.8l-4.6,0L654.8,86.8z"/>
<path class="st0" d="M702.1,105.9c0,10.8-6.4,20-18,19.9c-11.6,0-17.8-9.2-17.8-20.1c0-10.8,6.4-20,18-19.9
	C695.8,85.9,702.1,95.1,702.1,105.9 M670.9,105.8c0,8.1,4.3,16.1,13.2,16.2c8.9,0,13.3-8,13.3-16.1c0-8.1-4.3-16.1-13.2-16.2
	C675.4,89.7,670.9,97.7,670.9,105.8z"/>
<path class="st0" d="M709,87l4.6,0l0,6.5h0.1c1.7-4.5,6.8-7.6,12.1-7.6c10.6,0,13.8,5.6,13.8,14.6l-0.1,24.3l-4.6,0l0.1-23.6
	c0-6.5-2.1-11.4-9.6-11.5c-7.3,0-11.8,5.5-11.9,12.9l-0.1,22.1l-4.6,0L709,87"/>
<path class="st0" d="M743.2,87.5l0-6.1l-2.2,0l0-0.7l5.3,0l0,0.7l-2.2,0l0,6.1L743.2,87.5 M747.5,87.5l0-6.8l1.4,0l2.2,5.5l2.2-5.5
	l1.4,0l0,6.8l-0.9,0l0-6h0l-2.4,6l-0.5,0l-2.4-6h0l0,6L747.5,87.5z"/>
<line class="st1" x1="330.9" y1="29.6" x2="330.9" y2="182.5"/>
</svg>
